<?xml version="1.0" standalone="no"?>
<!DOCTYPE svg PUBLIC "-//W3C//DTD SVG 20010904//EN"
 "http://www.w3.org/TR/2001/REC-SVG-20010904/DTD/svg10.dtd">
<svg version="1.0" xmlns="http://www.w3.org/2000/svg"
 width="898.000000pt" height="898.000000pt" viewBox="0 0 898.000000 898.000000"
 preserveAspectRatio="xMidYMid meet">
<metadata>
Created by potrace 1.14, written by Peter Selinger 2001-2017
</metadata>
<g transform="translate(0.000000,898.000000) scale(0.100000,-0.100000)"
fill="#000000" stroke="none">
<path d="M3648 8472 c-23 -3 -28 -9 -28 -30 -1 -15 -2 -88 -3 -161 l-2 -135
-25 -2 c-46 -2 -208 -22 -252 -30 -9 -1 -36 -5 -60 -9 l-44 -7 -33 124 c-50
188 -51 190 -69 183 -8 -3 -31 -8 -51 -11 -20 -3 -54 -10 -76 -16 -22 -6 -44
-12 -50 -13 -45 -10 -157 -41 -236 -67 l-97 -30 9 -32 c5 -17 23 -83 40 -146
17 -63 33 -118 35 -122 3 -4 -5 -12 -18 -17 -13 -5 -59 -24 -103 -41 -78 -32
-137 -56 -203 -87 -19 -8 -35 -13 -36 -11 -1 1 -38 64 -82 140 l-79 136 -115
-60 c-63 -33 -116 -64 -118 -69 -2 -5 -8 -9 -13 -9 -12 0 -193 -112 -197 -122
-2 -4 -10 -8 -18 -8 -9 0 1 -26 31 -76 25 -42 45 -77 45 -79 0 -2 16 -30 35
-62 38 -63 43 -83 21 -83 -8 0 -16 -3 -18 -7 -1 -5 -57 -48 -123 -98 -66 -49
-125 -96 -132 -105 -10 -13 -29 2 -126 99 -81 80 -119 111 -128 105 -45 -26
-369 -353 -369 -371 0 -4 50 -58 111 -119 l111 -113 -43 -53 c-24 -29 -46 -55
-49 -58 -11 -11 -96 -126 -113 -153 -9 -15 -23 -30 -30 -33 -11 -4 -149 67
-167 86 -3 3 -19 12 -35 21 -17 8 -41 22 -53 30 -21 13 -25 12 -39 -6 -23 -31
-113 -174 -113 -179 0 -3 -16 -30 -35 -61 -20 -30 -32 -55 -28 -55 4 0 3 -4
-3 -8 -5 -4 -27 -40 -47 -80 -32 -64 -35 -74 -20 -79 9 -4 45 -24 80 -45 34
-21 65 -38 68 -38 4 0 96 -54 113 -66 2 -1 -9 -28 -23 -61 -15 -32 -45 -103
-67 -158 -21 -55 -43 -110 -48 -122 -9 -21 -10 -21 -57 -7 -26 8 -57 16 -68
19 -11 2 -45 11 -75 20 -30 8 -71 18 -90 21 l-35 5 -47 -168 c-41 -145 -54
-193 -73 -283 -2 -8 -6 -27 -10 -41 -8 -31 -3 -35 49 -43 21 -4 42 -9 47 -12
5 -3 17 -7 26 -9 10 -2 45 -11 78 -20 64 -18 85 -23 98 -24 8 -1 1 -85 -7
-100 -2 -3 -6 -33 -10 -66 -3 -33 -8 -71 -11 -84 -2 -13 -5 -42 -6 -65 -2 -70
-7 -79 -40 -72 -15 3 -31 1 -34 -4 -4 -6 -11 -8 -16 -5 -7 5 -110 7 -159 4 -8
-1 -27 1 -42 4 -22 5 -28 1 -36 -22 -15 -42 -10 -510 5 -519 7 -4 80 -7 163
-7 97 1 150 -3 151 -10 0 -5 2 -17 4 -25 1 -9 6 -47 9 -85 4 -39 9 -83 12
-100 2 -16 6 -43 9 -60 2 -16 7 -47 11 -67 l6 -36 -68 -21 c-38 -11 -80 -22
-94 -25 -14 -3 -53 -13 -88 -22 -57 -15 -63 -19 -57 -38 3 -12 8 -34 11 -51 3
-16 12 -57 20 -90 37 -151 79 -297 97 -335 6 -14 12 -26 12 -27 1 -1 18 2 39
8 21 6 46 12 56 14 9 2 50 13 91 25 91 27 129 34 129 22 0 -4 32 -50 70 -101
39 -50 70 -96 70 -101 0 -4 4 -10 8 -12 5 -1 28 -30 53 -63 24 -33 49 -65 54
-71 6 -6 30 -35 55 -65 72 -87 380 -389 397 -389 2 0 14 -9 26 -21 92 -87 370
-261 567 -356 167 -80 157 -76 260 -113 47 -18 102 -38 123 -46 20 -8 38 -14
40 -13 1 0 9 -2 17 -5 65 -22 261 -71 330 -82 14 -2 41 -7 60 -10 19 -4 46 -8
60 -10 24 -3 75 -9 155 -19 22 -3 94 -8 160 -11 66 -3 125 -5 130 -6 28 -1
266 13 305 18 69 9 92 11 133 12 48 2 41 17 -10 20 -53 4 -220 31 -268 44 -22
6 -53 12 -70 15 -41 7 -338 104 -349 114 -6 5 -18 9 -28 9 -10 0 -18 4 -18 10
0 5 -3 9 -7 8 -16 -3 -176 71 -181 84 -2 4 -10 8 -19 8 -8 0 -27 8 -41 18 -47
30 -67 42 -82 49 -18 7 -223 143 -230 152 -3 3 -23 19 -45 36 -22 16 -80 66
-130 110 -76 68 -121 113 -235 234 -8 9 -31 37 -49 61 -19 25 -41 52 -49 60
-12 13 -86 117 -120 166 -38 57 -102 165 -102 173 0 5 -7 14 -15 21 -8 7 -13
16 -10 20 3 4 -2 13 -10 20 -8 7 -15 16 -15 20 0 4 -22 56 -50 114 -27 58 -50
110 -50 114 0 4 -14 43 -31 87 -17 44 -32 87 -34 95 -9 42 -35 131 -40 139 -3
5 -7 22 -10 38 -2 15 -9 51 -15 78 -10 50 -13 63 -25 140 -40 264 -37 618 6
845 6 30 12 64 14 75 21 131 94 367 162 525 53 123 191 383 212 400 3 3 28 38
55 78 44 65 93 129 166 217 38 45 250 254 307 303 75 63 281 208 363 255 49
28 234 124 240 124 3 0 25 10 50 21 102 47 255 99 400 137 59 15 198 42 260
51 25 3 54 8 65 10 112 21 563 20 667 -2 36 -8 111 -18 136 -18 12 -1 22 -4
22 -7 0 -3 6 -6 13 -6 55 -3 230 -48 342 -89 39 -14 77 -27 85 -29 52 -11 417
-190 440 -215 3 -3 27 -19 54 -34 50 -29 227 -160 285 -211 112 -98 200 -185
263 -257 29 -34 58 -66 63 -72 34 -37 115 -147 115 -156 0 -5 4 -10 9 -10 5 0
22 -21 38 -46 15 -26 36 -58 45 -73 10 -14 21 -33 25 -41 3 -8 15 -27 25 -42
l19 -27 -35 -33 c-123 -119 -348 -343 -381 -379 -52 -56 -202 -226 -235 -265
-73 -86 -180 -222 -180 -228 0 -7 60 31 70 45 3 3 10 8 15 10 6 2 72 46 148
97 76 50 142 92 148 92 5 0 9 4 9 8 0 5 12 15 27 23 22 11 124 77 293 188 312
206 586 402 710 511 19 17 60 52 90 78 63 55 237 228 295 294 117 133 119 139
86 188 -10 14 -21 32 -24 40 -4 8 -17 31 -30 51 -12 19 -38 61 -57 92 -19 31
-39 56 -45 57 -5 0 -63 -32 -129 -70 -123 -73 -166 -91 -166 -70 0 10 -91 138
-125 176 -5 7 -21 26 -35 44 -14 17 -33 41 -42 52 -16 19 -14 23 93 129 60 61
109 116 109 123 0 16 -311 334 -353 361 l-27 17 -93 -93 c-147 -148 -120 -141
-223 -58 -49 39 -97 77 -107 85 -9 8 -19 14 -22 14 -3 0 -15 9 -27 20 -13 10
-31 25 -41 32 -19 14 -16 25 33 103 10 17 28 48 40 70 12 22 33 59 47 83 14
23 20 42 15 42 -6 0 -17 6 -24 13 -7 7 -46 33 -86 58 -41 24 -90 54 -110 66
-20 13 -62 35 -92 50 -30 16 -57 30 -60 33 -8 8 -63 33 -82 36 -15 3 -52 -50
-97 -141 -8 -16 -18 -32 -22 -35 -3 -3 -16 -24 -28 -47 -12 -24 -23 -43 -24
-43 -4 0 -175 73 -222 95 -16 7 -42 17 -58 20 -15 4 -30 11 -33 16 -3 5 -14 9
-25 9 -10 0 -19 5 -19 11 0 11 19 83 46 174 8 28 16 60 19 73 2 13 7 32 10 42
5 16 -10 28 -45 35 -3 1 -39 11 -80 24 -136 42 -165 50 -205 57 -22 4 -46 11
-52 17 -7 5 -13 7 -13 4 0 -2 -28 1 -62 9 -35 7 -64 12 -65 11 -2 -3 -60 -218
-67 -252 -11 -51 -17 -56 -59 -50 -66 10 -100 15 -127 20 -14 3 -54 7 -90 10
-36 3 -74 7 -85 9 -11 3 -25 5 -30 5 -7 1 -10 59 -10 158 l0 157 -34 7 c-34 7
-432 8 -483 1z"/>
<path d="M7747 6387 c-10 -18 -28 -45 -40 -58 -12 -13 -33 -41 -47 -61 -14
-21 -28 -38 -32 -38 -5 0 -8 -4 -8 -10 0 -5 -8 -18 -17 -28 -10 -10 -43 -47
-73 -83 -120 -141 -517 -509 -549 -509 -5 0 -11 -4 -13 -9 -1 -5 -61 -53 -133
-105 -71 -53 -137 -102 -146 -109 -8 -6 -23 -16 -31 -22 -9 -5 -117 -77 -240
-160 -123 -82 -231 -154 -240 -160 -31 -18 -463 -309 -474 -320 -6 -5 -22 -17
-34 -25 -61 -41 -255 -188 -290 -220 -9 -8 -48 -42 -86 -75 -80 -69 -246 -235
-295 -295 -19 -24 -39 -48 -45 -54 -75 -79 -265 -415 -280 -496 -2 -8 -7 -23
-13 -35 -12 -24 -48 -156 -56 -205 -3 -19 -8 -42 -10 -50 -14 -51 -20 -140
-20 -330 0 -221 5 -284 30 -410 3 -14 8 -41 11 -60 3 -19 10 -53 16 -75 6 -22
11 -44 12 -50 13 -71 33 -138 43 -142 12 -5 114 25 178 52 17 7 89 36 160 66
72 29 132 56 133 61 2 4 10 8 17 8 23 0 298 148 392 212 23 15 46 28 52 28 6
0 11 5 11 10 0 6 5 10 10 10 6 0 16 4 23 10 33 27 108 80 113 80 9 0 282 221
339 275 136 127 325 320 325 333 0 2 6 10 13 16 31 25 227 281 227 295 0 5 4
11 9 13 12 4 151 220 151 235 0 7 4 13 9 13 5 0 23 29 41 65 18 36 37 65 42
65 5 0 7 -3 5 -7 -2 -5 -23 -48 -46 -98 -23 -49 -47 -99 -53 -110 -6 -11 -34
-63 -61 -115 -28 -52 -58 -107 -68 -122 -11 -14 -19 -29 -19 -32 0 -3 -13 -25
-30 -49 -16 -25 -30 -50 -30 -56 0 -6 -4 -11 -9 -11 -5 0 -14 -13 -21 -30 -7
-17 -16 -30 -21 -30 -5 0 -9 -6 -9 -13 0 -7 -9 -24 -19 -37 -10 -14 -63 -83
-116 -155 -216 -288 -473 -554 -740 -764 -49 -39 -101 -80 -115 -91 -95 -77
-495 -328 -550 -345 -11 -4 -20 -11 -20 -16 0 -5 -5 -9 -12 -9 -7 0 -55 -21
-108 -47 -52 -26 -97 -47 -100 -48 -3 0 -22 -8 -42 -18 -79 -36 -106 -47 -188
-77 -47 -17 -92 -33 -100 -37 -8 -3 -19 -7 -25 -9 -117 -38 -244 -77 -259 -80
-10 -2 -33 -8 -50 -13 -17 -6 -42 -12 -56 -15 -14 -3 -36 -8 -50 -11 -14 -4
-34 -8 -45 -10 -11 -2 -20 -4 -20 -5 0 -1 -7 -3 -15 -5 -8 -1 -40 -8 -70 -14
-30 -6 -72 -13 -94 -17 -21 -3 -48 -7 -59 -10 -29 -5 -159 -22 -237 -31 -141
-15 -700 -6 -730 12 -3 2 -37 6 -75 10 -39 4 -73 9 -77 12 -4 2 -24 6 -44 9
-20 2 -65 11 -99 19 -35 8 -74 16 -88 19 -49 9 -259 69 -317 91 -19 7 -73 27
-120 45 -106 39 -95 34 -275 120 -82 40 -151 76 -153 81 -2 5 -9 9 -15 9 -11
0 -122 64 -192 111 -22 14 -44 28 -50 30 -10 3 -36 23 -59 45 -6 6 -16 13 -22
15 -6 2 -26 15 -43 29 -217 168 -215 167 -381 330 -129 127 -193 197 -266 289
-36 45 -64 74 -64 66 0 -5 6 -16 13 -24 11 -13 111 -170 170 -266 6 -11 14
-22 17 -25 3 -3 23 -30 45 -60 21 -30 50 -69 64 -86 15 -18 37 -46 49 -63 108
-142 344 -382 517 -526 33 -28 62 -52 65 -55 45 -46 369 -264 500 -338 79 -44
285 -147 355 -177 92 -40 287 -115 310 -119 6 -1 15 -5 21 -8 6 -4 21 -9 35
-12 13 -2 53 -14 88 -25 36 -12 78 -24 95 -27 16 -3 33 -7 38 -10 5 -3 20 -7
34 -10 14 -3 56 -12 93 -20 36 -9 75 -18 86 -20 126 -25 133 -26 240 -39 21
-3 50 -7 64 -9 195 -32 650 -37 896 -11 114 12 141 15 165 19 14 3 45 8 70 11
25 4 59 9 75 12 17 3 41 7 55 9 14 1 25 3 25 4 0 1 11 4 25 6 14 2 61 13 105
24 44 11 89 22 100 24 31 5 178 45 200 55 17 7 186 65 220 75 50 15 261 105
365 156 63 32 125 60 138 64 12 4 22 12 22 17 0 5 5 9 10 9 45 0 581 355 680
450 9 8 40 35 70 60 93 78 215 195 325 311 282 298 522 645 705 1019 36 72 52
107 100 215 21 48 98 249 104 270 2 8 35 115 74 240 3 11 6 22 7 25 1 3 13 55
28 115 24 100 36 154 42 195 1 8 6 33 10 55 13 65 14 75 20 134 4 31 8 63 10
71 4 14 6 34 21 185 15 147 8 649 -10 785 -2 14 -7 48 -10 75 -9 71 -27 186
-33 215 -2 14 -6 32 -7 40 -2 8 -8 40 -14 70 -7 30 -14 64 -16 75 -12 55 -77
298 -83 308 -4 7 -9 20 -10 29 -2 10 -8 32 -15 48 l-13 31 -18 -34z m-797
-2317 c-6 -11 -13 -20 -16 -20 -2 0 0 9 6 20 6 11 13 20 16 20 2 0 0 -9 -6
-20z"/>
<path d="M8005 2634 c-251 -51 -453 -200 -578 -426 -14 -25 -23 -49 -20 -52 4
-3 1 -6 -5 -6 -7 0 -12 -7 -12 -16 0 -13 4 -13 30 3 17 9 30 20 30 24 0 10 83
62 172 107 88 45 229 93 313 107 11 2 35 6 54 10 65 12 227 15 208 4 -9 -6
-21 -8 -25 -5 -4 3 -27 1 -50 -5 -23 -5 -58 -12 -76 -15 -61 -9 -159 -41 -229
-73 -37 -17 -72 -31 -76 -31 -5 0 -11 -4 -13 -8 -1 -4 -23 -20 -48 -34 -25
-14 -55 -34 -67 -45 -12 -10 -38 -31 -58 -47 l-37 -28 40 -38 c56 -54 162
-120 217 -135 17 -4 37 -10 45 -12 13 -4 84 -13 115 -15 28 -1 118 15 180 33
39 12 178 74 310 139 242 119 388 174 490 186 30 4 55 10 55 14 0 11 -129 126
-176 157 -21 15 -41 30 -44 34 -3 3 -48 29 -100 56 -222 114 -452 156 -645
117z m245 -238 c0 -2 -7 -7 -16 -10 -8 -3 -12 -2 -9 4 6 10 25 14 25 6z"/>
<path d="M7018 1595 c-2 -1 -25 -5 -53 -8 -196 -23 -434 -118 -577 -229 -21
-17 -38 -27 -38 -23 0 4 -55 -48 -122 -116 -68 -67 -118 -124 -112 -126 6 -2
45 10 87 27 41 16 82 30 89 30 8 0 19 5 26 12 7 7 12 9 12 5 0 -4 9 -3 21 3
11 6 30 13 42 15 12 3 42 9 67 15 58 13 97 20 140 26 19 3 60 9 90 14 30 5
127 7 215 5 148 -3 199 -7 265 -21 14 -3 37 -7 52 -9 15 -2 46 -9 70 -15 24
-7 51 -14 60 -15 40 -8 134 -39 143 -48 6 -6 1 -7 -15 -3 -61 17 -151 33 -235
43 -111 13 -355 7 -445 -12 -14 -3 -41 -8 -60 -11 -86 -14 -256 -69 -366 -119
l-76 -35 22 -37 c76 -129 224 -293 295 -327 19 -9 35 -21 35 -26 0 -6 6 -10
14 -10 8 0 27 -7 43 -15 25 -14 88 -39 88 -35 0 1 13 -3 28 -9 48 -18 116 -25
247 -26 140 0 243 9 320 28 14 4 43 9 65 12 22 3 47 7 55 10 14 4 37 9 98 20
15 3 59 12 97 21 68 15 86 19 153 28 18 3 48 8 65 12 32 7 45 8 172 20 121 12
324 7 402 -10 l23 -5 -25 50 c-69 135 -180 284 -310 415 -91 91 -223 204 -239
204 -4 0 -19 11 -34 25 -15 14 -30 25 -35 25 -4 0 -26 12 -50 27 -23 15 -80
46 -127 69 -191 93 -359 132 -572 132 -59 0 -109 -2 -110 -3z m526 -474 c4 -5
-3 -7 -14 -4 -23 6 -26 13 -6 13 8 0 17 -4 20 -9z"/>
</g>
</svg>
