<?xml version="1.0" standalone="no"?>
<!DOCTYPE svg PUBLIC "-//W3C//DTD SVG 20010904//EN"
 "http://www.w3.org/TR/2001/REC-SVG-20010904/DTD/svg10.dtd">
<svg version="1.0" xmlns="http://www.w3.org/2000/svg"
 width="1092.000000pt" height="1092.000000pt" viewBox="0 0 1092.000000 1092.000000"
 preserveAspectRatio="xMidYMid meet">
<metadata>
Created by potrace 1.14, written by Peter Selinger 2001-2017
</metadata>
<g transform="translate(0.000000,1092.000000) scale(0.100000,-0.100000)"
fill="#000000" stroke="none">
<path d="M6658 9884 c-54 -29 -61 -58 -60 -276 1 -110 4 -203 7 -208 4 -6 2
-10 -3 -10 -19 0 11 -71 37 -89 25 -17 199 -73 231 -74 8 0 21 -6 28 -14 8 -7
18 -11 23 -7 6 3 15 2 22 -3 7 -5 32 -15 57 -22 25 -7 63 -21 85 -31 76 -33
129 -55 135 -55 9 -1 272 -133 340 -171 36 -20 91 -54 122 -75 31 -22 60 -39
63 -39 3 0 11 -5 18 -10 7 -6 57 -43 112 -84 198 -144 375 -304 535 -481 42
-47 115 -133 168 -200 27 -35 136 -191 170 -245 23 -36 45 -69 49 -75 5 -5 24
-39 42 -75 19 -36 37 -67 41 -70 4 -3 11 -16 15 -30 4 -13 14 -30 21 -38 8 -7
12 -18 9 -23 -4 -5 -1 -9 4 -9 6 0 10 -3 9 -7 0 -5 18 -48 41 -98 24 -49 45
-97 46 -107 2 -9 10 -27 19 -40 8 -13 15 -25 15 -28 0 -6 3 -15 36 -110 15
-41 28 -82 30 -90 2 -8 4 -16 5 -17 2 -2 3 -6 4 -10 1 -5 10 -35 20 -67 32
-107 39 -109 315 -110 241 -1 267 3 297 49 18 27 26 82 15 100 -3 6 -7 19 -9
30 -2 16 -32 125 -46 170 -2 6 -4 12 -5 15 0 3 -14 42 -30 87 -16 45 -26 84
-23 87 3 3 0 6 -6 6 -7 0 -11 3 -10 8 3 10 -80 218 -108 267 -12 22 -23 45
-23 50 -4 24 -119 239 -194 362 -45 74 -86 143 -92 154 -5 10 -13 19 -17 19
-5 0 -8 5 -8 11 0 6 -6 17 -12 24 -7 8 -24 30 -38 50 -42 59 -141 190 -149
195 -4 3 -12 12 -17 21 -22 40 -196 230 -323 353 -111 108 -109 106 -191 176
-94 80 -91 77 -180 145 -36 27 -66 53 -68 57 -2 4 -10 8 -18 8 -8 0 -14 5 -14
10 0 6 -7 10 -15 10 -8 0 -15 5 -15 10 0 6 -6 10 -14 10 -8 0 -16 4 -18 9 -1
5 -46 36 -98 69 -52 34 -99 65 -105 69 -5 5 -21 14 -35 20 -14 7 -50 27 -80
44 -52 30 -269 142 -280 145 -3 0 -27 11 -55 23 -27 12 -84 36 -125 53 -41 16
-84 34 -95 39 -25 11 -244 82 -305 99 -25 7 -61 17 -80 23 -19 6 -42 12 -50
13 -8 1 -33 7 -55 13 -54 14 -85 13 -117 -5z"/>
<path d="M6523 8706 c-58 -26 -63 -49 -63 -301 0 -293 -4 -283 135 -336 68
-25 282 -128 335 -161 19 -11 44 -26 55 -33 65 -38 85 -51 85 -57 0 -5 5 -8
10 -8 10 0 77 -48 180 -128 31 -25 305 -297 333 -332 14 -18 95 -126 119 -161
37 -51 98 -150 98 -159 0 -4 4 -10 9 -12 9 -3 132 -246 149 -295 6 -18 16 -33
22 -33 6 0 9 -4 6 -9 -15 -24 62 -35 273 -36 230 -1 270 4 304 38 21 21 40 99
27 114 -4 4 -12 24 -19 43 -20 56 -30 78 -89 215 -34 79 -121 247 -131 255 -4
3 -15 21 -25 40 -38 75 -47 90 -57 90 -5 0 -9 6 -9 13 0 14 -138 209 -152 215
-4 2 -8 10 -8 17 0 7 -4 15 -8 17 -5 2 -37 37 -72 78 -70 82 -249 262 -325
325 -26 22 -53 45 -59 51 -26 25 -187 143 -253 186 -74 49 -222 138 -228 138
-2 0 -27 13 -55 30 -27 16 -50 27 -50 24 0 -4 -11 1 -24 9 -32 21 -199 92
-310 132 -117 42 -162 49 -203 31z"/>
<path d="M4628 7895 c-2 -2 -39 -6 -83 -10 -44 -3 -89 -8 -100 -10 -11 -3 -38
-7 -60 -10 -88 -13 -111 -16 -127 -21 -24 -7 -60 -15 -83 -19 -11 -2 -20 -4
-20 -5 0 -1 -7 -3 -15 -5 -69 -13 -298 -88 -385 -125 -151 -64 -445 -221 -453
-242 -2 -4 -10 -8 -18 -8 -8 0 -14 -4 -14 -10 0 -5 -5 -10 -10 -10 -10 0 -118
-75 -130 -90 -3 -3 -19 -16 -37 -28 -81 -57 -288 -251 -368 -347 -22 -26 -47
-55 -56 -64 -8 -9 -31 -36 -49 -61 -19 -25 -43 -54 -52 -64 -10 -11 -18 -26
-18 -33 0 -7 -3 -13 -8 -13 -18 0 -161 -237 -238 -395 -91 -187 -175 -422
-210 -589 -12 -54 -27 -133 -30 -151 -1 -11 -3 -20 -4 -20 -2 0 -7 -31 -14
-100 -3 -27 -9 -75 -13 -105 -9 -67 -9 -421 -1 -506 l6 -62 -136 1 c-118 1
-189 -3 -302 -18 -58 -7 -148 -27 -233 -50 -9 -3 -25 -7 -35 -10 -34 -9 -107
-35 -124 -45 -10 -6 -22 -10 -28 -10 -17 0 -198 -90 -260 -128 -104 -65 -190
-126 -190 -134 0 -4 -4 -8 -10 -8 -15 0 -53 -34 -165 -145 -101 -101 -116
-118 -170 -190 -16 -22 -33 -42 -37 -43 -4 -2 -8 -10 -8 -18 0 -8 -4 -14 -10
-14 -5 0 -10 -7 -10 -15 0 -8 -4 -15 -10 -15 -5 0 -10 -5 -10 -12 0 -6 -7 -19
-15 -28 -20 -22 -127 -234 -150 -295 -10 -27 -22 -56 -28 -63 -5 -7 -7 -15 -4
-19 4 -3 1 -15 -5 -26 -17 -32 -63 -209 -63 -239 1 -16 -2 -28 -5 -28 -4 0 -7
-6 -8 -12 0 -7 -4 -47 -9 -88 -14 -130 -7 -470 11 -520 3 -8 7 -31 10 -50 3
-19 8 -48 11 -65 4 -16 8 -34 9 -40 1 -5 10 -37 20 -70 10 -33 19 -64 21 -70
3 -14 15 -44 31 -82 8 -17 14 -34 14 -37 0 -32 179 -356 201 -364 5 -2 9 -10
9 -18 0 -8 5 -14 10 -14 6 0 10 -6 10 -14 0 -8 3 -16 8 -18 4 -2 29 -30 57
-63 122 -146 272 -279 426 -377 116 -73 117 -74 179 -103 30 -15 63 -31 73
-36 75 -40 342 -122 432 -134 17 -2 41 -6 55 -9 14 -3 57 -9 95 -12 74 -7
4965 -12 4965 -5 0 2 -26 29 -58 60 -31 31 -71 74 -87 96 -17 22 -33 42 -36
45 -25 19 -169 277 -174 310 0 3 -10 34 -22 70 -12 36 -25 83 -29 105 -10 51
-11 54 -14 58 -8 9 -15 124 -15 247 1 139 6 197 20 219 3 6 2 11 -4 11 -7 0
-7 8 -1 23 5 12 16 49 25 82 10 33 22 74 28 90 6 17 12 35 13 40 3 18 95 200
110 216 8 8 14 19 14 23 0 14 109 149 172 214 102 104 249 206 391 271 37 17
69 31 72 31 2 0 16 5 32 12 15 6 37 13 47 15 11 2 42 10 70 18 97 27 167 36
296 39 l85 1 31 60 c40 79 55 105 77 129 9 11 17 23 17 27 0 4 6 14 13 21 6 7
31 38 54 68 41 53 122 138 193 200 35 31 237 172 242 169 2 -1 36 15 76 34 40
20 89 41 110 48 20 6 42 14 47 18 6 3 15 6 20 8 6 1 44 11 85 22 75 21 143 33
190 35 14 1 30 4 35 7 14 9 289 4 350 -6 86 -13 204 -40 245 -54 130 -48 291
-121 310 -141 3 -3 16 -11 30 -18 83 -42 350 -280 350 -311 0 -6 4 -11 9 -11
24 0 207 -303 230 -380 6 -21 62 -192 69 -210 3 -8 4 -18 4 -22 -1 -4 3 -29 8
-55 6 -27 12 -59 13 -73 2 -14 7 -24 10 -23 4 1 36 -9 72 -22 52 -18 65 -20
66 -9 1 8 2 17 3 22 15 56 34 155 41 207 3 22 8 47 10 55 23 84 23 487 0 625
-11 60 -35 191 -41 215 -3 14 -7 32 -8 40 -4 22 -26 103 -33 120 -4 8 -7 17
-8 20 -18 73 -70 202 -130 326 -25 50 -45 96 -45 102 0 5 -3 12 -8 14 -4 2
-27 37 -51 78 -25 41 -48 77 -53 78 -4 2 -8 8 -8 14 0 12 -120 171 -182 242
-138 159 -394 381 -500 435 -16 8 -28 18 -28 23 0 4 -4 8 -10 8 -5 0 -38 17
-72 38 -92 56 -316 162 -341 162 -7 0 -17 4 -22 9 -6 6 -21 12 -35 14 -14 3
-36 10 -50 16 -80 34 -330 89 -490 107 -131 15 -509 9 -607 -11 -11 -2 -38 -6
-59 -9 -48 -7 -107 -19 -156 -32 -13 -3 -30 -7 -38 -9 -8 -2 -15 -4 -15 -5 0
-1 -7 -3 -16 -5 -9 -1 -25 -6 -35 -9 -17 -5 -22 5 -44 87 -13 50 -25 95 -26
100 -1 4 -3 9 -4 12 -1 3 -3 8 -4 13 -1 8 -33 95 -46 127 -4 11 -22 55 -39 98
-39 97 -114 251 -123 255 -5 2 -8 8 -8 13 0 5 -18 39 -40 75 -22 36 -40 68
-40 71 0 4 -82 124 -101 147 -5 6 -26 34 -46 62 -21 28 -58 76 -83 105 -45 54
-289 301 -326 329 -19 15 -109 87 -131 105 -145 119 -482 306 -684 380 -110
40 -314 103 -364 111 -11 2 -64 13 -118 24 -55 10 -124 22 -155 25 -32 3 -68
8 -82 11 -26 6 -466 14 -472 9z"/>
<path d="M8808 3855 c-1 -1 -25 -5 -53 -9 -27 -3 -75 -13 -105 -22 -30 -8 -62
-17 -70 -19 -8 -2 -16 -4 -17 -5 -2 -2 -6 -3 -10 -5 -15 -4 -64 -25 -121 -52
-176 -83 -343 -229 -450 -393 -23 -36 -46 -70 -52 -77 -5 -7 -10 -15 -10 -19
0 -3 -11 -28 -24 -54 -28 -55 -76 -191 -76 -214 0 -19 -3 -19 -50 -6 -74 20
-109 23 -235 23 -138 0 -158 -3 -275 -34 -142 -38 -347 -159 -423 -249 -14
-16 -28 -26 -31 -23 -3 4 -6 0 -6 -7 0 -7 -8 -20 -18 -29 -25 -24 -96 -128
-126 -188 -51 -103 -85 -210 -102 -326 -7 -45 -6 -237 1 -267 3 -14 8 -36 10
-50 22 -127 89 -279 174 -393 105 -143 293 -287 433 -332 29 -10 59 -22 66
-28 6 -5 12 -7 12 -4 0 3 21 0 48 -8 26 -7 61 -15 77 -16 17 -2 35 -6 40 -9
14 -9 2812 -5 2855 4 175 34 317 111 437 235 35 35 65 72 68 82 4 11 10 19 15
19 5 0 12 10 16 23 3 12 14 33 24 47 20 29 66 151 62 164 -1 4 1 13 6 20 23
31 22 356 -1 356 -4 0 -7 6 -5 13 2 13 -7 46 -27 92 -7 17 -19 45 -26 62 -8
18 -17 33 -20 33 -4 0 -9 8 -13 18 -18 55 -135 180 -226 241 -133 89 -273 132
-435 134 l-60 0 -1 121 c0 104 -5 162 -19 236 -41 211 -155 421 -315 580 -128
127 -251 204 -445 280 -23 9 -100 30 -130 36 -11 2 -31 7 -45 10 -26 6 -316
15 -322 9z"/>
</g>
</svg>
