<?xml version="1.0" encoding="UTF-8" standalone="no"?><!DOCTYPE svg PUBLIC "-//W3C//DTD SVG 1.1//EN" "http://www.w3.org/Graphics/SVG/1.1/DTD/svg11.dtd"><svg width="100%" height="100%" viewBox="0 0 235 235" version="1.1" xmlns="http://www.w3.org/2000/svg" xmlns:xlink="http://www.w3.org/1999/xlink" xml:space="preserve" xmlns:serif="http://www.serif.com/" style="fill-rule:evenodd;clip-rule:evenodd;stroke-linejoin:round;stroke-miterlimit:2;"><g id="Group_3839"><circle id="Ellipse_3245" cx="117.428" cy="117.428" r="117.428" style="fill:#0c7399;"/><g id="Group_3838"><path id="Union_9" d="M85.872,164.157l9.134,-9.134l16.6,16.6l-0,-110.283l-16.6,16.601l-9.134,-9.127l32.206,-32.213l32.205,32.213l-9.134,9.135l-16.616,-16.609l0,110.275l16.592,-16.6l9.142,9.134l-32.205,32.206l-32.19,-32.198Z" style="fill:#fff;fill-rule:nonzero;"/><path id="Union_10" d="M70.386,84.284l9.142,9.134l-16.6,16.6l110.259,0l-16.6,-16.6l9.126,-9.134l32.206,32.206l-32.206,32.206l-9.134,-9.134l16.608,-16.617l-110.251,0l16.6,16.592l-9.134,9.143l-32.214,-32.206l32.198,-32.19Z" style="fill:#fff;fill-rule:nonzero;"/></g></g><g id="Group_173"></g><g id="Group_2839"></g><g id="Group_3788"></g><g id="Group_3751"></g><g id="Group_2717"></g><g id="Group_3750-2"></g><g id="Group_2340"></g><g id="Group_2590"></g></svg>