<?xml version="1.0" encoding="UTF-8" standalone="no"?><!DOCTYPE svg PUBLIC "-//W3C//DTD SVG 1.1//EN" "http://www.w3.org/Graphics/SVG/1.1/DTD/svg11.dtd"><svg width="100%" height="100%" viewBox="0 0 295 212" version="1.1" xmlns="http://www.w3.org/2000/svg" xmlns:xlink="http://www.w3.org/1999/xlink" xml:space="preserve" xmlns:serif="http://www.serif.com/" style="fill-rule:evenodd;clip-rule:evenodd;stroke-linejoin:round;stroke-miterlimit:2;"><g id="Group_3839"></g><g id="Group_173"><g id="Group_113"><ellipse id="Ellipse_82" cx="67.708" cy="9.278" rx="8.982" ry="9.278" style="fill:#f18c23;"/><ellipse id="Ellipse_83" cx="34.788" cy="106.738" rx="8.982" ry="9.278" style="fill:#f28f22;"/><ellipse id="Ellipse_84" cx="35.165" cy="150.436" rx="8.982" ry="9.278" style="fill:#f28f22;"/><ellipse id="Ellipse_85" cx="8.982" cy="106.738" rx="8.982" ry="9.278" style="fill:#f28f22;"/><path id="Path_4691" d="M191.15,0.385l-100.25,-0c-5.09,-0.388 -9.616,3.427 -10.097,8.509c0.481,5.081 5.007,8.896 10.097,8.508l43.016,0c-13.401,9.404 -24.522,21.695 -32.543,35.967l-76.312,0c-5.09,-0.387 -9.616,3.427 -10.097,8.509c0.485,5.078 5.01,8.888 10.097,8.5l68.453,0c-2.983,8.758 -4.868,17.852 -5.613,27.074l-27.667,-0c-0.49,-0.086 -0.986,-0.129 -1.484,-0.129c-4.738,0 -8.636,3.899 -8.636,8.637c-0,4.738 3.898,8.637 8.636,8.637c0.498,0 0.994,-0.043 1.484,-0.128l121.951,-0l-0,26.295l-123.082,0c-0.49,-0.085 -0.986,-0.128 -1.483,-0.128c-4.738,0 -8.637,3.899 -8.637,8.637c-0,4.738 3.899,8.637 8.637,8.637c0.497,-0 0.993,-0.043 1.483,-0.128l42.27,-0c7.805,14.635 19.099,27.122 32.88,36.352l-46,-0c-0.489,-0.086 -0.986,-0.129 -1.483,-0.129c-4.738,0 -8.637,3.899 -8.637,8.637c0,4.738 3.899,8.637 8.637,8.637c0.497,-0 0.994,-0.043 1.483,-0.128l102.897,-0c56.813,-0.542 103.258,-47.432 103.258,-104.248c0,-0.442 -0.002,-0.885 -0.008,-1.328c0.004,-0.351 0.005,-0.703 0.005,-1.054c0,-56.795 -46.462,-103.654 -103.255,-104.136Zm78.59,70.386c3.68,8.334 5.953,17.219 6.729,26.296l-33.682,-0c-0.415,-8.821 -1.406,-17.605 -2.967,-26.296l29.92,0Zm-10.104,-17.787l-24.339,0c-2.908,-10.199 -7.187,-19.957 -12.719,-29.006c14.772,6.085 27.587,16.122 37.034,29.006l0.024,0Zm-34.411,44.107l-25.502,-0l0,-26.32l22.454,0c1.574,8.69 2.573,17.474 2.992,26.296l0.056,0.024Zm-25.438,-44.107l0,-32.077c7.604,9.78 13.543,20.749 17.579,32.462l-17.579,-0.385Zm-17.578,-32.077l-0,32.486l-17.242,0c3.747,-11.78 9.576,-22.794 17.21,-32.519l0.032,0.033Zm-22.824,3.103c-5.528,9.051 -9.807,18.808 -12.718,29.006l-24.347,0c9.5,-12.84 22.298,-22.875 37.033,-29.038l0.032,0.032Zm-17.233,46.761c-1.573,8.69 -2.573,17.474 -2.991,26.296l-34.067,-0c0.776,-9.077 3.049,-17.962 6.728,-26.296l30.33,0Zm14.587,26.296c0.359,-8.846 1.486,-17.645 3.368,-26.296l22.455,0l-0,26.296l-25.823,-0Zm25.806,61.492l0,32.479c-7.531,-9.834 -13.464,-20.795 -17.578,-32.479l17.578,0Zm-60.225,0l24.315,0c3.142,10.111 7.409,19.838 12.718,28.999c-14.923,-5.817 -27.807,-15.905 -37.033,-28.999Zm77.443,32.479l0,-32.479l17.603,0c-4.12,11.683 -10.055,22.644 -17.587,32.479l-0.016,0Zm0,-49.881l0,-26.303l25.807,-0c-0.753,8.808 -1.874,17.581 -3.361,26.295l-22.446,0.008Zm22.823,46.401c5.599,-9.011 9.882,-18.776 12.719,-28.999l24.315,0c-9.229,13.094 -22.115,23.183 -37.042,28.999l0.008,-0Zm47.154,-46.401l-29.92,0c1.572,-8.693 2.574,-17.479 2.999,-26.303l34.035,-0c-1.088,9.065 -3.484,17.925 -7.114,26.303Z" style="fill:url(#_Linear1);fill-rule:nonzero;"/></g></g><g id="Group_2839"></g><g id="Group_3788"></g><g id="Group_3751"></g><g id="Group_2717"></g><g id="Group_3750-2"></g><g id="Group_2340"></g><g id="Group_2590"></g><defs><linearGradient id="_Linear1" x1="0" y1="0" x2="1" y2="0" gradientUnits="userSpaceOnUse" gradientTransform="matrix(-296.967,3.6368e-14,-3.6368e-14,-296.967,294.149,105.983)"><stop offset="0" style="stop-color:#fbbc02;stop-opacity:1"/><stop offset="1" style="stop-color:#ed7733;stop-opacity:1"/></linearGradient></defs></svg>