<?xml version="1.0" encoding="UTF-8" standalone="no"?><!DOCTYPE svg PUBLIC "-//W3C//DTD SVG 1.1//EN" "http://www.w3.org/Graphics/SVG/1.1/DTD/svg11.dtd"><svg width="100%" height="100%" viewBox="0 0 3500 2500" version="1.1" xmlns="http://www.w3.org/2000/svg" xmlns:xlink="http://www.w3.org/1999/xlink" xml:space="preserve" xmlns:serif="http://www.serif.com/" style="fill-rule:evenodd;clip-rule:evenodd;stroke-linejoin:round;stroke-miterlimit:2;"><g><path d="M3013.88,2180.12l-2613.87,-0c-4.623,-0 -8.37,-3.74 -8.37,-8.37c-0,-4.62 3.747,-8.37 8.37,-8.37l2613.87,0c4.62,0 8.37,3.75 8.37,8.37c0,4.63 -3.75,8.37 -8.37,8.37Z" style="fill:#2e5b99;fill-rule:nonzero;"/><rect x="2198.53" y="492.684" width="839.96" height="785.456" style="fill:#e6f6ff;fill-rule:nonzero;"/><rect x="806.201" y="1380.34" width="565.569" height="508.24" style="fill:#e6f6ff;fill-rule:nonzero;"/><path d="M2089.84,982.768l0,-70.545c0,-32.036 25.96,-58.007 57.99,-58.007l617.47,-0c32.03,-0 58.01,25.971 58.01,58.007l0,1247.03l-1597.21,0l-0,-1176.48l863.74,-0Z" style="fill:#fff;fill-rule:nonzero;"/><path d="M2084.71,982.768l-0,-70.545c-0,-32.036 25.95,-58.007 57.99,-58.007l617.47,-0c32.03,-0 58.01,25.971 58.01,58.007l-0,1247.03l-1597.21,0l-0,-1176.48l863.74,-0Z" style="fill:#13749a;fill-rule:nonzero;"/><path d="M2764.67,1031.51l-0,1127.74l-1479.58,0l-0,-1133.28l1479.58,5.54Z" style="fill:#bae2ff;fill-rule:nonzero;"/><path d="M2683.44,1031.51l-0,1127.74l-1479.58,0l-0,-1133.28l1479.58,5.54Z" style="fill:#1480cc;fill-rule:nonzero;"/><path d="M1144.21,982.777l1461.72,-0c30,-0 52.1,20.303 56.41,48.373l0,1128.1l-1595.32,0l0,-1099.48c-0.36,-40.51 36.2,-76.993 77.19,-76.993Z" style="fill:#fff;fill-rule:nonzero;"/><path d="M1680.38,1401.55l854.32,2.4l1.82,-649.266l-854.32,-2.392l-1.82,649.258Z" style="fill:#ebf3ff;fill-rule:nonzero;"/><path d="M1702.76,1370.42l810.62,2.27l1.67,-596.877l-810.62,-2.271l-1.67,596.878Z" style="fill:#3397ff;fill-rule:nonzero;"/><path d="M2445.05,1324.58l-520.93,-1.45l284.83,-273.26l236.1,274.71Z" style="fill:#e3eeff;fill-rule:nonzero;"/><path d="M2208.18,1323.92l-437.7,-1.22l237.51,-225.84l200.19,227.06Z" style="fill:#e3eeff;fill-rule:nonzero;"/><path d="M1985.92,988.922c-0.09,33.318 26.84,60.408 60.16,60.498c33.319,0.09 60.4,-26.84 60.5,-60.16c0.09,-33.318 -26.84,-60.403 -60.16,-60.496c-33.32,-0.094 -60.41,26.84 -60.5,60.158Z" style="fill:#e3eeff;fill-rule:nonzero;"/><path d="M1566.76,1323.78l792.02,2.54l1.87,-688.778l-792.02,-2.538l-1.87,688.776Z" style="fill:#ebf3ff;fill-rule:nonzero;"/><path d="M1589.78,1290.75l747.05,2.41l1.72,-633.204l-747.05,-2.408l-1.72,633.202Z" style="fill:#3397ff;fill-rule:nonzero;"/><rect x="1967.81" y="747.369" width="297.52" height="26.139" style="fill:#cce5ff;fill-rule:nonzero;"/><rect x="1660.02" y="817.956" width="605.31" height="26.139" style="fill:#cce5ff;fill-rule:nonzero;"/><rect x="1660.02" y="889.824" width="605.31" height="26.139" style="fill:#cce5ff;fill-rule:nonzero;"/><path d="M1137.18,982.777l1461.71,-0c30.01,-0 52.1,20.303 56.41,48.373l0,1132.15l-1595.32,-0l-0,-1103.53c-0.36,-40.51 36.21,-76.993 77.2,-76.993Z" style="fill:#249ac9;fill-rule:nonzero;"/><rect x="2662.34" y="2152.77" width="160.97" height="6.48" style="fill:#fff;fill-rule:nonzero;"/><path d="M2818.18,1463.27l-0,-3.35l5.13,0l-5.13,3.35Z" style="fill:#7f7f7f;fill-rule:nonzero;"/><path d="M2764.67,1498.18l-0,-38.26l53.51,0l-0,3.35l-53.51,34.91Z" style="fill:#07224c;fill-rule:nonzero;"/><path d="M2683.44,1501.08l-0,-41.16l81.23,0l-0,38.26l-77.47,-0l-3.76,2.9Z" style="fill:#5d717f;fill-rule:nonzero;"/><path d="M2662.34,1517.31l0,-57.39l21.1,0l-0,41.16l-21.1,16.23Z" style="fill:#0a4066;fill-rule:nonzero;"/><rect x="2655.3" y="1459.92" width="7.04" height="39.22" style="fill:#7f7f7f;fill-rule:nonzero;"/><rect x="1067.02" y="1459.92" width="1588.28" height="39.22" style="fill:#335c7f;fill-rule:nonzero;"/><rect x="1034.52" y="1272.75" width="1811.45" height="204.68" style="fill:#61b3f2;fill-rule:nonzero;"/><rect x="1034.52" y="1272.75" width="1648.38" height="204.68" style="fill:#2e97e6;fill-rule:nonzero;"/><path d="M2227.2,1272.75l-0,204.61l-143.23,-0l100.42,-204.61l42.81,0Z" style="fill:#0e0e0e;fill-rule:nonzero;"/><path d="M2213.72,1408.58c-7.12,-2.25 -12.67,-16.18 -12.67,-33.72c0,-17.07 5.55,-31.01 12.67,-33.26c7.13,2.25 12.67,16.19 12.67,33.26c-0,17.54 -5.54,31.47 -12.67,33.72Zm-36.02,-33.72c-0,28.32 4.94,53.94 13.26,72.38c8.11,18.88 19.4,30.12 31.86,30.12l38.04,-0l0,-204.54l-38.04,-0c-24.94,-0 -45.12,45.85 -45.12,102.04Z" style="fill:#2475b3;fill-rule:nonzero;"/><path d="M2215.3,1374.86c0,-17.07 10.77,-31.01 18.22,-33.26c7.46,2.25 13.25,16.19 13.25,33.26c0,17.54 -5.79,31.47 -13.25,33.72c-7.45,-2.25 -18.22,-16.18 -18.22,-33.72Zm-18.23,-0c0,28.32 5.18,53.94 13.88,72.38c8.49,18.88 20.29,30.12 33.34,30.12l16.57,-0l0,-204.54l-16.57,-0c-26.09,-0 -47.22,45.85 -47.22,102.04Z" style="fill:#3f9ee6;fill-rule:nonzero;"/><path d="M2231.94,1408.58c-7.12,-2.25 -12.66,-16.18 -12.66,-33.72c0,-17.07 5.54,-31.01 12.66,-33.26c7.13,2.25 12.67,16.19 12.67,33.26c0,17.54 -5.54,31.47 -12.67,33.72Zm-36.02,-33.72c-0,28.32 4.95,53.94 13.26,72.38c8.11,18.88 19.4,30.12 31.86,30.12l38.04,-0l0,-204.54l-38.04,-0c-24.93,-0 -45.12,45.85 -45.12,102.04Z" style="fill:#2475b3;fill-rule:nonzero;"/><path d="M2233.52,1374.86c0,-17.07 5.8,-31.01 13.25,-33.26c7.46,2.25 13.26,16.19 13.26,33.26c0,17.54 -5.8,31.47 -13.26,33.72c-7.45,-2.25 -13.25,-16.18 -13.25,-33.72Zm-18.23,-0c0,28.32 5.18,53.94 13.88,72.38c8.49,18.88 20.29,30.12 33.34,30.12l16.57,-0l0,-204.54l-16.57,-0c-26.09,-0 -47.22,45.85 -47.22,102.04Z" style="fill:#61b3f2;fill-rule:nonzero;"/><path d="M2240.86,1478.69c-1.61,0 -10.88,-0.43 -20.68,-9.84c-11.13,-10.68 -24.38,-34.8 -24.38,-89.08c0,-51.71 12.09,-78.32 22.23,-91.55c11.17,-14.56 22.32,-16.63 22.79,-16.71c0.73,-0.12 1.41,0.36 1.54,1.09c0.12,0.72 -0.36,1.41 -1.08,1.53c-0.11,0.02 -10.77,2.07 -21.32,15.95c-9.81,12.91 -21.5,38.96 -21.5,89.69c-0,53.21 12.76,76.72 23.46,87.06c9.73,9.4 19,9.21 19.08,9.19c0.74,-0.02 1.35,0.55 1.37,1.29c0.03,0.73 -0.54,1.35 -1.27,1.38l-0.24,0Z" style="fill:#1a5380;fill-rule:nonzero;"/><path d="M2246.76,1405.84c1.8,0.45 3.14,0.9 4.94,1.35c-0.45,0.45 -0.45,0.45 -0,0.45c72.37,21.57 125.86,88.1 125.86,167.66l0,170.87l57.54,-0l0,-170.87c0,-110.57 -77.76,-203.18 -181.6,-226.55c-2.25,-0.9 -4.5,-1.35 -6.74,-1.79c-16.64,-3.6 -17.99,56.19 0,58.88Z" style="fill:#e6e6e6;fill-rule:nonzero;"/><path d="M2178.65,1343.9l-0,57.22c-74.17,9.55 -134.06,64.57 -149.98,136.48c-0.46,1.79 -0.9,3.14 -0.9,4.48c-0.9,4.05 -1.35,7.64 -1.8,11.69c-0.9,7.19 -1.35,14.39 -1.35,21.58l-0,170.86l-57.09,0l0,-170.86c0,-120.84 92.869,-219.85 211.12,-231.45Z" style="fill:#e6e6e6;fill-rule:nonzero;"/><path d="M2245.43,1388.96c134.92,23.66 152.29,170.55 152.29,170.55l-0,186.7l-20.24,0l-0,-170.86c-0,-81.25 -55.7,-149.16 -130.68,-169.39c-5.73,-1.86 -9.3,-18.64 -9.3,-18.64c0,-0 3.54,0.8 7.93,1.64Z" style="fill:#999;fill-rule:nonzero;"/><path d="M2178.65,1388.96l-0,12.16c-74.17,9.55 -134.06,64.57 -149.98,136.48c3.23,-41.97 38.03,-133.69 149.98,-148.64Z" style="fill:#808080;fill-rule:nonzero;"/><path d="M2246.76,1405.84c1.8,0.45 3.14,0.9 4.94,1.35c-1.36,-3.6 -8.67,-11.77 -9.57,-28.85c-0.9,-17.53 5.06,-29.39 11.37,-29.59c-2.25,-0.9 -4.5,-1.35 -6.74,-1.79c-16.64,-3.6 -17.99,56.19 0,58.88Z" style="fill:#666;fill-rule:nonzero;"/><rect x="1917.63" y="1699.59" width="566.84" height="463.35" style="fill:#f7af0c;fill-rule:nonzero;"/><path d="M2209.58,1814.05c-1.8,-0.46 -3.6,-0.46 -5.4,-0.46c-38.65,0 -70.12,31.31 -70.12,70.34c0,28.58 17.08,53.09 41.36,64.44l-0,119.34c-0,15.881 13.03,29.04 28.76,29.04c1.35,0 3.15,0 4.5,-0.45l1.34,-0c13.04,-2.729 22.94,-14.52 22.94,-28.59l-0,-119.34c24.26,-10.9 41.35,-35.86 41.35,-64.44c0,-37.21 -28.32,-67.16 -64.73,-69.88Z" style="fill:#cc840a;fill-rule:nonzero;"/><path d="M2209.58,1814.05c-36.41,2.26 -65.19,32.67 -65.19,69.88c-0,28.58 17.09,53.09 41.37,64.44l0,119.34c0,14.07 9.89,25.861 22.92,28.59l1.34,-0c13.04,-2.729 22.94,-14.52 22.94,-28.59l-0,-119.34c24.26,-10.9 41.35,-35.86 41.35,-64.44c0,-37.21 -28.32,-67.16 -64.73,-69.88Z" style="fill:#803d00;fill-rule:nonzero;"/><path d="M2097.5,2162.94l-179.87,0l0,-463.35l49.9,0c0,0 -13.25,341.88 129.97,463.35Z" style="fill:#e6950b;fill-rule:nonzero;"/><path d="M2362.77,2162.94c42.96,-91.92 34.95,-339.05 34.95,-463.35l57.09,0l0,463.35l-92.04,0Z" style="fill:#f7e4ad;fill-rule:nonzero;"/><path d="M1778.12,1733.32c-0,0 -58.16,-1.89 -115.46,0.85c-59.53,2.91 -118.21,10.78 -109.82,31.31c1.88,4.62 2.22,9.06 1.19,13.51c-11.97,54.91 -229.05,95.97 -276.94,62.27c-35.75,-25.15 -134.29,7.18 -174.65,24.63c-76.89,-514.64 -79.03,-1040.73 -10.95,-1077.34c68.08,-36.438 256.76,9.751 256.76,9.751c0,0 95.62,25.317 134.62,286.865c39.17,261.38 295.25,648.15 295.25,648.15Z" style="fill:#4582e6;fill-rule:nonzero;"/><path d="M1552.84,1765.48c1.88,4.62 2.22,9.06 1.19,13.51c-58.84,-179.44 -197.4,-692.11 -147.11,-552.35c48.24,134.79 199.63,407.8 255.74,507.53c-59.53,2.91 -118.21,10.78 -109.82,31.31Z" style="fill:#3d73cc;fill-rule:nonzero;"/><path d="M1084.38,924.626c-55.941,68.424 -66.2,85.014 -118.547,88.614c17.62,11.11 28.055,26.17 35.237,42.42l0.17,0c15.4,33.7 17.62,73.04 44.48,95.11l-32.16,31.64l-8.21,8.22c-0,0 -1.2,-1.03 -3.25,-2.91c-14.029,-13 -69.795,-65.52 -102.979,-113.76c-19.501,-28.05 -31.305,-54.57 -23.094,-71.16c13.343,-48.238 47.555,-147.283 134.623,-176.876c57.14,-62.093 113.07,-28.737 132.91,-2.906c26.52,34.554 -0.17,108.449 -59.18,101.608Z" style="fill:#13749a;fill-rule:nonzero;"/><path d="M1045.72,1150.77l-32.16,31.64l-11.46,5.31c-13.173,-12.32 -63.464,-59.53 -96.993,-105.38c-2.052,-2.73 -4.105,-5.64 -5.986,-8.38c16.592,-0.17 69.962,-1.54 101.949,-18.3l0.17,0c1.37,2.91 2.57,5.81 3.6,8.72c12.31,31.48 16.25,66.2 40.88,86.39Z" style="fill:#231f20;fill-rule:nonzero;"/><path d="M1004.84,1064.38c-35.414,21.56 -75.955,20.87 -99.733,17.96c-2.052,-2.73 -4.105,-5.64 -5.986,-8.38c16.592,-0.17 69.962,-1.54 101.949,-18.3l0.17,0c1.37,2.91 2.57,5.81 3.6,8.72Z" style="fill:#66b8ff;fill-rule:nonzero;"/><path d="M1021.62,1121.56c-0,0 36.64,3.41 47.73,13.05c9.26,8.06 3.6,18.12 3.6,18.12c19.72,11.09 0.01,54.1 -34.42,64.71c-34.43,10.62 -56.992,-54.23 -56.992,-54.23c0,-0 5.245,-39.34 40.082,-41.65Z" style="fill:#231f20;fill-rule:nonzero;"/><path d="M1483.89,2165.23l-124.3,0c-2.56,-1.46 -4.45,-3.11 -5.57,-4.99c-6.4,-92.45 -15.62,-136.96 -15.62,-136.96l86.57,-3.52l19.6,68.77c29,19.82 63.57,62.35 39.32,76.7Z" style="fill:#231f20;fill-rule:nonzero;"/><path d="M1350.17,2166.9l147.37,-0c3.73,-0 2.48,-20.5 -1.26,-20.5l-146.48,0.83c-3.85,0 -3.47,19.67 0.37,19.67Z" style="fill:#231f20;fill-rule:nonzero;"/><path d="M1298.82,1180.64c20.11,54.11 105.7,302.05 81.27,480.56c33.61,118.7 23.05,219.25 53.36,392.621l-88.22,4.639c-35.86,-211.52 -75.32,-171.16 -86.74,-380.63c-72.69,-164.25 -110.39,-319.86 -129.74,-480.05c-18.81,-120.77 129.46,-184.19 170.07,-17.14Z" style="fill:#13749a;fill-rule:nonzero;"/><path d="M1346.14,2067.48c0,0 -6.6,-62.95 -48.11,-183.21c-12.88,-36.95 -19.87,-61.41 -23.5,-76.46c-3.63,-15.23 -4.08,-21.04 -4.08,-21.04c21.88,-25.32 49.65,-63.47 74.31,-109.31c27,42.25 59.12,84.51 59.12,84.51c0,-0 0.82,9.92 2.28,26.17c6.51,68.08 24.02,248.03 34.57,286.181c13.03,47.209 -68.99,74.069 -94.59,-6.841Z" style="fill:#231f20;fill-rule:nonzero;"/><path d="M1406.16,1788.14c-14.09,-15.74 -39.46,-45.33 -60.68,-77.67c-9.62,34.9 -50.02,77.16 -70.95,97.34c-3.63,-15.23 -4.08,-21.04 -4.08,-21.04c21.88,-25.32 49.65,-63.47 74.31,-109.31c27,42.25 59.12,84.51 59.12,84.51c0,-0 0.82,9.92 2.28,26.17Z" style="fill:#66b8ff;fill-rule:nonzero;"/><path d="M1194.49,1203.58c-6.23,235.71 -48.25,435.92 -48.25,435.92c17.79,160.81 -22.67,190.78 -40.94,420.851l-79.74,-1.061c-0.2,-93.38 -5.62,-209.02 -11.29,-396.25c-50.198,-195.68 -26.019,-339.8 -7.3,-456.78c19.969,-132.86 200.26,-176.83 187.52,-2.68Z" style="fill:#13749a;fill-rule:nonzero;"/><path d="M1105.3,2060.35c7.11,38.089 12.21,67.809 9.23,102.279l-193.117,3.76c0,0 -19.115,-18.62 4.918,-46.54c24.033,-27.93 69.673,-11.77 99.229,-60.56l79.74,1.061Z" style="fill:#231f20;fill-rule:nonzero;"/><path d="M912.643,2166.9l205.167,-0c3.74,-0 2.76,-20.5 -0.98,-20.5l-204.299,0.83c-3.845,0 -3.733,19.67 0.112,19.67Z" style="fill:#231f20;fill-rule:nonzero;"/><path d="M1143.65,1800.28c0,0 -1.38,6.85 -3.73,18.48c-9.71,50.8 -35.77,192.61 -32.72,256.41c-36.25,43.28 -83.37,-4.79 -83.37,-4.79l-18.99,-350.5l-1.3,-23.6c51.13,56.79 104.24,87.07 140.11,104Z" style="fill:#231f20;fill-rule:nonzero;"/><path d="M1143.65,1800.28c0,0 -1.38,6.85 -3.73,18.48c-70.43,-20.53 -113.8,-68.77 -135.08,-98.88l-1.3,-23.6c51.13,56.79 104.24,87.07 140.11,104Z" style="fill:#66b8ff;fill-rule:nonzero;"/><path d="M1012.91,1192.44c-0,40.76 289.47,28.96 289.47,-11.8c-0.97,-67.25 8.3,-122.59 20.95,-168.35c86.79,-85.021 81.61,-151.015 59.62,-186.821c-37.92,-61.738 -229.49,-58.239 -298.46,-31.703c-27.39,10.541 -64.16,53.472 -75.93,121.915c-6.05,35.188 19.86,76.164 23.96,104.609c9.47,65.83 -17.68,162.69 -19.61,172.15Z" style="fill:#13749a;fill-rule:nonzero;"/><path d="M1193.36,821.775c14.28,-11.344 71.25,-28.847 86.4,-41.254l-3.42,-98.896l-56.01,-5.454c-16.25,1.347 -32.5,5.24 -46.47,10.757l-12.61,65.119l-2.78,14.121c-6.34,13.899 6.23,30.658 34.89,55.607Z" style="fill:#f7a594;fill-rule:nonzero;"/><path d="M1257.49,704.016c-8.78,13.524 -45.57,48.154 -96.24,48.031l10.91,-56.339l85.33,8.308Z" style="fill:#e6836f;fill-rule:nonzero;"/><path d="M1133.51,573.74c-4.39,19.485 -13.44,62.258 -11.96,81.959c2.25,29.992 30.26,63.258 54.69,67.623c28.28,2.882 66.41,-5.538 87.11,-23.324c11.52,-13.499 33.81,-45.526 44.07,-73.56c21.41,-58.475 -19.91,-109.751 -72.33,-121.595c-52.42,-11.843 -87.88,8.154 -101.58,68.897Z" style="fill:#f7a594;fill-rule:nonzero;"/><path d="M1289.87,665.067c10.93,-19.239 -3.6,-27.034 -19.52,-12.097c2.72,-14.517 19.27,-57.055 4.61,-71.159c-16.56,-16.366 -89.42,-9.245 -128.57,-50.06c0,-0 29.18,-63.973 124.94,-26.193c108.17,57.35 18.54,159.509 18.54,159.509Z" style="fill:#73382a;fill-rule:nonzero;"/><path d="M1276.31,646.775c-8.28,10.07 -8.63,23.429 -0.78,29.838c7.85,6.409 20.92,3.441 29.2,-6.629c8.28,-10.07 8.63,-23.429 0.78,-29.838c-7.85,-6.409 -20.92,-3.441 -29.2,6.629Z" style="fill:#f7a594;fill-rule:nonzero;"/><path d="M1161.67,746.345c9.58,17.096 108.06,8.206 116.95,-6.156l5.47,54.711l-91.64,51.976l-47.88,-52.659l17.1,-47.872Z" style="fill:#13749a;fill-rule:nonzero;"/><path d="M1323.51,564.782c-2.7,-47.887 -95.39,-115.467 -161.88,-90.379c-44.84,16.921 -34.32,64.528 4.73,73.517c34.43,7.927 129.79,-33.346 157.15,16.862Z" style="fill:#231f20;fill-rule:nonzero;"/><path d="M1153.36,474.554c-0,-0 1.97,-13.657 9.34,-23.867c-52.02,34.078 -26.13,74.83 -25.52,76.567c20.63,-62.648 69.86,-59.771 87.34,-59.549c-44.97,-21.17 -70.71,4.974 -71.16,6.849Z" style="fill:#231f20;fill-rule:nonzero;"/><path d="M1009.3,1206.27c75.51,32.56 249.96,25.39 302.1,0.44l13.33,44.17c-113.43,26.73 -221.95,27.48 -324.975,-0.84l9.545,-43.77Z" style="fill:#66b8ff;fill-rule:nonzero;"/><path d="M1514.59,1102.7c-49.95,53.54 -155.32,114.61 -155.32,114.61l-32.33,-46.53c33.53,-18.47 52,-66.37 83.99,-99.21c10.95,-11.29 23.44,-20.7 38.49,-26.86c-50.98,-13.17 -76.64,-25.83 -119.06,-103.32c-59.36,-4.106 -72.18,-81.764 -39.86,-110.676c24.3,-21.725 85.53,-44.473 130.35,27.029c80.06,44.986 114.27,143.177 118.55,193.127c3.93,14.2 -6.85,32.5 -24.81,51.83Z" style="fill:#13749a;fill-rule:nonzero;"/><path d="M1355.93,1146.43c0,0 -36.65,-3.36 -49.31,4.1c-10.58,6.23 -6.86,17.16 -6.86,17.16c-21.41,7.29 -9.89,53.18 22.02,69.91c31.91,16.73 65.94,-42.91 65.94,-42.91c-0,-0 2.03,-39.63 -31.79,-48.26Z" style="fill:#231f20;fill-rule:nonzero;"/><path d="M1514.59,1102.7c-3.08,3.25 -6.33,6.67 -9.75,9.92c-52.68,50.98 -145.57,104.69 -145.57,104.69l-32.33,-46.53c28.91,-15.91 46.53,-53.54 71.33,-84.67c3.94,-5.13 8.21,-9.92 12.66,-14.54c12.49,7.35 49.78,27.02 103.66,31.13Z" style="fill:#231f20;fill-rule:nonzero;"/><path d="M1514.59,1102.7c-3.08,3.25 -6.33,6.67 -9.75,9.92c-45.16,-2.22 -87.58,-18.47 -106.57,-26.51c3.94,-5.13 8.21,-9.92 12.66,-14.54c12.49,7.35 49.78,27.02 103.66,31.13Z" style="fill:#66b8ff;fill-rule:nonzero;"/><path d="M1221.25,903.229c0.02,-0.169 0.03,-0.244 0.03,-0.261l-0.03,0.261Z" style="fill:#d9ffff;fill-rule:nonzero;"/><path d="M1221.25,903.229c0.02,-0.169 0.03,-0.244 0.03,-0.261l-0.03,0.261Z" style="fill:#d9ffff;fill-rule:nonzero;"/><path d="M1130.83,890.258l0.03,-0.261c-0,0.017 -0.01,0.091 -0.03,0.261Z" style="fill:#d9ffff;fill-rule:nonzero;"/><path d="M1130.83,890.258l0.03,-0.261c-0,0.017 -0.01,0.091 -0.03,0.261Z" style="fill:#d9ffff;fill-rule:nonzero;"/><path d="M1179.2,869.239c9,14.156 24.55,26.97 41.99,34.037c-0.15,1.342 -1.03,8.773 -5.05,43.025c-5.37,45.691 -47.02,62.219 -53.48,64.749c-5.49,-3.88 -42.21,-32.014 -36.84,-77.705c4.03,-34.252 4.9,-41.683 5.06,-43.025c18.5,-1.91 36.35,-9.934 48.32,-21.081Z" style="fill:#fff;fill-rule:nonzero;"/><path d="M1174.45,893.506l-0.07,0.058c-8.69,6.869 -20.17,11.625 -32.39,13.394l-3.44,29.219c-1.57,13.37 1.82,26.13 10.07,37.929c5.19,7.42 10.94,12.475 14.14,14.982c0.14,0.112 0.29,0.227 0.42,0.329c3.54,-1.43 10.57,-4.731 17.61,-10.697c10.71,-9.078 16.93,-20.46 18.5,-33.828l3.44,-29.22c-11.44,-5.175 -21.46,-13.04 -28.28,-22.166Z" style="fill:#f7af0c;fill-rule:nonzero;"/><path d="M1149.68,779.604c4.91,12.625 21.3,23.746 39.78,34.584c37.53,-6.144 66.32,-17.764 94.48,-34.243c27.71,-0.13 47.65,10.533 68.16,18.401l-163.62,26.628l-96.11,-36.283c12.78,-4.652 31.08,-7.801 57.31,-9.087Z" style="fill:#66b8ff;fill-rule:nonzero;"/><path d="M1711.81,1119.16c-0.01,-0.81 -0.01,-1.16 -0.01,-1.24c0,0.15 0.01,1.24 0.01,1.24Z" style="fill:#d9ffff;fill-rule:nonzero;"/><path d="M1711.81,1119.16c-0.01,-0.81 -0.01,-1.16 -0.01,-1.24c0,0.15 0.01,1.24 0.01,1.24Z" style="fill:#d9ffff;fill-rule:nonzero;"/><path d="M1229.09,1124.47c-0,-0 -0.02,-1.09 -0.02,-1.24c-0,0.08 0.01,0.44 0.02,1.24Z" style="fill:#d9ffff;fill-rule:nonzero;"/><path d="M1229.09,1124.47c-0,-0 -0.02,-1.09 -0.02,-1.24c-0,0.08 0.01,0.44 0.02,1.24Z" style="fill:#d9ffff;fill-rule:nonzero;"/><path d="M1468.59,990.927c56.66,59.613 146.75,108.183 242.94,128.493c0.07,6.39 0.46,41.77 2.28,204.84c2.41,217.53 -204.87,325.19 -237.05,341.72c-31.38,-14.13 -242.69,-118.89 -245.11,-336.42c-1.81,-163.06 -2.2,-198.44 -2.27,-204.83c95.72,-22.42 183.9,-72.96 239.21,-133.803Z" style="fill:#fff;fill-rule:nonzero;"/><path d="M1469.43,1030.24c55.42,49.94 132,88.98 216.07,109.98l2.05,184.3c0.93,84.34 -32.22,160.85 -98.55,227.43c-43.58,43.75 -89.52,71 -112.85,83.28c-1.01,-0.51 -2.11,-1.07 -3.2,-1.63l-4,-602.93c0.16,-0.14 0.33,-0.28 0.48,-0.43Z" style="fill:#007880;fill-rule:nonzero;"/><path d="M1468.95,1030.67l4,602.93c-24.42,-12.44 -68.83,-38.2 -111.47,-79.14c-67.78,-65.11 -102.63,-140.87 -103.57,-225.21l-2.05,-184.31c83.34,-22.77 158.83,-63.32 213.09,-114.27Z" style="fill:#008f99;fill-rule:nonzero;"/><path d="M1446.98,1350.39c-0.09,-13.25 10.58,-24.01 23.89,-24.1c13.3,-0.08 24.2,10.54 24.29,23.78c0.06,9.68 -5.75,18.13 -14.08,21.93l0.27,40.56c0.03,5.39 -4.34,9.9 -9.85,9.93c-5.41,0.04 -9.85,-4.41 -9.88,-9.8l-0.27,-40.47c-8.47,-3.69 -14.31,-12.06 -14.37,-21.83Zm-73.78,-53.42l0.95,142.79c0.1,15.89 195.13,14.61 195.02,-1.28l-0.95,-142.79l-195.02,1.28Z" style="fill:#fff;fill-rule:nonzero;"/><path d="M1390.2,1286.68l19.74,-0.13l-0.06,-9.61c-0.22,-33.32 26.83,-60.6 60.29,-60.82c33.47,-0.22 60.88,26.71 61.1,60.02l0.06,9.61l19.74,-0.12l-0.06,-9.62c-0.29,-44.15 -36.61,-79.83 -80.97,-79.54c-44.35,0.29 -80.19,36.45 -79.9,80.6l0.06,9.61Z" style="fill:#fff;fill-rule:nonzero;"/></g></svg>