<?xml version="1.0" encoding="UTF-8" standalone="no"?><!DOCTYPE svg PUBLIC "-//W3C//DTD SVG 1.1//EN" "http://www.w3.org/Graphics/SVG/1.1/DTD/svg11.dtd"><svg width="100%" height="100%" viewBox="0 0 224 228" version="1.1" xmlns="http://www.w3.org/2000/svg" xmlns:xlink="http://www.w3.org/1999/xlink" xml:space="preserve" xmlns:serif="http://www.serif.com/" style="fill-rule:evenodd;clip-rule:evenodd;stroke-linejoin:round;stroke-miterlimit:2;"><g id="Group_3839"></g><g id="Group_173"></g><g id="Group_2839"></g><g id="Group_3788"></g><g id="Group_3751"></g><g id="Group_2717"><path id="Path_18964" d="M223.058,116.401c0.009,-7.749 -0.651,-15.484 -1.973,-23.12l-107.324,0l0,43.818l61.461,0c-2.547,14.138 -10.769,26.636 -22.743,34.572l0,28.428l36.649,0c22.64,-21.825 34.981,-52.268 33.93,-83.698Z" style="fill:#4285f4;fill-rule:nonzero;"/><path id="Path_18965" d="M113.761,227.566c27.699,0.773 54.674,-9.055 75.383,-27.467l-36.665,-28.428c-11.107,7.12 -24.027,10.905 -37.22,10.905c-29.546,0 -55.958,-18.986 -65.372,-46.993l-37.795,0l-0,29.311c19.29,38.369 58.724,62.678 101.669,62.672Z" style="fill:#34a853;fill-rule:nonzero;"/><path id="Path_18966" d="M49.887,135.591c-4.771,-14.125 -4.771,-29.435 -0,-43.561l-0,-29.303l-37.795,0c-16.123,32.12 -16.123,70.047 -0,102.167l37.795,-29.303Z" style="fill:#fbbc04;fill-rule:nonzero;"/><path id="Path_18967" d="M113.761,45.044c16.228,-0.277 31.929,5.848 43.682,17.042l32.471,-32.479c-20.593,-19.318 -47.887,-29.931 -76.121,-29.599c-42.955,-0.006 -82.396,24.322 -101.669,62.711l37.803,29.303c9.001,-27.643 34.765,-46.604 63.834,-46.978Z" style="fill:#ea4335;fill-rule:nonzero;"/></g><g id="Group_3750-2"></g><g id="Group_2340"></g><g id="Group_2590"></g></svg>