<svg xmlns="http://www.w3.org/2000/svg" width="261" height="261"><defs><clipPath id="a"><path d="M0 0h152.259v187.232H0z" fill="none"/></clipPath><style>.d{fill:#71c8d8}.f{fill:#00904a}</style></defs><g transform="translate(-1020 -2208.627)"><circle cx="130.5" cy="130.5" r="130.5" transform="translate(1020 2208.627)" fill="#f2f8f5"/><g transform="translate(1074.371 2245.512)" clip-path="url(#a)"><path class="d" d="M2.593 113.402a76.109 76.109 0 1 0 53.912-93.16 76.1 76.1 0 0 0-53.912 93.16M60.3 34.475a61.118 61.118 0 0 1 19.95-1.894l1.606 6.019a4.848 4.848 0 0 1-.521 3.76L74.2 54.427a3.659 3.659 0 0 1-4.96 1.292l-4.7-2.717-2.58.689a3.484 3.484 0 0 0-2.111 1.611l-2.043 3.531a3.482 3.482 0 0 0-.346 2.633l1.266 4.744a3.472 3.472 0 0 1-5.089 3.9l-3.531-2.044a3.483 3.483 0 0 1-1.606-2.109l-2.532-9.489a3.483 3.483 0 0 0-4.244-2.456l-2.787.744A3.484 3.484 0 0 0 36.481 59l2.9 10.882a4.925 4.925 0 0 0 6.019 3.479l1.334-.356a4.924 4.924 0 0 1 5.37 2.029l5.614 8.539a2.44 2.44 0 0 0 2.688 1.029l.652-.174a2.462 2.462 0 0 1 3.005 1.739l1.266 4.744a2.462 2.462 0 0 1-1.739 3.005 2.463 2.463 0 0 0-1.739 3.005l.245.919a2.5 2.5 0 0 0 1.874 1.787l6.288 1.307A4.886 4.886 0 0 1 74 104.479l1.749 6.553a4.925 4.925 0 0 1-3.478 6.011l-7.5 2a4.929 4.929 0 0 1-3.723-.5l-7.55-4.37a7.594 7.594 0 0 0-5.759-.75 2.47 2.47 0 0 1-2.688-1.03l-7.109-10.808a3.576 3.576 0 0 0-1.149-1.091l-10.067-5.826a3.472 3.472 0 0 0-5.09 3.9l1.638 6.138 6.01 3.478 2.372-.633a2.462 2.462 0 0 1 3.005 1.739l1.266 4.744a2.462 2.462 0 0 1-1.739 3.005l-5.93 1.583a2.471 2.471 0 0 1-2.151-.442l-8.725-6.853c-.18-.556-.39-1.1-.54-1.667A61.453 61.453 0 0 1 60.3 34.475m-6.539 102.721a3.484 3.484 0 0 1-2.633-.346l-9.542-5.523a3.472 3.472 0 0 1 .845-6.356l4.744-1.266a3.484 3.484 0 0 1 2.633.345l3.531 2.044a3.484 3.484 0 0 1 1.611 2.111l1.266 4.744a3.484 3.484 0 0 1-2.457 4.245m80.724-62.2l-2.105.562a4.924 4.924 0 0 0-3.478 6.01l1.6 5.99a21.244 21.244 0 0 1-.7 11.43l-3.2 7.9a13.939 13.939 0 0 1-9.353 8.277l-7.087 1.891a13.947 13.947 0 0 1-13.313-3.467l-11.008-10.68a14.15 14.15 0 0 1-3.779-6.424l-2.469-9.256a14 14 0 0 1 .89-9.639l7.583-15.745-1.448-5.426a9.8 9.8 0 0 1 1-7.445l3.761-6.5a5.624 5.624 0 0 0 .551-4.244l-1.06-3.973a61.27 61.27 0 0 1 43.617 40.742z"/><path d="M75.747 111.032a4.853 4.853 0 0 1 .148 1.208 4.816 4.816 0 0 0-.148-1.208M49.244 67.326a3.481 3.481 0 0 1-.74-1.37 3.467 3.467 0 0 0 .74 1.37m16.162 24.08c0 .055-.006.108-.007.162 0-.055.01-.108.007-.162m-1.345-5.239a2.437 2.437 0 0 0-.76-1.215 2.437 2.437 0 0 1 .76 1.215zM50.125 68.073l3.522 2.038-3.523-2.038m13.896 25.68c-.068.033-.143.055-.215.082.072-.027.147-.048.215-.082M57.537 59.45a3.419 3.419 0 0 0-.1.428 3.436 3.436 0 0 1 .1-.428m4.419 35.923c-.021.052-.045.1-.062.154.016-.054.043-.1.062-.154m1.199 23.801a4.918 4.918 0 0 1-2.111-.629 4.907 4.907 0 0 0 2.111.629m1.632-26.001c-.046.053-.1.1-.153.145.051-.048.106-.092.153-.145m-2.921 3.81a2.661 2.661 0 0 1 .022-1.433 2.428 2.428 0 0 0-.039 1.371zm2.568-3.484c-.058.044-.123.078-.185.117.062-.039.128-.073.185-.117m-6.891-34.064a3.469 3.469 0 0 1 .276-.609v.008a3.411 3.411 0 0 0-.272.6m18.174 54.137a4.874 4.874 0 0 1-.257.713 4.874 4.874 0 0 0 .257-.713m-10.337-21.68c-.009.063-.031.122-.044.184.014-.062.035-.121.044-.184m-.317.893c-.034.059-.079.111-.119.166.04-.056.084-.108.119-.166m-4.663-8.182h.007a2.466 2.466 0 0 1-2.7-1.028 2.441 2.441 0 0 0 2.689 1.029m4.869 7.754c-.022.062-.055.118-.082.178.026-.06.06-.116.082-.178" fill="#00a7b1"/><path class="d" d="M2.593 113.402a76.109 76.109 0 1 0 53.912-93.16 76.1 76.1 0 0 0-53.912 93.16M60.3 34.475a61.118 61.118 0 0 1 19.95-1.894l1.606 6.019a4.848 4.848 0 0 1-.521 3.76L74.2 54.427a3.659 3.659 0 0 1-4.96 1.292l-4.7-2.717-2.58.689a3.484 3.484 0 0 0-2.111 1.611l-2.043 3.531a3.482 3.482 0 0 0-.346 2.633l1.266 4.744a3.472 3.472 0 0 1-5.089 3.9l-3.531-2.044a3.483 3.483 0 0 1-1.606-2.109l-2.532-9.489a3.483 3.483 0 0 0-4.244-2.456l-2.787.744A3.484 3.484 0 0 0 36.481 59l2.9 10.882a4.925 4.925 0 0 0 6.019 3.479l1.334-.356a4.924 4.924 0 0 1 5.37 2.029l5.614 8.539a2.44 2.44 0 0 0 2.688 1.029l.652-.174a2.462 2.462 0 0 1 3.005 1.739l1.266 4.744a2.462 2.462 0 0 1-1.739 3.005 2.463 2.463 0 0 0-1.739 3.005l.245.919a2.5 2.5 0 0 0 1.874 1.787l6.288 1.307A4.886 4.886 0 0 1 74 104.479l1.749 6.553a4.925 4.925 0 0 1-3.478 6.011l-7.5 2a4.929 4.929 0 0 1-3.723-.5l-7.55-4.37a7.594 7.594 0 0 0-5.759-.75 2.47 2.47 0 0 1-2.688-1.03l-7.109-10.808a3.576 3.576 0 0 0-1.149-1.091l-10.067-5.826a3.472 3.472 0 0 0-5.09 3.9l1.638 6.138 6.01 3.478 2.372-.633a2.462 2.462 0 0 1 3.005 1.739l1.266 4.744a2.462 2.462 0 0 1-1.739 3.005l-5.93 1.583a2.471 2.471 0 0 1-2.151-.442l-8.725-6.853c-.18-.556-.39-1.1-.54-1.667A61.453 61.453 0 0 1 60.3 34.475m-6.539 102.721a3.484 3.484 0 0 1-2.633-.346l-9.542-5.523a3.472 3.472 0 0 1 .845-6.356l4.744-1.266a3.484 3.484 0 0 1 2.633.345l3.531 2.044a3.484 3.484 0 0 1 1.611 2.111l1.266 4.744a3.484 3.484 0 0 1-2.457 4.245m80.724-62.2l-2.105.562a4.924 4.924 0 0 0-3.478 6.01l1.6 5.99c.855 3.2-3.893 19.334-3.893 19.334a13.939 13.939 0 0 1-9.353 8.277l-7.087 1.891a13.947 13.947 0 0 1-13.313-3.467l-11.015-10.684a14.15 14.15 0 0 1-3.779-6.424l-2.469-9.256a14 14 0 0 1 .89-9.639l7.583-15.745-1.448-5.426a9.8 9.8 0 0 1 1-7.445l3.761-6.5a5.624 5.624 0 0 0 .551-4.244l-1.06-3.973a61.27 61.27 0 0 1 43.617 40.742z"/><path class="f" d="M76.13 157.605s4.516-18.121 11.955-16.6 19.838 2.48 21.746.954 17.549.382 17.549.382a25.33 25.33 0 0 1-15.058 14.306c-11.647 4.2-14.8 10.162-14.8 10.162s-10.386 3.754-21.072 3.09c0 0-5.09-.509-.324-12.3M53.34 126.095l-3.531-2.044a3.487 3.487 0 0 0-2.633-.345l-4.744 1.266a3.473 3.473 0 0 0-.845 6.357l9.541 5.521a3.472 3.472 0 0 0 5.09-3.9l-1.266-4.744a3.486 3.486 0 0 0-1.612-2.111m38.037-83.618L87.601 49a9.779 9.779 0 0 0-.984 7.42l1.448 5.427-7.588 15.745a14 14 0 0 0-.89 9.64l2.469 9.251a14.15 14.15 0 0 0 3.779 6.424l11.015 10.687a13.953 13.953 0 0 0 13.313 3.467l7.087-1.891a13.938 13.938 0 0 0 9.353-8.277l3.2-7.9a21.243 21.243 0 0 0 .7-11.43l-1.6-5.99c-.4-1.491 1.215-3.369 3.157-4.834a50.333 50.333 0 0 0 9.638-9.28l3.829-4.956c-10.243-22.265-31.59-42.337-61.7-44.461l8.1 20.195a5.624 5.624 0 0 1-.551 4.244"/><path class="f" d="M.032 95.252l.459 7.009c0 .031.009.061.012.091a35.26 35.26 0 0 1 13.2 6.159c.355.255 2.213 1.647 2.74 2.131.322.3 1.8 1.492 2.146 1.762l7.516 5.776a2.454 2.454 0 0 0 2.15.442l5.93-1.582a2.462 2.462 0 0 0 1.739-3.005l-1.266-4.743a2.461 2.461 0 0 0-3.005-1.739l-2.372.633-6.01-3.478-1.638-6.138a3.472 3.472 0 0 1 5.09-3.9l10.067 5.826a3.57 3.57 0 0 1 1.149 1.091l7.109 10.808a2.469 2.469 0 0 0 2.688 1.029 7.592 7.592 0 0 1 5.759.75l7.55 4.369a5.186 5.186 0 0 0 3.737.5l7.488-2a4.873 4.873 0 0 0 2.431-1.52 4.961 4.961 0 0 0 .763-1.238 4.916 4.916 0 0 0 .432-2.045 4.851 4.851 0 0 0-.148-1.208l-1.749-6.553a4.886 4.886 0 0 0-3.741-3.544l-6.288-1.307a2.5 2.5 0 0 1-1.874-1.787l-.229-.857-.017-.062a2.428 2.428 0 0 1 .038-1.371c0-.008 0-.015.006-.023.017-.053.042-.1.062-.154a2.219 2.219 0 0 1 1.555-1.437 2.427 2.427 0 0 0 .295-.1c.072-.027.147-.048.215-.082a2.3 2.3 0 0 0 .23-.137c.062-.039.128-.073.185-.117a2.426 2.426 0 0 0 .2-.181c.051-.048.106-.093.152-.145a2.466 2.466 0 0 0 .162-.219c.039-.056.084-.108.119-.166a2.425 2.425 0 0 0 .12-.253c.027-.059.06-.116.082-.178a2.456 2.456 0 0 0 .071-.283c.014-.061.035-.12.044-.183a2.4 2.4 0 0 0 .016-.323c0-.054.01-.108.007-.162a2.437 2.437 0 0 0-.079-.494l-1.266-4.744a2.46 2.46 0 0 0-3.005-1.739l-.645.173h-.007a2.442 2.442 0 0 1-2.689-1.029l-5.614-8.539a4.923 4.923 0 0 0-5.37-2.029l-1.334.356a4.925 4.925 0 0 1-6.011-3.479l-2.906-10.882a3.477 3.477 0 0 1 2.436-4.237c.007 0 .013-.006.02-.008l2.787-.744a3.478 3.478 0 0 1 4.245 2.457l2.532 9.488a3.664 3.664 0 0 0 1.62 2.116l3.523 2.038a3.472 3.472 0 0 0 5.089-3.9l-1.266-4.744a3.464 3.464 0 0 1-.033-1.589 3.581 3.581 0 0 1 .1-.428.151.151 0 0 0 .007-.014 3.411 3.411 0 0 1 .272-.6v-.008l2.044-3.527a3.456 3.456 0 0 1 2.1-1.609h.01l2.58-.688 4.7 2.717a3.659 3.659 0 0 0 4.96-1.292l7.134-12.068a4.849 4.849 0 0 0 .521-3.76l-1.606-6.019s3.209-10.107-2.048-14.887A76.122 76.122 0 0 0 .032 95.252"/></g><path d="M1211.612 2273.672a1.735 1.735 0 0 1-.178-2.448l10.64-13.063a1.091 1.091 0 0 0-.102-1.487l-3.154-2.94a2.43 2.43 0 0 1 .637-3.983l24.538-12.013a1.7 1.7 0 0 1 1.933.299 1.746 1.746 0 0 1 .218 2.39l-10.006 12.842a1.091 1.091 0 0 0 .116 1.468l2.544 2.372a2.43 2.43 0 0 1-.484 3.91l-24.654 12.896a1.681 1.681 0 0 1-2.046-.242m-156.307 167.615a1.735 1.735 0 0 1-.178-2.448l10.64-13.063a1.091 1.091 0 0 0-.102-1.487l-3.154-2.94a2.43 2.43 0 0 1 .637-3.983l24.538-12.013a1.7 1.7 0 0 1 1.933.299 1.746 1.746 0 0 1 .218 2.39l-10.006 12.842a1.091 1.091 0 0 0 .116 1.468l2.544 2.372a2.43 2.43 0 0 1-.484 3.91l-24.654 12.896a1.681 1.681 0 0 1-2.046-.242m160.557-40.957a1.735 1.735 0 0 1 2.448-.178l13.063 10.64a1.091 1.091 0 0 0 1.487-.102l2.94-3.154a2.43 2.43 0 0 1 3.983.637l12.013 24.538a1.7 1.7 0 0 1-.299 1.933 1.746 1.746 0 0 1-2.39.218l-12.842-10.006a1.091 1.091 0 0 0-1.468.116l-2.372 2.544a2.43 2.43 0 0 1-3.91-.484l-12.896-24.654a1.681 1.681 0 0 1 .242-2.046m-167.615-156.308a1.735 1.735 0 0 1 2.448-.178l13.063 10.64a1.091 1.091 0 0 0 1.487-.102l2.94-3.154a2.43 2.43 0 0 1 3.983.637l12.013 24.538a1.7 1.7 0 0 1-.299 1.933 1.746 1.746 0 0 1-2.39.218l-12.842-10.006a1.091 1.091 0 0 0-1.468.116l-2.372 2.544a2.43 2.43 0 0 1-3.91-.484l-12.896-24.654a1.681 1.681 0 0 1 .242-2.046" fill="#ffca34"/></g></svg>