<?xml version="1.0" encoding="iso-8859-1"?>
<!-- Generator: Adobe Illustrator 19.0.0, SVG Export Plug-In . SVG Version: 6.00 Build 0)  -->
<svg version="1.1" id="Layer_1" xmlns="http://www.w3.org/2000/svg" xmlns:xlink="http://www.w3.org/1999/xlink" x="0px" y="0px"
	 viewBox="0 0 512 512" style="enable-background:new 0 0 512 512;" xml:space="preserve">
<path style="fill:#F95428;" d="M502.692,101.037v16.107h-77.704H100.485H49.584v-16.107c0-14.518,11.776-26.282,26.282-26.282h9.22
	h346.864h44.461C490.929,74.756,502.692,86.519,502.692,101.037z"/>
<g>
	<rect x="49.584" y="117.139" style="fill:#2BA5F7;" width="50.901" height="52.452"/>
	<rect x="49.584" y="169.591" style="fill:#2BA5F7;" width="50.901" height="49.486"/>
	<rect x="49.584" y="219.078" style="fill:#2BA5F7;" width="50.901" height="49.474"/>
</g>
<g>
	<rect x="424.989" y="117.139" style="fill:#F7B239;" width="77.704" height="60.754"/>
	<rect x="424.989" y="177.893" style="fill:#F7B239;" width="77.704" height="144.985"/>
</g>
<polygon style="fill:#4D4D4D;" points="386.521,217.531 346.713,221.899 326.115,256.234 317.764,176.706 "/>
<path style="fill:#F2F2F2;" d="M346.713,221.899l39.807-4.368l-68.757-40.825l8.351,79.528L346.713,221.899z M424.988,177.898
	v144.985H49.584v-54.326h50.901v-49.474v-49.486v-52.452h324.503V177.898z"/>
<path style="fill:#CCCCCC;" d="M39.769,74.756h36.097c-14.506,0-26.282,11.764-26.282,26.282v16.107v52.452v49.486v49.474v54.326
	v25.513c0,14.506,11.776,26.282,26.282,26.282H39.769c-16.814,0-30.464-13.637-30.464-30.476V105.232
	C9.305,88.393,22.955,74.756,39.769,74.756z"/>
<polygon style="fill:#999999;" points="306.348,374.677 290.948,437.242 178.748,437.242 194.147,374.677 "/>
<path style="fill:#CCCCCC;" d="M502.692,322.882v25.513c0,14.506-11.764,26.282-26.282,26.282h-44.461H306.348h-112.2H85.086h-9.22
	c-14.506,0-26.282-11.776-26.282-26.282v-25.513h375.404H502.692z"/>
<g>
	<path style="fill:#333333;" d="M476.415,65.451H39.775C17.843,65.453,0,83.295,0,105.227v238.978
		c0,21.931,17.843,39.774,39.775,39.774h142.502l-12.565,51.039c-0.685,2.777-0.053,5.714,1.711,7.965
		c1.765,2.251,4.466,3.566,7.325,3.566h185.857c5.141,0,9.307-4.167,9.307-9.307c0-5.14-4.166-9.307-9.307-9.307H302.82
		l10.82-43.957l162.774-0.001c19.622,0,35.586-15.964,35.586-35.585V101.037C512,81.415,496.036,65.451,476.415,65.451z
		 M58.896,228.387H91.18v30.866H58.896V228.387z M91.18,209.773H58.896v-30.864H91.18V209.773z M91.18,160.295H58.896v-33.843H91.18
		V160.295z M58.896,277.864h41.591c5.141,0,9.307-4.167,9.307-9.307V126.452h305.891v187.127H58.896V277.864z M434.297,187.198
		h59.09v126.382h-59.09V187.198z M434.297,168.585v-42.133h59.09v42.133H434.297z M493.387,101.037v6.801H58.896v-6.801
		c0-9.355,7.608-16.965,16.96-16.972h400.559C485.774,84.065,493.387,91.679,493.387,101.037z M18.613,344.204V105.227
		c0-11.668,9.493-21.161,21.162-21.161h4.822c-2.751,5.048-4.315,10.83-4.315,16.972v247.354c0,6.142,1.565,11.926,4.316,16.974
		h-4.823C28.106,365.365,18.613,355.872,18.613,344.204z M283.652,427.935h-93.029l10.822-43.957h93.028L283.652,427.935z
		 M476.415,365.364H75.869c-9.359,0-16.973-7.614-16.973-16.972v-16.197h434.491v16.197
		C493.387,357.75,485.774,365.364,476.415,365.364z"/>
	<path style="fill:#333333;" d="M391.268,209.533l-68.758-40.829c-3.025-1.797-6.806-1.732-9.772,0.166
		c-2.964,1.899-4.604,5.307-4.235,8.809l8.356,79.529c0.418,3.981,3.335,7.249,7.246,8.114c0.67,0.149,1.345,0.221,2.011,0.221
		c3.22,0,6.275-1.676,7.98-4.521l12.877-21.468l22.265,34.75c1.778,2.773,4.78,4.287,7.845,4.287c1.72,0,3.457-0.475,5.012-1.472
		c4.328-2.773,5.589-8.529,2.817-12.857l-22.265-34.75l24.885-2.726c3.98-0.436,7.234-3.368,8.083-7.28
		C396.46,215.593,394.712,211.576,391.268,209.533z M332.461,227.564l-3.508-33.387l28.865,17.14l-12.118,1.328
		c-2.892,0.316-5.471,1.968-6.968,4.463L332.461,227.564z"/>
	<path style="fill:#333333;" d="M283.538,167.4H168.142c-5.141,0-9.307,4.167-9.307,9.307s4.166,9.307,9.307,9.307h115.396
		c5.141,0,9.307-4.167,9.307-9.307S288.679,167.4,283.538,167.4z"/>
	<path style="fill:#333333;" d="M283.538,200.226H168.142c-5.141,0-9.307,4.167-9.307,9.307s4.166,9.307,9.307,9.307h115.396
		c5.141,0,9.307-4.167,9.307-9.307S288.679,200.226,283.538,200.226z"/>
</g>
<g>
</g>
<g>
</g>
<g>
</g>
<g>
</g>
<g>
</g>
<g>
</g>
<g>
</g>
<g>
</g>
<g>
</g>
<g>
</g>
<g>
</g>
<g>
</g>
<g>
</g>
<g>
</g>
<g>
</g>
</svg>
