<?xml version="1.0" encoding="UTF-8" standalone="no"?><!DOCTYPE svg PUBLIC "-//W3C//DTD SVG 1.1//EN" "http://www.w3.org/Graphics/SVG/1.1/DTD/svg11.dtd"><svg width="100%" height="100%" viewBox="0 0 449 399" version="1.1" xmlns="http://www.w3.org/2000/svg" xmlns:xlink="http://www.w3.org/1999/xlink" xml:space="preserve" xmlns:serif="http://www.serif.com/" style="fill-rule:evenodd;clip-rule:evenodd;stroke-linejoin:round;stroke-miterlimit:2;"><path d="M183.188,326.985c-68.048,-5.775 -121.47,-62.843 -121.47,-132.36c-0,-73.402 59.482,-132.885 132.869,-132.885c49.763,-0 93.135,27.382 115.905,67.875c-15.134,14.167 -26.759,25.83 -42.48,46.057c33.593,-23.745 70.905,-41.962 96.968,-75.12c-2.82,-5.077 -5.85,-10.035 -9.091,-14.827l-14.017,8.107c-3.667,-5.362 -7.619,-10.522 -11.834,-15.39l11.444,-11.467c-5.977,-6.833 -12.427,-13.305 -19.282,-19.283l-11.423,11.468c-4.92,-4.223 -10.05,-8.19 -15.419,-11.835l8.092,-14.04c-7.515,-5.078 -15.397,-9.623 -23.603,-13.635l-8.062,14.002c-5.82,-2.782 -11.813,-5.28 -17.955,-7.455l4.17,-15.592c-8.528,-2.948 -17.34,-5.325 -26.34,-7.043l-4.177,15.6c-6.301,-1.192 -12.728,-2.01 -19.261,-2.497l0,-16.178c-4.5,-0.322 -9.052,-0.487 -13.635,-0.487c-4.582,-0 -9.134,0.165 -13.634,0.487l-0,16.178c-6.533,0.487 -12.961,1.35 -19.26,2.497l-4.178,-15.6c-9.023,1.763 -17.828,4.095 -26.348,7.043l4.178,15.592c-6.158,2.175 -12.142,4.673 -17.955,7.455l-8.085,-14.002c-8.205,4.012 -16.087,8.557 -23.602,13.635l8.092,14.002c-5.348,3.683 -10.477,7.65 -15.397,11.828l-11.445,-11.423c-6.856,5.978 -13.305,12.45 -19.253,19.283l11.415,11.422c-4.215,4.913 -8.168,10.073 -11.827,15.435l-14.003,-8.107c-5.078,7.537 -9.645,15.397 -13.658,23.625l14.01,8.062c-2.812,5.813 -5.287,11.835 -7.455,17.978l-15.614,-4.222c-2.933,8.557 -5.288,17.362 -7.028,26.369l15.6,4.178c-1.185,6.3 -2.032,12.727 -2.513,19.237l-16.155,0c-0.307,4.508 -0.472,9.09 -0.472,13.673c-0,4.546 0.165,9.09 0.472,13.597l16.155,0c0.481,6.548 1.343,12.975 2.513,19.283l-15.6,4.17c1.74,9.007 4.095,17.812 7.028,26.37l15.614,-4.215c0.121,0.322 0.225,0.652 0.345,0.937l9.563,12.855c33.525,45.038 89.797,68.123 145.297,59.655c0.585,-0.082 1.185,-0.21 1.8,-0.292Z" style="fill:#0c7399;"/><path d="M379.68,348.277c-27.022,-10.32 -57.608,-1.35 -74.715,21.983c23.415,-11.093 50.722,-11.708 74.918,-1.23c-12.016,-4.05 -24.645,-5.28 -36.99,-3.72c-9.683,1.222 -19.163,4.132 -27.983,8.76c26.895,48.06 68.985,8.962 111.15,17.4c-9.923,-20.063 -26.647,-35.13 -46.38,-43.193Z" style="fill:#95c74c;"/><path d="M412.117,291.735c-18.765,-1.755 -36.39,9.21 -43.064,26.857c12.772,-11.055 29.827,-16.215 46.837,-13.837c-8.25,-0.488 -16.395,0.982 -23.865,4.095c-5.88,2.46 -11.325,5.932 -16.05,10.402c25.275,25.463 44.873,-6.427 72.832,-8.475c-9.742,-10.89 -22.867,-17.4 -36.69,-19.042Z" style="fill:#95c74c;"/><path d="M294.578,283.14c22.852,-17.723 41.684,-40.575 54.764,-67.058c-26.714,67.628 -86.287,116.843 -157.785,130.23c-0.022,0 -0.045,0 -0.059,0.038c-2.333,0.45 -4.673,0.862 -7.021,1.192c-63.232,9.66 -126.652,-16.38 -164.85,-67.68c59.243,107.468 199.65,129.743 296.303,57.15c72.157,-54.12 101.392,-148.485 72.532,-233.969c-55.5,83.392 -189.247,88.349 -154.387,211.822c22.11,-6.953 42.562,-17.76 60.503,-31.725Z" style="fill:#95c74c;"/></svg>