<?xml version="1.0" encoding="UTF-8" standalone="no"?><!DOCTYPE svg PUBLIC "-//W3C//DTD SVG 1.1//EN" "http://www.w3.org/Graphics/SVG/1.1/DTD/svg11.dtd"><svg width="100%" height="100%" viewBox="0 0 546 444" version="1.1" xmlns="http://www.w3.org/2000/svg" xmlns:xlink="http://www.w3.org/1999/xlink" xml:space="preserve" xmlns:serif="http://www.serif.com/" style="fill-rule:evenodd;clip-rule:evenodd;stroke-linejoin:round;stroke-miterlimit:2;"><path d="M446.806,301.971c-27.34,-0 -50.216,19.069 -56.081,44.614c-4.47,-1.317 -9.184,-2.043 -14.061,-2.043c-27.264,0 -49.361,22.102 -49.361,49.365c-0,27.241 22.097,49.352 49.361,49.352l130.934,-0l0,-0.005c21.246,-0.168 38.402,-17.441 38.402,-38.715c0,-21.38 -17.319,-38.703 -38.703,-38.703c-1.1,-0 -2.188,0.06 -3.274,0.148c0.223,-2.112 0.377,-4.252 0.377,-6.427c0,-31.812 -25.792,-57.586 -57.594,-57.586Z" style="fill:#fff;fill-rule:nonzero;"/><path d="M376.664,328.173c1.026,-0 2.075,0.034 3.115,0.082c11.899,-25.712 37.658,-42.653 67.027,-42.653c37.899,0 69.229,28.647 73.469,65.417c2.425,0.575 4.741,1.449 7.049,2.358c2.471,-9.612 3.944,-19.631 3.944,-30.015c0,-66.209 -53.683,-119.875 -119.894,-119.875c-11.883,-0 -23.335,1.747 -34.152,4.959c-14.302,-62.085 -69.86,-108.399 -136.272,-108.399c-77.251,-0 -139.866,62.625 -139.866,139.87c0,5.286 0.31,10.498 0.891,15.637c-2.626,-0.214 -5.278,-0.36 -7.951,-0.36c-51.93,0 -94.024,42.093 -94.024,94.028c0,51.687 41.699,93.62 93.289,94.022l0,0.015l240.111,-0c-13.729,-12.056 -22.466,-29.691 -22.466,-49.352c-0,-36.245 29.485,-65.734 65.73,-65.734Z" style="fill:#fff;fill-rule:nonzero;"/><path d="M330.217,59.221l-1.617,-0.232c-3.098,-0 -5.629,2.523 -5.629,5.622l-0,20.55c-0,2.307 1.478,4.388 3.652,5.18c32.623,11.682 58.816,36.818 71.914,68.96c0.855,2.075 2.85,3.409 5.076,3.409l20.946,0c1.804,0 3.51,-0.887 4.568,-2.355c1.052,-1.485 1.327,-3.363 0.738,-5.068c-15.9,-45.912 -53.162,-81.829 -99.648,-96.066Z" style="fill:#fff;fill-rule:nonzero;"/><path d="M336.792,0.114l-1.216,-0.114c-3.103,0 -5.626,2.503 -5.626,5.604l-0,20.243c-0,2.518 1.72,4.712 4.191,5.338c59.832,14.899 107.349,61.064 124.028,120.517c0.658,2.373 2.832,4.04 5.285,4.04l20.302,0c1.74,0 3.352,-0.804 4.422,-2.179c1.066,-1.366 1.439,-3.133 1.023,-4.795c-18.475,-73.792 -78.305,-132.137 -152.409,-148.654Z" style="fill:#fff;fill-rule:nonzero;"/></svg>