<?xml version="1.0" encoding="UTF-8" standalone="no"?><!DOCTYPE svg PUBLIC "-//W3C//DTD SVG 1.1//EN" "http://www.w3.org/Graphics/SVG/1.1/DTD/svg11.dtd"><svg width="100%" height="100%" viewBox="0 0 501 182" version="1.1" xmlns="http://www.w3.org/2000/svg" xmlns:xlink="http://www.w3.org/1999/xlink" xml:space="preserve" xmlns:serif="http://www.serif.com/" style="fill-rule:evenodd;clip-rule:evenodd;stroke-linejoin:round;stroke-miterlimit:2;"><g id="Group_3839"></g><g id="Group_173"></g><g id="Group_2839"><g id="Group_2718"><path id="Path_18968" d="M328.194,0c-95.207,0 -172.361,40.53 -172.361,90.619c-0,50.089 77.154,90.7 172.361,90.7c95.206,-0 172.361,-40.595 172.361,-90.692c-0,-50.097 -77.155,-90.627 -172.361,-90.627Zm-0,9.022c92.311,-0 163.339,38.918 163.339,81.605c-0,42.687 -71.1,81.606 -163.339,81.606c-92.239,-0 -163.339,-38.951 -163.339,-81.606c-0,-42.655 71.1,-81.605 163.339,-81.605Zm-20.939,17.979l-17.434,89.818l19.439,-0l10.032,-51.509c15.822,-0 22.358,-0.602 25.253,2.494c2.959,3.208 1.484,6.728 -6.736,49.015l19.744,-0c8.548,-43.762 12.318,-53.057 4.442,-60.266c-7.474,-6.937 -23.095,-5.726 -39.856,-5.726l4.643,-23.834l-19.527,0.008Zm-81.533,23.898l-17.442,89.889l19.599,0l4.643,-23.905c21.885,-0 35.478,1.604 48.069,-10.161c13.953,-12.831 17.506,-35.55 7.61,-46.929c-6.533,-6.481 -15.617,-9.738 -24.78,-8.886l-37.699,-0.008Zm152.906,0l-17.442,89.889l19.575,0l4.643,-23.905c23.024,-0 35.751,1.347 48.068,-10.161c13.954,-12.831 17.507,-35.55 7.611,-46.929c-6.534,-6.48 -15.618,-9.737 -24.78,-8.886l-37.675,-0.008Zm-122.168,14.138c12.254,0.337 19.183,2.967 16.288,18.317c-4.243,21.652 -19.054,19.39 -37.371,19.39l7.274,-37.635c5.06,0 9.695,-0.136 13.801,-0.072l0.008,0Zm152.906,0c12.254,0.337 19.182,2.967 16.223,18.317c-4.242,21.885 -19.527,19.39 -37.37,19.39l7.274,-37.635c5.108,0 9.759,-0.136 13.865,-0.072l0.008,0Z" style="fill-rule:nonzero;"/></g><path id="Path_18969" d="M182.024,43.634l-127.468,6.68l123.587,6.68l3.881,-13.36Z" style="fill-rule:nonzero;"/><path id="Path_18970" d="M164.823,85.318l-164.823,8.669l159.586,4.812l5.237,-13.481Z" style="fill-rule:nonzero;"/><path id="Path_18971" d="M176.635,122.689l-109.866,5.782l113.403,7.819l-3.537,-13.601Z" style="fill-rule:nonzero;"/></g><g id="Group_3788"></g><g id="Group_3751"></g><g id="Group_2717"></g><g id="Group_3750-2"></g><g id="Group_2340"></g><g id="Group_2590"></g></svg>