<?xml version="1.0" encoding="UTF-8" standalone="no"?><!DOCTYPE svg PUBLIC "-//W3C//DTD SVG 1.1//EN" "http://www.w3.org/Graphics/SVG/1.1/DTD/svg11.dtd"><svg width="100%" height="100%" viewBox="0 0 2500 1664" version="1.1" xmlns="http://www.w3.org/2000/svg" xmlns:xlink="http://www.w3.org/1999/xlink" xml:space="preserve" xmlns:serif="http://www.serif.com/" style="fill-rule:evenodd;clip-rule:evenodd;stroke-linejoin:round;stroke-miterlimit:2;"><g><path d="M1889.33,424.36c-0,72.435 -58.72,131.156 -131.16,131.156c-72.43,-0 -131.15,-58.721 -131.15,-131.156c0,-72.434 58.72,-131.154 131.15,-131.154c72.44,0 131.16,58.72 131.16,131.154Z" style="fill:#95c74c;"/><path d="M2023.86,1499.69l-419.18,0c-25.3,0 -45.88,-20.58 -45.88,-45.88l0,-95.41l4.31,-0l-0,95.41c-0,22.92 18.65,41.57 41.57,41.57l419.18,0c22.92,0 41.569,-18.65 41.569,-41.57l-0,-632.09c-0,-22.924 -18.649,-41.574 -41.569,-41.574l-103.36,-0l-0,-4.31l103.36,-0c25.299,-0 45.88,20.584 45.88,45.884l-0,632.09c-0,25.3 -20.581,45.88 -45.88,45.88Z" style="fill:#97b0d5;fill-rule:nonzero;"/><path d="M1043.93,408.401l-16.4,0l0,-40.123c0,-4.528 3.669,-8.199 8.2,-8.199c4.53,-0 8.2,3.671 8.2,8.199l0,40.123Z" style="fill:#97b0d5;fill-rule:nonzero;"/><path d="M1577.35,522.582l-16.4,0l-0,-40.122c-0,-4.529 3.67,-8.2 8.2,-8.2c4.53,0 8.2,3.671 8.2,8.2l-0,40.122Z" style="fill:#97b0d5;fill-rule:nonzero;"/><path d="M1935.23,786.191l-0,-16.399l40.12,-0c4.53,-0 8.2,3.671 8.2,8.199c0,4.529 -3.67,8.2 -8.2,8.2l-40.12,-0Z" style="fill:#97b0d5;fill-rule:nonzero;"/><path d="M1552.75,1383.37l16.4,-0l0,40.12c0,4.53 -3.67,8.2 -8.2,8.2c-4.52,0 -8.2,-3.67 -8.2,-8.2l0,-40.12Z" style="fill:#97b0d5;fill-rule:nonzero;"/><path d="M1571.31,517.061l-4.31,0l0,-163.653c0,-28.404 -23.11,-51.512 -51.52,-51.512l-425.83,-0c-28.41,-0 -51.52,23.108 -51.52,51.512l0,47.041l-4.311,-0l-0,-47.041c-0,-30.781 25.041,-55.823 55.831,-55.823l425.83,-0c30.79,-0 55.83,25.042 55.83,55.823l0,163.653Z" style="fill:#97b0d5;fill-rule:nonzero;"/><path d="M1889.12,715.362c-11.18,-47.618 -53.92,-83.072 -104.95,-83.072c-55.07,0 -100.49,41.293 -106.99,94.603c-1.53,-0.115 -3.06,-0.173 -4.61,-0.173c-31.95,-0 -58.12,24.728 -60.42,56.089c-3.08,-0.941 -6.35,-1.45 -9.73,-1.45c-18.37,0 -33.27,14.893 -33.27,33.265c0,18.371 14.9,33.264 33.27,33.264l278.24,0c36.74,0 66.53,-29.786 66.53,-66.529c-0,-33.879 -25.32,-61.843 -58.07,-65.997Z" style="fill:#95c74c;"/><path d="M1466.64,1185.02l-106.31,-0l-0,-656.217c-0,-10.576 8.58,-19.15 19.15,-19.15l87.16,-0l0,675.367Z" style="fill:#95c74c;fill-rule:nonzero;"/><rect x="1466.64" y="509.653" width="275.12" height="675.367" style="fill:url(#_Linear1);"/><rect x="1491.31" y="538.329" width="225.78" height="48.292" style="fill:url(#_Linear2);"/><path d="M869.139,1223.04l-189.307,0l-0,-809.681c-0,-10.576 8.574,-19.15 19.151,-19.15l170.156,-0l-0,828.831Z" style="fill:#95c74c;fill-rule:nonzero;"/><rect x="869.139" y="394.209" width="404.041" height="828.831" style="fill:url(#_Linear3);"/><path d="M1884.88,1064.31l0,-138.017c0,-17.98 14.57,-32.557 32.55,-32.557l220.49,0l-0,138.014c-0,17.98 -14.58,32.56 -32.56,32.56l-220.48,-0Z" style="fill:url(#_Linear4);"/><rect x="1936.71" y="947.115" width="124.05" height="11.548" style="fill:#fff;fill-rule:nonzero;"/><rect x="1936.71" y="973.248" width="161" height="11.548" style="fill:#fff;fill-rule:nonzero;"/><rect x="1936.71" y="999.381" width="78.04" height="11.549" style="fill:#fff;fill-rule:nonzero;"/><rect x="904.917" y="434.783" width="332.483" height="79.115" style="fill:url(#_Linear5);"/><rect x="1159.92" y="460.728" width="60.23" height="27.225" style="fill:#ffea67;fill-rule:nonzero;"/><rect x="928.626" y="460.728" width="183.584" height="27.225" style="fill:url(#_Linear6);"/><rect x="1657.92" y="553.241" width="37.82" height="18.467" style="fill:url(#_Linear7);"/><rect x="1512.66" y="553.241" width="115.3" height="18.467" style="fill:url(#_Linear8);"/><rect x="1491.31" y="615.408" width="225.78" height="48.291" style="fill:url(#_Linear9);"/><rect x="1657.92" y="630.32" width="37.82" height="18.467" style="fill:url(#_Linear10);"/><rect x="1512.66" y="630.32" width="115.3" height="18.467" style="fill:url(#_Linear11);"/><rect x="1491.31" y="693.55" width="225.78" height="48.291" style="fill:url(#_Linear12);"/><rect x="1657.92" y="708.462" width="37.82" height="18.467" style="fill:url(#_Linear13);"/><rect x="1512.66" y="708.462" width="115.3" height="18.467" style="fill:url(#_Linear14);"/><rect x="904.917" y="550.131" width="332.483" height="79.114" style="fill:url(#_Linear15);"/><rect x="1159.92" y="576.075" width="60.23" height="27.226" style="fill:url(#_Linear16);"/><rect x="928.626" y="576.075" width="183.584" height="27.226" style="fill:url(#_Linear17);"/><rect x="904.917" y="665.479" width="332.483" height="79.114" style="fill:url(#_Linear18);"/><rect x="1159.92" y="691.423" width="60.23" height="27.226" style="fill:url(#_Linear19);"/><rect x="928.626" y="691.423" width="183.584" height="27.226" style="fill:url(#_Linear20);"/><path d="M843.031,518.686l-124.844,0l-12.247,-14.029l137.091,-0l0,14.029Z" style="fill:#f0f0f0;fill-rule:nonzero;"/><path d="M843.031,555.516l-124.844,-0l-12.247,-14.03l137.091,-0l0,14.03Z" style="fill:#f0f0f0;fill-rule:nonzero;"/><path d="M843.031,592.345l-124.844,-0l-12.247,-14.029l137.091,0l0,14.029Z" style="fill:#f0f0f0;fill-rule:nonzero;"/><path d="M843.031,629.175l-124.844,0l-12.247,-14.03l137.091,0l0,14.03Z" style="fill:#f0f0f0;fill-rule:nonzero;"/><path d="M843.031,666.004l-124.844,0l-12.247,-14.029l137.091,-0l0,14.029Z" style="fill:#f0f0f0;fill-rule:nonzero;"/><path d="M843.031,702.834l-124.844,-0l-12.247,-14.03l137.091,0l0,14.03Z" style="fill:#f0f0f0;fill-rule:nonzero;"/><path d="M1448.08,579.298l-64.56,-0l-6.33,-9.938l70.89,-0l-0,9.938Z" style="fill:#6681b3;fill-rule:nonzero;"/><path d="M1448.08,605.388l-64.56,-0l-6.33,-9.938l70.89,-0l-0,9.938Z" style="fill:#6681b3;fill-rule:nonzero;"/><path d="M1448.08,631.478l-64.56,0l-6.33,-9.939l70.89,-0l-0,9.939Z" style="fill:#6681b3;fill-rule:nonzero;"/><path d="M1448.08,657.567l-64.56,0l-6.33,-9.938l70.89,0l-0,9.938Z" style="fill:#6681b3;fill-rule:nonzero;"/><path d="M1448.08,683.657l-64.56,-0l-6.33,-9.938l70.89,-0l-0,9.938Z" style="fill:#6681b3;fill-rule:nonzero;"/><path d="M1448.08,709.747l-64.56,0l-6.33,-9.939l70.89,-0l-0,9.939Z" style="fill:#6681b3;fill-rule:nonzero;"/><path d="M774.486,776.868c-32.572,-0 -59.072,26.499 -59.072,59.071c0,32.571 26.5,59.071 59.072,59.071c32.571,0 59.071,-26.5 59.071,-59.071c0,-32.572 -26.5,-59.071 -59.071,-59.071Zm0,122.452c-34.949,0 -63.382,-28.433 -63.382,-63.381c0,-34.948 28.433,-63.381 63.382,-63.381c34.948,-0 63.381,28.433 63.381,63.381c0,34.948 -28.433,63.381 -63.381,63.381Z" style="fill:#6681b3;fill-rule:nonzero;"/><path d="M774.486,807.091c-15.907,0 -28.849,12.941 -28.849,28.848c0,15.907 12.942,28.848 28.849,28.848c15.907,-0 28.847,-12.941 28.847,-28.848c0,-15.907 -12.94,-28.848 -28.847,-28.848Zm0,62.007c-18.284,0 -33.159,-14.876 -33.159,-33.159c0,-18.284 14.875,-33.158 33.159,-33.158c18.283,0 33.158,14.874 33.158,33.158c-0,18.283 -14.875,33.159 -33.158,33.159Z" style="fill:#6681b3;fill-rule:nonzero;"/><path d="M717.265,896.208l-3.048,-3.048l117.489,-117.49l3.048,3.047l-117.489,117.491Z" style="fill:#6681b3;fill-rule:nonzero;"/><path d="M831.706,896.208l-117.489,-117.491l3.048,-3.047l117.489,117.49l-3.048,3.048Z" style="fill:#6681b3;fill-rule:nonzero;"/><path d="M1892.18,349.453l-89.28,0c-10.6,0 -19.19,8.591 -19.19,19.189l-0,190.93c-0,10.598 8.59,19.189 19.19,19.189l139.45,-0c10.6,-0 19.19,-8.591 19.19,-19.189l0,-140.753l-69.36,-69.366Z" style="fill:url(#_Linear21);"/><path d="M1892.18,349.453l0,50.177c0,10.598 8.59,19.189 19.19,19.189l50.17,-0l-69.36,-69.366Z" style="fill:#97b0d5;fill-rule:nonzero;"/><path d="M1812.41,1172.63c0,21.88 -17.74,39.62 -39.62,39.62c-21.88,0 -39.62,-17.74 -39.62,-39.62c0,-21.88 17.74,-39.62 39.62,-39.62c21.88,0 39.62,17.74 39.62,39.62Z" style="fill:#95c74c;"/><path d="M2102.3,650.082c0,26.698 -21.641,48.341 -48.34,48.341c-26.7,-0 -48.34,-21.643 -48.34,-48.341c-0,-26.698 21.64,-48.34 48.34,-48.34c26.699,-0 48.34,21.642 48.34,48.34Z" style="fill:#95c74c;"/><path d="M1022.28,211.959c0,24.601 -19.95,44.544 -44.547,44.544c-24.602,0 -44.545,-19.943 -44.545,-44.544c-0,-24.602 19.943,-44.545 44.545,-44.545c24.597,-0 44.547,19.943 44.547,44.545Z" style="fill:#95c74c;"/><path d="M2093.81,1343.29c0,14.48 -11.74,26.22 -26.22,26.22c-14.48,0 -26.22,-11.74 -26.22,-26.22c-0,-14.48 11.74,-26.22 26.22,-26.22c14.48,0 26.22,11.74 26.22,26.22Z" style="fill:#95c74c;"/><path d="M1446.5,299.74c0,18.237 -14.78,33.02 -33.02,33.02c-18.23,0 -33.01,-14.783 -33.01,-33.02c-0,-18.236 14.78,-33.02 33.01,-33.02c18.24,-0 33.02,14.784 33.02,33.02Z" style="fill:#95c74c;"/><path d="M2087.39,1208.86c-0,10.93 -8.869,19.8 -19.799,19.8c-10.931,0 -19.8,-8.87 -19.8,-19.8c0,-10.93 8.869,-19.8 19.8,-19.8c10.93,-0 19.799,8.87 19.799,19.8Z" style="fill:#95c74c;"/><path d="M1331.34,299.74c-0,11.408 -9.25,20.657 -20.66,20.657c-11.4,-0 -20.65,-9.249 -20.65,-20.657c0,-11.408 9.25,-20.656 20.65,-20.656c11.41,-0 20.66,9.248 20.66,20.656Z" style="fill:#95c74c;"/><rect x="1808.45" y="407.234" width="64.18" height="13.29" style="fill:#97b0d5;fill-rule:nonzero;"/><rect x="1808.71" y="441.392" width="127.84" height="13.29" style="fill:#97b0d5;fill-rule:nonzero;"/><rect x="1808.71" y="475.55" width="127.84" height="13.29" style="fill:#97b0d5;fill-rule:nonzero;"/><path d="M1503.52,1398.08c27.282,-21.158 49.765,-48.44 65.379,-80.056c-31.892,80.737 -103.013,139.492 -188.37,155.474c-0.027,0 -0.053,0 -0.071,0.045c-2.785,0.537 -5.579,1.03 -8.381,1.424c-75.49,11.532 -151.204,-19.555 -196.806,-80.8c70.727,128.3 238.352,154.893 353.74,68.229c86.145,-64.611 121.047,-177.269 86.593,-279.325c-66.259,99.558 -225.933,105.477 -184.315,252.884c26.396,-8.3 50.813,-21.203 72.231,-37.875Z" style="fill:#95c74c;"/></g><defs><linearGradient id="_Linear1" x1="0" y1="0" x2="1" y2="0" gradientUnits="userSpaceOnUse" gradientTransform="matrix(275.126,0,0,275.126,1466.64,847.338)"><stop offset="0" style="stop-color:#f0f4f9;stop-opacity:1"/><stop offset="1" style="stop-color:#d4e2ef;stop-opacity:1"/></linearGradient><linearGradient id="_Linear2" x1="0" y1="0" x2="1" y2="0" gradientUnits="userSpaceOnUse" gradientTransform="matrix(225.783,0,0,225.783,1491.31,562.475)"><stop offset="0" style="stop-color:#2d3852;stop-opacity:1"/><stop offset="1" style="stop-color:#111d31;stop-opacity:1"/></linearGradient><linearGradient id="_Linear3" x1="0" y1="0" x2="1" y2="0" gradientUnits="userSpaceOnUse" gradientTransform="matrix(404.036,0,0,404.036,869.139,808.622)"><stop offset="0" style="stop-color:#f0f4f9;stop-opacity:1"/><stop offset="1" style="stop-color:#d4e2ef;stop-opacity:1"/></linearGradient><linearGradient id="_Linear4" x1="0" y1="0" x2="1" y2="0" gradientUnits="userSpaceOnUse" gradientTransform="matrix(0,170.571,-170.571,0,2011.4,893.737)"><stop offset="0" style="stop-color:#2d3852;stop-opacity:1"/><stop offset="1" style="stop-color:#111d31;stop-opacity:1"/></linearGradient><linearGradient id="_Linear5" x1="0" y1="0" x2="1" y2="0" gradientUnits="userSpaceOnUse" gradientTransform="matrix(332.48,0,0,332.48,904.917,474.34)"><stop offset="0" style="stop-color:#2d3852;stop-opacity:1"/><stop offset="1" style="stop-color:#111d31;stop-opacity:1"/></linearGradient><linearGradient id="_Linear6" x1="0" y1="0" x2="1" y2="0" gradientUnits="userSpaceOnUse" gradientTransform="matrix(59.749,206.091,-206.091,59.749,980.087,335.221)"><stop offset="0" style="stop-color:#7c79ff;stop-opacity:1"/><stop offset="1" style="stop-color:#7c38ff;stop-opacity:1"/></linearGradient><linearGradient id="_Linear7" x1="0" y1="0" x2="1" y2="0" gradientUnits="userSpaceOnUse" gradientTransform="matrix(21.8599,75.401,-75.401,21.8599,1662.07,511.576)"><stop offset="0" style="stop-color:#ff795d;stop-opacity:1"/><stop offset="1" style="stop-color:#f64270;stop-opacity:1"/></linearGradient><linearGradient id="_Linear8" x1="0" y1="0" x2="1" y2="0" gradientUnits="userSpaceOnUse" gradientTransform="matrix(38.5407,132.938,-132.938,38.5407,1544.29,472.737)"><stop offset="0" style="stop-color:#7c79ff;stop-opacity:1"/><stop offset="1" style="stop-color:#7c38ff;stop-opacity:1"/></linearGradient><linearGradient id="_Linear9" x1="0" y1="0" x2="1" y2="0" gradientUnits="userSpaceOnUse" gradientTransform="matrix(225.783,0,0,225.783,1491.31,639.553)"><stop offset="0" style="stop-color:#2d3852;stop-opacity:1"/><stop offset="1" style="stop-color:#111d31;stop-opacity:1"/></linearGradient><linearGradient id="_Linear10" x1="0" y1="0" x2="1" y2="0" gradientUnits="userSpaceOnUse" gradientTransform="matrix(21.8601,75.4015,-75.4015,21.8601,1662.07,588.654)"><stop offset="0" style="stop-color:#ff795d;stop-opacity:1"/><stop offset="1" style="stop-color:#f64270;stop-opacity:1"/></linearGradient><linearGradient id="_Linear11" x1="0" y1="0" x2="1" y2="0" gradientUnits="userSpaceOnUse" gradientTransform="matrix(38.5409,132.938,-132.938,38.5409,1544.29,549.815)"><stop offset="0" style="stop-color:#7c79ff;stop-opacity:1"/><stop offset="1" style="stop-color:#7c38ff;stop-opacity:1"/></linearGradient><linearGradient id="_Linear12" x1="0" y1="0" x2="1" y2="0" gradientUnits="userSpaceOnUse" gradientTransform="matrix(225.783,0,0,225.783,1491.31,717.696)"><stop offset="0" style="stop-color:#2d3852;stop-opacity:1"/><stop offset="1" style="stop-color:#111d31;stop-opacity:1"/></linearGradient><linearGradient id="_Linear13" x1="0" y1="0" x2="1" y2="0" gradientUnits="userSpaceOnUse" gradientTransform="matrix(21.8599,75.401,-75.401,21.8599,1662.07,666.797)"><stop offset="0" style="stop-color:#ff795d;stop-opacity:1"/><stop offset="1" style="stop-color:#f64270;stop-opacity:1"/></linearGradient><linearGradient id="_Linear14" x1="0" y1="0" x2="1" y2="0" gradientUnits="userSpaceOnUse" gradientTransform="matrix(38.5407,132.938,-132.938,38.5407,1544.29,627.958)"><stop offset="0" style="stop-color:#f0f4f9;stop-opacity:1"/><stop offset="1" style="stop-color:#d4e2ef;stop-opacity:1"/></linearGradient><linearGradient id="_Linear15" x1="0" y1="0" x2="1" y2="0" gradientUnits="userSpaceOnUse" gradientTransform="matrix(332.48,0,0,332.48,904.917,589.688)"><stop offset="0" style="stop-color:#2d3852;stop-opacity:1"/><stop offset="1" style="stop-color:#111d31;stop-opacity:1"/></linearGradient><linearGradient id="_Linear16" x1="0" y1="0" x2="1" y2="0" gradientUnits="userSpaceOnUse" gradientTransform="matrix(33.1889,114.478,-114.478,33.1889,1167.63,512.411)"><stop offset="0" style="stop-color:#ff795d;stop-opacity:1"/><stop offset="1" style="stop-color:#f64270;stop-opacity:1"/></linearGradient><linearGradient id="_Linear17" x1="0" y1="0" x2="1" y2="0" gradientUnits="userSpaceOnUse" gradientTransform="matrix(183.587,0,0,183.587,928.626,589.688)"><stop offset="0" style="stop-color:#acf7ff;stop-opacity:1"/><stop offset="1" style="stop-color:#6dc6ff;stop-opacity:1"/></linearGradient><linearGradient id="_Linear18" x1="0" y1="0" x2="1" y2="0" gradientUnits="userSpaceOnUse" gradientTransform="matrix(332.48,0,0,332.48,904.917,705.036)"><stop offset="0" style="stop-color:#2d3852;stop-opacity:1"/><stop offset="1" style="stop-color:#111d31;stop-opacity:1"/></linearGradient><linearGradient id="_Linear19" x1="0" y1="0" x2="1" y2="0" gradientUnits="userSpaceOnUse" gradientTransform="matrix(33.1889,114.478,-114.478,33.1889,1167.63,627.759)"><stop offset="0" style="stop-color:#ff795d;stop-opacity:1"/><stop offset="1" style="stop-color:#f64270;stop-opacity:1"/></linearGradient><linearGradient id="_Linear20" x1="0" y1="0" x2="1" y2="0" gradientUnits="userSpaceOnUse" gradientTransform="matrix(59.7491,206.091,-206.091,59.7491,980.087,565.916)"><stop offset="0" style="stop-color:#7c79ff;stop-opacity:1"/><stop offset="1" style="stop-color:#7c38ff;stop-opacity:1"/></linearGradient><linearGradient id="_Linear21" x1="0" y1="0" x2="1" y2="0" gradientUnits="userSpaceOnUse" gradientTransform="matrix(177.831,0,0,177.831,1783.71,464.107)"><stop offset="0" style="stop-color:#f0f4f9;stop-opacity:1"/><stop offset="1" style="stop-color:#d4e2ef;stop-opacity:1"/></linearGradient></defs></svg>