<?xml version="1.0" encoding="UTF-8" standalone="no"?><!DOCTYPE svg PUBLIC "-//W3C//DTD SVG 1.1//EN" "http://www.w3.org/Graphics/SVG/1.1/DTD/svg11.dtd"><svg width="100%" height="100%" viewBox="0 0 4856 3591" version="1.1" xmlns="http://www.w3.org/2000/svg" xmlns:xlink="http://www.w3.org/1999/xlink" xml:space="preserve" xmlns:serif="http://www.serif.com/" style="fill-rule:evenodd;clip-rule:evenodd;stroke-linejoin:round;stroke-miterlimit:2;"><path d="M4855.86,3396.92c0,106.687 -86.468,193.187 -193.187,193.187l-4469.49,0c-106.676,0 -193.176,-86.5 -193.176,-193.187l0,-3203.71c0,-106.69 86.5,-193.203 193.176,-193.203l4469.49,0c106.719,0 193.187,86.513 193.187,193.203l0,3203.71Z" style="fill:#575b5c;fill-rule:nonzero;"/><path d="M185.009,3164.48l0,-2738.85c0,-96.316 78.078,-174.353 174.391,-174.353l4137.09,-0c96.313,-0 -4311.48,3009.52 -4311.48,2913.21Z" style="fill:#6f7374;fill-rule:nonzero;"/><path d="M4703.27,222.925c-6.438,49.416 -51.719,84.278 -101.188,77.835c-49.406,-6.447 -84.25,-51.76 -77.812,-101.172c6.437,-49.441 51.75,-84.291 101.187,-77.835c49.407,6.435 84.251,51.734 77.813,101.172Z" style="fill:#999b9e;fill-rule:nonzero;"/><path d="M4620.87,156.997l-7.094,54.247l-43.375,33.362c-8.531,-11.084 -12.844,-25.44 -10.906,-40.443c3.906,-29.957 31.406,-51.085 61.375,-47.166Z" style="fill:#d8d9da;fill-rule:nonzero;"/><path d="M4657.15,177.894c8.531,11.084 12.875,25.453 10.875,40.431c-3.875,29.966 -31.344,51.072 -61.344,47.178l7.094,-54.259l43.375,-33.35Z" style="fill:#d8d9da;fill-rule:nonzero;"/><path d="M4620.87,156.997c14.937,1.953 27.718,9.787 36.281,20.897l-43.375,33.35l7.094,-54.247Z" style="fill:#fff;fill-rule:nonzero;"/><path d="M4606.68,265.503c-14.968,-1.941 -27.75,-9.8 -36.281,-20.897l43.375,-33.362l-7.094,54.259Z" style="fill:#fff;fill-rule:nonzero;"/><path d="M4640.08,214.675c-1.906,14.538 -15.218,24.766 -29.75,22.888c-14.5,-1.904 -24.781,-15.21 -22.875,-29.751c1.907,-14.524 15.219,-24.765 29.719,-22.874c14.563,1.893 24.813,15.209 22.906,29.737Z" style="fill:#737477;fill-rule:nonzero;"/><path d="M4703.27,3390.51c-6.438,49.438 -51.719,84.282 -101.188,77.844c-49.406,-6.437 -84.25,-51.75 -77.812,-101.187c6.437,-49.438 51.75,-84.25 101.187,-77.813c49.407,6.438 84.251,51.75 77.813,101.156Z" style="fill:#999b9e;fill-rule:nonzero;"/><path d="M4620.87,3324.57l-7.094,54.25l-43.375,33.406c-8.531,-11.094 -12.844,-25.469 -10.906,-40.437c3.906,-30 31.406,-51.125 61.375,-47.219Z" style="fill:#d8d9da;fill-rule:nonzero;"/><path d="M4657.15,3345.48c8.531,11.094 12.875,25.469 10.875,40.438c-3.875,29.968 -31.344,51.093 -61.344,47.187l7.094,-54.281l43.375,-33.344Z" style="fill:#d8d9da;fill-rule:nonzero;"/><path d="M4620.87,3324.57c14.937,1.969 27.718,9.813 36.281,20.906l-43.375,33.344l7.094,-54.25Z" style="fill:#fff;fill-rule:nonzero;"/><path d="M4606.68,3433.1c-14.968,-1.937 -27.75,-9.812 -36.281,-20.875l43.375,-33.406l-7.094,54.281Z" style="fill:#fff;fill-rule:nonzero;"/><path d="M4640.08,3382.29c-1.906,14.5 -15.218,24.75 -29.75,22.875c-14.5,-1.907 -24.781,-15.219 -22.875,-29.75c1.907,-14.532 15.219,-24.782 29.719,-22.875c14.563,1.906 24.813,15.187 22.906,29.75Z" style="fill:#737477;fill-rule:nonzero;"/><path d="M331.594,222.925c-6.422,49.416 -51.722,84.278 -101.163,77.835c-49.437,-6.447 -84.262,-51.76 -77.831,-101.172c6.447,-49.441 51.747,-84.291 101.172,-77.835c49.437,6.435 84.29,51.734 77.822,101.172Z" style="fill:#999b9e;fill-rule:nonzero;"/><path d="M249.181,156.997l-7.078,54.247l-43.359,33.362c-8.547,-11.084 -12.866,-25.44 -10.913,-40.443c3.919,-29.957 31.385,-51.085 61.35,-47.166Z" style="fill:#d8d9da;fill-rule:nonzero;"/><path d="M285.45,177.894c8.569,11.084 12.866,25.453 10.912,40.431c-3.893,29.966 -31.384,51.072 -61.328,47.178l7.069,-54.259l43.347,-33.35Z" style="fill:#d8d9da;fill-rule:nonzero;"/><path d="M249.181,156.997c14.978,1.953 27.76,9.787 36.269,20.897l-43.347,33.35l7.078,-54.247Z" style="fill:#fff;fill-rule:nonzero;"/><path d="M235.034,265.503c-15.003,-1.941 -27.746,-9.8 -36.29,-20.897l43.359,-33.362l-7.069,54.259Z" style="fill:#fff;fill-rule:nonzero;"/><path d="M268.422,214.675c-1.894,14.538 -15.213,24.766 -29.763,22.888c-14.512,-1.904 -24.756,-15.21 -22.862,-29.751c1.891,-14.524 15.209,-24.765 29.734,-22.874c14.528,1.893 24.757,15.209 22.891,29.737Z" style="fill:#737477;fill-rule:nonzero;"/><path d="M331.594,3390.51c-6.422,49.438 -51.722,84.282 -101.163,77.844c-49.437,-6.437 -84.262,-51.75 -77.831,-101.187c6.447,-49.438 51.747,-84.25 101.172,-77.813c49.437,6.438 84.29,51.75 77.822,101.156Z" style="fill:#999b9e;fill-rule:nonzero;"/><path d="M249.181,3324.57l-7.078,54.25l-43.359,33.406c-8.547,-11.094 -12.866,-25.469 -10.913,-40.437c3.919,-30 31.385,-51.125 61.35,-47.219Z" style="fill:#d8d9da;fill-rule:nonzero;"/><path d="M285.45,3345.48c8.569,11.094 12.866,25.469 10.912,40.438c-3.893,29.968 -31.384,51.093 -61.328,47.187l7.069,-54.281l43.347,-33.344Z" style="fill:#d8d9da;fill-rule:nonzero;"/><path d="M249.181,3324.57c14.978,1.969 27.76,9.813 36.269,20.906l-43.347,33.344l7.078,-54.25Z" style="fill:#fff;fill-rule:nonzero;"/><path d="M235.034,3433.1c-15.003,-1.937 -27.746,-9.812 -36.29,-20.875l43.359,-33.406l-7.069,54.281Z" style="fill:#fff;fill-rule:nonzero;"/><path d="M268.422,3382.29c-1.894,14.5 -15.213,24.75 -29.763,22.875c-14.512,-1.907 -24.756,-15.219 -22.862,-29.75c1.891,-14.532 15.209,-24.782 29.734,-22.875c14.528,1.906 24.757,15.187 22.891,29.75Z" style="fill:#737477;fill-rule:nonzero;"/><path d="M4292.58,3256.07c0,43.062 -34.874,77.937 -77.937,77.937l-3573.41,0c-43.056,0 -77.94,-34.875 -77.94,-77.937c-0,-43.031 34.884,-77.937 77.94,-77.937l3573.41,-0c43.063,-0 77.937,34.906 77.937,77.937Z" style="fill:#d8d9da;fill-rule:nonzero;"/><path d="M4292.58,419.253c0,43.041 -34.874,77.941 -77.937,77.941l-3573.41,-0c-43.056,-0 -77.94,-34.9 -77.94,-77.941c-0,-43.056 34.884,-77.944 77.94,-77.944l3573.41,0c43.063,0 77.937,34.888 77.937,77.944Z" style="fill:#acadae;fill-rule:nonzero;"/><path d="M4059.05,2871.2c0,71.687 -58.125,129.781 -129.812,129.781l-3002.63,0c-71.656,0 -129.775,-58.094 -129.775,-129.781l0,-2152.29c0,-71.678 58.119,-129.797 129.775,-129.797l3002.63,0c71.687,0 129.812,58.119 129.812,129.797l0,2152.29Z" style="fill:#333739;fill-rule:nonzero;"/><path d="M3929.96,2786.01c0,66.032 -53.531,119.532 -119.531,119.532l-2764.98,-0c-65.991,-0 -119.506,-53.5 -119.506,-119.532l-0,-1981.92c-0,-66.004 53.515,-119.519 119.506,-119.519l2764.98,-0c66,-0 119.531,53.515 119.531,119.519l0,1981.92Z" style="fill:#dfdedf;fill-rule:nonzero;"/><path d="M0,824.5l318.188,-0c57.678,-0 104.456,46.778 104.456,104.456l-0,1732.18c-0,57.687 -46.778,104.468 -104.456,104.468l-318.188,0l0,-1941.1Z" style="fill:#333739;fill-rule:nonzero;"/><rect x="0" y="961.769" width="304.737" height="38.084" style="fill:#e2ab5a;fill-rule:nonzero;"/><rect x="0" y="1047.49" width="304.737" height="38.084" style="fill:#e2ab5a;fill-rule:nonzero;"/><rect x="0" y="1133.18" width="304.737" height="38.097" style="fill:#e2ab5a;fill-rule:nonzero;"/><rect x="0" y="1218.9" width="304.737" height="38.1" style="fill:#e2ab5a;fill-rule:nonzero;"/><rect x="0" y="1304.6" width="304.737" height="38.087" style="fill:#e2ab5a;fill-rule:nonzero;"/><rect x="0" y="1390.32" width="304.737" height="38.084" style="fill:#e2ab5a;fill-rule:nonzero;"/><rect x="0" y="1476.02" width="304.737" height="38.097" style="fill:#e2ab5a;fill-rule:nonzero;"/><rect x="0" y="1561.73" width="304.737" height="38.1" style="fill:#e2ab5a;fill-rule:nonzero;"/><rect x="0" y="1647.44" width="304.737" height="38.087" style="fill:#e2ab5a;fill-rule:nonzero;"/><rect x="0" y="1733.17" width="304.737" height="38.062" style="fill:#e2ab5a;fill-rule:nonzero;"/><rect x="0" y="1818.86" width="304.737" height="38.091" style="fill:#e2ab5a;fill-rule:nonzero;"/><rect x="0" y="1904.57" width="304.737" height="38.094" style="fill:#e2ab5a;fill-rule:nonzero;"/><rect x="0" y="1990.26" width="304.737" height="38.094" style="fill:#e2ab5a;fill-rule:nonzero;"/><rect x="0" y="2075.98" width="304.737" height="38.094" style="fill:#e2ab5a;fill-rule:nonzero;"/><rect x="0" y="2161.7" width="304.737" height="38.094" style="fill:#e2ab5a;fill-rule:nonzero;"/><rect x="0" y="2247.42" width="304.737" height="38.094" style="fill:#e2ab5a;fill-rule:nonzero;"/><rect x="0" y="2333.1" width="304.737" height="38.094" style="fill:#e2ab5a;fill-rule:nonzero;"/><rect x="0" y="2418.82" width="304.737" height="38.094" style="fill:#e2ab5a;fill-rule:nonzero;"/><rect x="0" y="2504.51" width="304.737" height="38.094" style="fill:#e2ab5a;fill-rule:nonzero;"/><rect x="0" y="2590.23" width="304.737" height="38.094" style="fill:#e2ab5a;fill-rule:nonzero;"/><path d="M1571.46,1874.76c0,64.969 23.547,116 70.657,153.157c47.106,37.125 111.765,55.718 193.993,55.718c80.507,0 142.81,-18.875 186.925,-56.562c44.107,-37.719 66.163,-85.094 66.163,-142.156c-0,-55.625 -18.616,-98.156 -55.834,-127.532c-23.976,-18.906 -59.985,-34.031 -108.019,-45.322l-109.597,-25.856c-42.285,-9.887 -69.935,-18.494 -82.959,-25.84c-20.276,-11.013 -30.407,-27.688 -30.407,-50c0,-24.282 10.266,-43.213 30.835,-56.775c20.556,-13.55 48.059,-20.338 82.531,-20.338c30.981,0 56.884,5.238 77.734,15.688c31.275,15.818 48.085,42.503 50.391,80.078l125.415,-0c-2.293,-66.385 -26.953,-117.007 -73.987,-151.894c-47.044,-34.875 -103.869,-52.331 -170.481,-52.331c-79.788,0 -140.26,18.506 -181.435,55.506c-41.175,37.01 -61.756,83.472 -61.756,139.391c0,61.29 21.034,106.35 63.122,135.162c24.856,17.219 70.509,33.188 136.966,47.875l67.6,14.813c39.575,8.5 68.481,18.25 86.706,29.25c18.228,11.312 27.344,27.25 27.344,47.875c-0,35.312 -18.604,59.468 -55.81,72.437c-19.615,6.781 -45.128,10.156 -76.562,10.156c-52.503,0 -89.563,-12.812 -111.181,-38.531c-11.829,-14.125 -19.75,-35.469 -23.791,-63.969l-124.563,0Zm578.75,0c0,64.969 23.532,116 70.657,153.157c47.09,37.125 111.75,55.718 193.999,55.718c80.501,0 142.782,-18.875 186.907,-56.562c44.125,-37.719 66.187,-85.094 66.187,-142.156c0,-55.625 -18.625,-98.156 -55.844,-127.532c-23.968,-18.906 -59.999,-34.031 -108.031,-45.322l-109.594,-25.856c-42.281,-9.887 -69.937,-18.494 -82.968,-25.84c-20.25,-11.013 -30.406,-27.688 -30.406,-50c-0,-24.282 10.281,-43.213 30.843,-56.775c20.563,-13.55 48.063,-20.338 82.531,-20.338c31.001,0 56.876,5.238 77.75,15.688c31.25,15.818 48.063,42.503 50.375,80.078l125.407,-0c-2.281,-66.385 -26.938,-117.007 -73.969,-151.894c-47.062,-34.875 -103.875,-52.331 -170.5,-52.331c-79.75,0 -140.253,18.506 -181.406,55.506c-41.188,37.01 -61.781,83.472 -61.781,139.391c-0,61.29 21.031,106.35 63.125,135.162c24.875,17.219 70.531,33.188 136.969,47.875l67.593,14.813c39.594,8.5 68.5,18.25 86.719,29.25c18.219,11.312 27.344,27.25 27.344,47.875c-0,35.312 -18.594,59.468 -55.813,72.437c-19.593,6.781 -45.125,10.156 -76.563,10.156c-52.499,0 -89.562,-12.812 -111.187,-38.531c-11.813,-14.125 -19.75,-35.469 -23.781,-63.969l-124.563,0Zm856.438,-323.281c59.406,0 99.094,17.016 119.031,51.05c19.938,34.044 29.938,82.838 29.938,146.388c-0,46.034 -6.657,85.718 -19.969,119.031c-24.313,60.75 -67.313,91.094 -129,91.094l-120.5,-0l-0,-407.563l120.5,0Zm22.062,-108.459l-269.25,-0l0,624.49l269.25,0c94.438,0 164.25,-38.812 209.501,-116.5c33.312,-57.625 50,-127.934 50,-211c-0,-32.756 -3.969,-67.206 -11.876,-103.375c-7.906,-36.143 -22.75,-69.749 -44.531,-100.831c-27.125,-38.403 -62.594,-64.831 -106.406,-79.234c-25.75,-8.472 -57.938,-12.988 -96.688,-13.55Z" style="fill:#575b5c;fill-rule:nonzero;"/><rect x="1290.21" y="824.5" width="2275.44" height="57.46" style="fill:#575b5c;fill-rule:nonzero;"/><rect x="1290.21" y="971.131" width="2275.44" height="57.46" style="fill:#575b5c;fill-rule:nonzero;"/><rect x="1290.21" y="1117.76" width="2275.44" height="57.447" style="fill:#575b5c;fill-rule:nonzero;"/><rect x="1143.04" y="2551.01" width="512.206" height="57.469" style="fill:#575b5c;fill-rule:nonzero;"/><rect x="1143.04" y="2678.6" width="512.206" height="57.438" style="fill:#575b5c;fill-rule:nonzero;"/><rect x="1828.91" y="2551.01" width="512.209" height="57.469" style="fill:#575b5c;fill-rule:nonzero;"/><rect x="1828.91" y="2678.6" width="512.209" height="57.438" style="fill:#575b5c;fill-rule:nonzero;"/><rect x="2514.77" y="2551.01" width="512.187" height="57.469" style="fill:#575b5c;fill-rule:nonzero;"/><rect x="2514.77" y="2678.6" width="512.187" height="57.438" style="fill:#575b5c;fill-rule:nonzero;"/><rect x="3200.62" y="2551.01" width="512.219" height="57.469" style="fill:#575b5c;fill-rule:nonzero;"/><rect x="3200.62" y="2678.6" width="512.219" height="57.438" style="fill:#575b5c;fill-rule:nonzero;"/><path d="M1454.37,2342.63c-0,52.594 -42.641,95.219 -95.241,95.219c-52.587,0 -95.228,-42.625 -95.228,-95.219c0,-52.593 42.641,-95.218 95.228,-95.218c52.6,-0 95.241,42.625 95.241,95.218Z" style="fill:#575b5c;fill-rule:nonzero;"/><path d="M1855.21,2342.63c0,52.594 -42.637,95.219 -95.237,95.219c-52.591,0 -95.228,-42.625 -95.228,-95.219c-0,-52.593 42.637,-95.218 95.228,-95.218c52.6,-0 95.237,42.625 95.237,95.218Z" style="fill:#575b5c;fill-rule:nonzero;"/><path d="M3191.12,2342.63c-0,52.594 -42.625,95.219 -95.219,95.219c-52.625,0 -95.25,-42.625 -95.25,-95.219c-0,-52.593 42.625,-95.218 95.25,-95.218c52.594,-0 95.219,42.625 95.219,95.218Z" style="fill:#575b5c;fill-rule:nonzero;"/><path d="M3591.96,2342.63c0,52.594 -42.656,95.219 -95.218,95.219c-52.594,0 -95.25,-42.625 -95.25,-95.219c-0,-52.593 42.656,-95.218 95.25,-95.218c52.562,-0 95.218,42.625 95.218,95.218Z" style="fill:#575b5c;fill-rule:nonzero;"/></svg>