<?xml version="1.0" encoding="UTF-8" standalone="no"?><!DOCTYPE svg PUBLIC "-//W3C//DTD SVG 1.1//EN" "http://www.w3.org/Graphics/SVG/1.1/DTD/svg11.dtd"><svg width="100%" height="100%" viewBox="0 0 500 500" version="1.1" xmlns="http://www.w3.org/2000/svg" xmlns:xlink="http://www.w3.org/1999/xlink" xml:space="preserve" xmlns:serif="http://www.serif.com/" style="fill-rule:evenodd;clip-rule:evenodd;stroke-linejoin:round;stroke-miterlimit:2;"><g><path d="M107.464,384.262c-0,0 -54.621,-38.896 -70.346,-105.103c-15.724,-66.207 8.276,-146.483 53.793,-187.034c45.518,-40.552 127.449,-13.242 163.863,20.689l36.413,33.931c0,-0 34.759,19.034 80.277,17.379c45.517,-1.655 86.068,60.414 96.827,109.242c10.758,48.827 -14.897,113.378 -14.897,113.378l-345.93,-2.482Z" style="fill:#cce7f8;fill-rule:nonzero;"/><path d="M76.428,390.135c-11.212,-8.122 -34.367,-28.743 -41.793,-64.632c-3.081,-14.894 -1.062,-29.392 3.311,-43.02c10.939,41.986 37.315,72.595 54.25,88.745l-15.768,-0l0,18.907Zm383.121,-18.907l-0.824,-0c4.028,-12.982 9.206,-32.7 11.281,-53.664c1.225,10.927 0.202,22.26 -3.371,35.25c-1.988,7.231 -4.451,13.318 -7.086,18.414Zm-15.36,-155.507c-18.079,-28.776 -43.545,-51.629 -70.94,-51.629c-0.593,0 -1.191,0.011 -1.785,0.032c-1.898,0.069 -3.773,0.102 -5.631,0.102c-42.721,0 -74.646,-17.481 -74.646,-17.481l-36.413,-33.931c-1.974,-1.839 -4.084,-3.662 -6.312,-5.452c20.407,-10.556 44.588,-33.138 79.809,-33.138c4.807,-0 9.818,0.42 15.055,1.349c51.309,9.104 100.965,36.413 103.448,96c0.843,20.246 -0.797,33.804 -2.585,44.148Z" style="fill:#cce6f8;fill-rule:nonzero;"/><path d="M458.725,371.228l-71.367,-0c6.931,-18.422 14.645,-44.348 12.367,-63.932c-3.946,-33.93 -22.891,-66.206 -61.571,-91.034c-14.658,-9.409 -37.704,-16.322 -62.782,-17.811c1.531,-9.345 1.599,-19.198 1.126,-24.396c-0.827,-9.103 -5.172,-16.552 -5.172,-16.552c-0,-0 -8.169,-4.633 -18.611,-4.633c-3.16,-0 -6.529,0.425 -9.941,1.53c-14.69,4.758 -19.862,27.517 -18.207,39.517c0.472,3.42 1.326,6.359 2.457,8.941c-25.284,6.577 -48.559,20.532 -63.321,44.852c-21.674,35.709 -20.298,73.233 -14.481,99.765l0,23.753l-57.026,-0c-16.935,-16.15 -43.311,-46.759 -54.25,-88.745c9.721,-30.29 31.077,-56.289 33.931,-72.842c4.138,-24 -4.966,-53.793 33.104,-76.965c38.068,-23.173 105.931,-14.897 131.586,-20.69c3.852,-0.87 7.797,-2.504 11.895,-4.624c2.228,1.79 4.338,3.613 6.312,5.452l36.413,33.931c0,-0 31.925,17.481 74.646,17.481c1.858,0 3.733,-0.033 5.631,-0.102c0.594,-0.021 1.192,-0.032 1.785,-0.032c27.395,0 52.861,22.853 70.94,51.629c-3.473,20.098 -7.499,28.06 5.067,49.369c11.566,19.611 18.854,35.555 20.75,52.474c-2.075,20.964 -7.253,40.682 -11.281,53.664Z" style="fill:#aad1ef;fill-rule:nonzero;"/><path d="M387.358,371.228l-69.486,-0c1.156,-4.16 3.936,-19.448 3.936,-19.448c0,-0 -23.586,-20.207 -24.827,-23.518c-0.828,-2.207 -0.414,-43.103 -3.932,-61.931c-3.517,-18.828 -8.068,-22.621 -17.585,-27.31c-9.836,-4.847 -24.415,-9.38 -24.415,-9.38c-0,-0 2.897,6.69 5.586,22.414c2.69,15.725 5.173,42.207 5.794,60.414c0.563,16.508 0.955,52.234 1.024,58.759l-29.257,-0c0.497,-4.671 2.45,-23.662 1.543,-25.655c-0.399,-0.88 -10.055,-1.388 -21.758,-1.682l0,-74.663c0,-0 -11.901,-0.831 -24.852,-0.831c-12.087,0 -25.089,0.724 -30.183,3.52c-10.551,5.793 -9.724,25.863 -9.724,25.863l0,49.695c-5.817,-26.532 -7.193,-64.056 14.481,-99.765c14.762,-24.32 38.037,-38.275 63.321,-44.852c0.113,0.257 0.228,0.511 0.346,0.761c-0.83,6.598 -2.463,18.941 -3.217,20.298l-1.034,1.862l-5.173,3.518c-0,-0 9.931,14.069 22.138,16.344c1.658,0.31 3.071,0.443 4.276,0.443c7.669,-0 6.896,-5.408 6.896,-5.408l-1.862,-3.931l1.624,-14.068c1.273,0.197 2.567,0.304 3.857,0.304c5.362,-0 10.664,-1.832 14.174,-6.512c3.196,-4.261 5.173,-10.996 6.323,-18.018c25.078,1.489 48.124,8.402 62.782,17.811c38.68,24.828 57.625,57.104 61.571,91.034c2.278,19.584 -5.436,45.51 -12.367,63.932Z" style="fill:#8dbfe7;fill-rule:nonzero;"/><path d="M434.464,266.4l-44.622,-0c-2.76,-0 -5,-2.239 -5,-5l0,-22.276c0,-2.761 2.24,-5 5,-5l44.622,-0c2.761,-0 5,2.239 5,5l-0,22.276c-0,2.761 -2.239,5 -5,5Z" style="fill:#0c7399;fill-rule:nonzero;"/><path d="M412.153,279.021l7.071,-16.759l-14.142,-0l7.071,16.759Z" style="fill:#0c7399;fill-rule:nonzero;"/><path d="M411.984,244.72l12.773,0l-0,1.869l6.262,-3.611l-6.262,-3.61l-0,1.869l-12.773,-0l0,3.483Z" style="fill:#233f87;fill-rule:nonzero;"/><path d="M431.019,252.065l-12.773,0l0,-1.869l-6.262,3.61l6.262,3.61l0,-1.869l12.773,-0l0,-3.482Z" style="fill:#fff;fill-rule:nonzero;"/><path d="M404.144,255.35l-0.608,0.222c0,0 -1.895,-2.164 -2.879,-4.521c-0.984,-2.356 -1.018,-5.234 -1.018,-5.234l0.445,-0.186l-2.702,-6.464c-0.481,0.376 -0.94,0.86 -1.311,1.487c-1.528,2.583 -1.377,6.547 0.161,10.42c1.537,3.872 3.181,7.326 6.181,9.498c1.77,1.282 3.287,1.506 4.465,1.32l-2.734,-6.542Z" style="fill:#233f87;fill-rule:nonzero;"/><path d="M406.084,254.589l-0.84,0.305l2.764,6.618c0.313,-0.102 0.593,-0.228 0.836,-0.361c0.714,-0.39 1.028,-1.25 0.727,-2.006l-1.444,-3.639c-0.321,-0.807 -1.226,-1.215 -2.043,-0.917Z" style="fill:#233f87;fill-rule:nonzero;"/><path d="M399.494,238.034c-0.34,0.122 -0.71,0.288 -1.082,0.507l2.758,6.602l0.928,-0.388c0.806,-0.336 1.196,-1.254 0.878,-2.067l-1.45,-3.722c-0.314,-0.808 -1.216,-1.227 -2.032,-0.932Z" style="fill:#233f87;fill-rule:nonzero;"/><path d="M149.222,372.262l0,-74.482c0,-0 -0.827,-20.07 9.724,-25.863c10.552,-5.793 55.035,-2.689 55.035,-2.689l0,103.034l-64.759,0Z" style="fill:#1b79bf;fill-rule:nonzero;"/><path d="M227.877,199.503c-0,-0 -2.689,22.552 -3.724,24.414l-1.034,1.862l-5.173,3.518c-0,-0 9.931,14.069 22.138,16.344c12.207,2.276 11.172,-4.965 11.172,-4.965l-1.862,-3.931l2.484,-21.518c0,-0 -22.139,-10.137 -24.001,-15.724Z" style="fill:#f6928b;fill-rule:nonzero;"/><path d="M211.532,231.159l8.069,-3.518c-0,-0 5.173,8.483 17.173,13.449c12,4.965 12.207,2.069 12.827,-0c0.621,-2.069 -0.207,-4.345 -0.207,-4.345l0.888,-7.244l4.799,1.599l16.658,134.748l-42.827,2.069l-17.38,-136.758Z" style="fill:#fff;fill-rule:nonzero;"/><path d="M251.049,229.641c-0,-0 2.897,6.69 5.586,22.414c2.69,15.725 5.173,42.207 5.794,60.414c0.62,18.207 1.035,59.793 1.035,59.793l54,0c0.62,0 4.344,-20.482 4.344,-20.482c0,-0 -23.586,-20.207 -24.827,-23.518c-0.828,-2.207 -0.414,-43.103 -3.932,-61.931c-3.517,-18.828 -8.068,-22.621 -17.585,-27.31c-9.836,-4.847 -24.415,-9.38 -24.415,-9.38Z" style="fill:#233f87;fill-rule:nonzero;"/><path d="M279.187,348.555c-0.276,-0 -0.5,-0.224 -0.5,-0.5c0,-1.479 -0.263,-22.496 -0.516,-42.821c-0.255,-20.328 -0.518,-41.348 -0.518,-42.834c0,-0.277 0.224,-0.5 0.5,-0.5c0.276,-0 0.5,0.223 0.5,0.5c0,1.479 0.263,22.496 0.517,42.821c0.254,20.328 0.517,41.348 0.517,42.834c0,0.276 -0.223,0.5 -0.5,0.5Z" style="fill:#7a90b8;fill-rule:nonzero;"/><path d="M171.601,343.503l-0.413,28.759l62.896,0c-0,0 2.69,-24.414 1.655,-26.689c-1.034,-2.277 -64.138,-2.07 -64.138,-2.07Z" style="fill:#233f87;fill-rule:nonzero;"/><path d="M250.401,228.023c-2.731,-1.002 -6.237,-2.66 -8.8,-4.726c-4.49,-3.62 -7.366,-7.932 -9.23,-12.162c2.075,2.359 4.371,4.4 6.678,6.368c2.922,2.492 7.306,4.449 11.969,5.174l-0.617,5.346Z" style="fill:#97616c;fill-rule:nonzero;"/><path d="M271.326,157.503c-0,-0 4.345,7.449 5.172,16.552c0.828,9.104 -0,32.483 -7.449,42.414c-7.448,9.931 -22.965,7.034 -30,1.034c-6.455,-5.506 -12.827,-11.586 -14.482,-23.586c-1.655,-12 3.517,-34.759 18.207,-39.517c14.689,-4.759 28.552,3.103 28.552,3.103Z" style="fill:#f6928b;fill-rule:nonzero;"/><path d="M289.99,359.255c-0,0 -0.73,0 -1.84,-0.03c-0.26,-0.01 -0.55,0 -0.851,-0.01c-1.069,-0.03 -2.369,-0.059 -3.679,-0.099c-0.29,-0.011 -0.59,-0.021 -0.88,-0.031c-1.3,-0.03 -2.41,0.13 -3.45,0.071l-0.03,0c-0.22,-0.011 -0.54,0.019 -0.8,0.029c-0.13,0.011 -0.25,0.02 -0.33,0.011c-0.6,-0.111 -0.72,-0.25 -1.37,-0.54c-0.84,-0.381 -12.211,-2.92 -21.461,-2.861c-9.239,0.04 -17.529,0.67 -18.879,-0.46c-1.36,-1.15 -2.18,-12.759 5.71,-13.52l9.7,3.68c0,-0 22.15,-2.629 30.27,3.36c8.14,5.99 7.89,10.4 7.89,10.4Z" style="fill:#f6928b;fill-rule:nonzero;"/><path d="M279.26,359.156c-0.22,-0.011 -0.54,0.019 -0.8,0.029c-0.2,-0.319 -0.621,-0.9 -0.85,-1.14c-2.5,-2.55 -8.54,-4.2 -10.73,-4.73c-0.2,-0.05 -0.331,-0.25 -0.28,-0.449c0.04,-0.201 0.25,-0.321 0.46,-0.281c3.19,0.77 9.96,2.741 11.88,5.97c0.06,0.09 0.22,0.4 0.32,0.601Z" style="fill:#233f87;fill-rule:nonzero;"/><path d="M283.623,359.115c-0.29,-0.007 -0.59,-0.015 -0.88,-0.032c-2.73,-4.978 -7.196,-6.407 -12.715,-8.182l-0.327,-0.109c-0.189,-0.064 -0.304,-0.277 -0.238,-0.475c0.064,-0.189 0.267,-0.304 0.475,-0.239l0.317,0.108c5.836,1.873 10.532,3.378 13.368,8.929Z" style="fill:#233f87;fill-rule:nonzero;"/><path d="M288.151,359.225c-0.26,-0.007 -0.55,-0.004 -0.851,-0.011c-1.655,-3.481 -7.134,-9.306 -14.383,-10.664c-0.209,-0.035 -0.345,-0.228 -0.31,-0.437c0.045,-0.2 0.238,-0.334 0.438,-0.299c7.467,1.402 13.491,7.501 15.106,11.411Z" style="fill:#233f87;fill-rule:nonzero;"/><path d="M229.532,183.676c-0,-0 4.552,-2.173 7.759,-8.276c3.207,-6.103 2.793,-11.586 2.793,-11.586c-0,-0 5.793,-0.931 14.483,1.655c8.689,2.586 19.034,6.104 27.724,1.138c8.69,-4.966 8.69,-12.931 4.448,-16.241c-4.75,-3.708 -14.172,-1.449 -14.172,-1.449c-0,-0 3.62,-3.517 1.655,-5.586c-1.966,-2.069 -9.103,0.621 -9.103,0.621c-0,-0 -8.691,-6.931 -25.138,-6.104c-16.449,0.828 -24.311,12.311 -25.242,25.138c-0.931,12.828 3.725,25.655 3.725,25.655l11.068,-4.965Z" style="fill:#233f87;fill-rule:nonzero;"/><path d="M263.22,204.778c-0.19,0 -0.389,-0.005 -0.6,-0.014c-1.218,-0.047 -2.749,-0.248 -3.795,-0.902c-0.308,-0.194 -0.191,-0.699 0.188,-0.699l0.002,-0c0.65,0.003 1.284,0.199 1.934,0.248c0.603,0.044 1.213,0.07 1.817,0.098c0.351,0.016 0.767,0.048 1.191,0.048c0.635,0 1.284,-0.072 1.746,-0.378c2.02,-1.337 -1.907,-2.987 -2.738,-3.599c-1.739,-1.281 -1.39,-3.493 -1.207,-5.39c0.235,-2.439 0.212,-5.107 1.144,-7.405c0.067,-0.164 0.239,-0.251 0.398,-0.251c0.18,-0 0.345,0.111 0.324,0.349c-0.263,2.928 -0.94,5.818 -1.124,8.76c-0.078,1.224 -0.168,2.544 0.927,3.328c0.79,0.566 1.75,0.836 2.533,1.416c0.679,0.504 1.356,1.313 1.235,2.215c-0.106,0.802 -0.76,1.275 -1.435,1.61c-0.906,0.45 -1.628,0.566 -2.54,0.566Z" style="fill:#97616c;fill-rule:nonzero;"/><path d="M271.359,193.665c-0.309,1.744 -1.577,2.977 -2.834,2.755c-1.256,-0.222 -2.024,-1.817 -1.716,-3.56c0.309,-1.744 1.577,-2.978 2.834,-2.756c1.256,0.222 2.025,1.817 1.716,3.561Z" style="fill:#233f87;fill-rule:nonzero;"/><path d="M255.528,192.283c-0.28,1.882 -1.605,3.243 -2.961,3.042c-1.356,-0.202 -2.228,-1.891 -1.948,-3.772c0.28,-1.882 1.606,-3.244 2.962,-3.042c1.355,0.202 2.227,1.891 1.947,3.772Z" style="fill:#233f87;fill-rule:nonzero;"/><path d="M267.673,186.476c0.967,0.163 1.943,-0.004 2.918,0.065c0.235,0.016 0.466,0.051 0.701,0.074c0.166,0.015 -0.311,-0.05 -0.079,-0.012l0.149,0.025c0.122,0.022 0.244,0.047 0.364,0.076c0.208,0.051 0.409,0.129 0.617,0.175c0.189,0.041 0.399,0.085 0.589,0.076c0.107,-0.014 0.212,-0.028 0.319,-0.043l-0.201,0.037l0.396,-0.043c0.555,-0.13 0.897,-0.772 0.742,-1.308c-0.045,-0.154 -0.113,-0.294 -0.211,-0.421l-0.127,-0.161l0.117,0.134l-0.128,-0.17c-0.055,-0.092 -0.128,-0.166 -0.221,-0.221l-0.234,-0.178c-0.256,-0.178 -0.593,-0.282 -0.897,-0.36c-0.577,-0.149 -1.183,-0.225 -1.777,-0.228c-0.592,-0.003 -1.176,0.059 -1.761,0.14c-0.516,0.071 -1.09,0.247 -1.509,0.558c-0.323,0.241 -0.522,0.55 -0.466,0.973c0.047,0.35 0.323,0.748 0.699,0.812Z" style="fill:#233f87;fill-rule:nonzero;"/><path d="M256.638,183.708c-0.132,-0.078 -0.266,-0.146 -0.404,-0.209c-0.117,-0.053 -0.437,-0.221 -0.195,-0.089l-0.266,-0.142c-0.401,-0.202 -0.817,-0.337 -1.25,-0.447c-0.944,-0.241 -1.938,-0.302 -2.906,-0.2c-1.033,0.109 -1.976,0.359 -2.871,0.898c-0.126,0.077 -0.256,0.151 -0.361,0.256c-0.071,0.09 -0.141,0.181 -0.209,0.273l0.059,-0.09c-0.276,0.193 -0.437,0.509 -0.434,0.843c0.002,0.321 0.169,0.589 0.448,0.744c0.337,0.188 0.657,0.098 1.005,0.009l-0.524,-0c0.287,0.044 0.489,0.056 0.779,-0.008c0.011,-0.002 0.279,-0.069 0.102,-0.032c-0.166,0.036 0.282,-0.034 0.331,-0.041c0.057,-0.008 0.368,-0.039 0.039,-0.007l0.182,-0.021c0.155,-0.019 0.312,-0.039 0.468,-0.051c0.683,-0.055 1.364,-0.086 2.048,-0.108c0.635,-0.021 1.282,-0.026 1.916,0.001c0.273,0.012 0.543,0.021 0.816,0.029c0.152,0.004 0.088,0.028 -0.017,-0.005l0.17,0.044c0.113,0.031 0.224,0.068 0.333,0.11c0.441,0.168 0.971,-0.151 1.134,-0.557c0.178,-0.442 0.027,-0.95 -0.393,-1.2Z" style="fill:#233f87;fill-rule:nonzero;"/><path d="M261.549,212.469c0.951,-1.909 2.678,-3.308 4.675,-4.208c-1.733,-0.176 -9.918,-0.934 -11.983,0.239c-2.314,1.313 0.428,6.588 5.212,6.853c0.503,0.028 0.96,-0.013 1.394,-0.081c0.04,-0.963 0.262,-1.916 0.702,-2.803Z" style="fill:#233f87;fill-rule:nonzero;"/><path d="M223.739,201.366c-0,-0 0.828,3.207 5.586,6.931c4.759,3.724 11.656,6.448 11.656,6.448l0.551,-2.414c-0,-0 -7.138,-3.104 -10.448,-6.517c-3.31,-3.414 -3.724,-5.276 -3.724,-5.276l-3.621,0.828Z" style="fill:#d2dbe8;fill-rule:nonzero;"/><path d="M242.36,210.545c3.83,-0.178 5.967,2.85 6.234,4.809c0.267,1.96 -1.573,4.157 -5.878,2.227c-5.347,-2.397 -4.185,-6.858 -0.356,-7.036Z" style="fill:#233f87;fill-rule:nonzero;"/><path d="M226.739,177.676c-0,-0 1.654,-11.89 9.621,-19.966c15.207,-15.413 28.138,-14.483 28.138,-14.483c-0,-0 -0.104,-2.172 -4.966,-3.827c-4.565,-1.554 -6.62,-0.724 -6.62,-0.724c0,-0 -12.518,1.034 -23.069,12.724c-10.552,11.69 -11.69,26.586 -11.69,26.586l8.586,-0.31Z" style="fill:#d2dbe8;fill-rule:nonzero;"/><path d="M225.601,176.227c-9.962,-1.688 -15.517,6.104 -15.931,13.966c-0.414,7.862 5.299,13.839 12.931,13.241c17.173,-1.344 15.207,-25.137 3,-27.207Z" style="fill:#fff;fill-rule:nonzero;"/><path d="M220.641,195.794c-2.63,0 -4.853,-1.322 -6.123,-3.649c-1.361,-2.493 -1.247,-5.562 0.291,-7.819c0.117,-0.169 0.349,-0.214 0.521,-0.098c0.171,0.117 0.216,0.35 0.099,0.521c-1.381,2.026 -1.48,4.788 -0.253,7.036c1.165,2.134 3.221,3.343 5.656,3.256c2.276,-0.061 4.205,-1.102 5.432,-2.932c1.4,-2.089 1.722,-4.973 0.82,-7.347c-0.895,-2.356 -3.349,-3.962 -5.58,-3.67c-0.202,0.026 -0.394,-0.117 -0.421,-0.323c-0.028,-0.205 0.116,-0.393 0.322,-0.421c2.61,-0.348 5.351,1.436 6.38,4.147c0.986,2.595 0.633,5.747 -0.898,8.031c-1.366,2.038 -3.509,3.197 -6.035,3.265l-0.211,0.003Z" style="fill:#778db7;fill-rule:nonzero;"/><path d="M213.394,228.262c-0,-0 -30.206,7.448 -40.758,19.448c-10.552,12 -15.517,71.173 -15.724,82.138c-0.207,10.966 7.448,15.518 12,18.621c4.552,3.104 24.62,8.69 40.758,9.518c16.138,0.827 31.449,-0 31.449,-0c0,-0 -0.052,-3.518 2.43,-8.691c2.303,-4.797 5.225,-5.793 5.225,-5.793l-13.862,-4.965c0,-0 -2.427,-43.494 -6.207,-64.551c-4.345,-24.208 -15.311,-45.725 -15.311,-45.725Z" style="fill:#233f87;fill-rule:nonzero;"/><path d="M263.464,331.589l-0.203,-0.043c-0.253,-0.112 -0.367,-0.407 -0.255,-0.659c2.831,-6.386 5.763,-18.922 7.415,-27.717l0.135,-0.711c0.5,-2.587 1.122,-5.804 -0.119,-8.025c-0.633,-1.133 -2.062,-3.591 -3.437,-5.954c-1.427,-2.453 -2.775,-4.771 -3.149,-5.462c-0.728,-1.351 1.566,-4.959 4.887,-9.908c0.896,-1.338 1.672,-2.493 2.124,-3.275c1.184,-2.048 0.395,-3.924 -0.517,-6.096l-0.31,-0.748c-0.827,-2.031 -1.768,-4.065 -2.676,-6.031c-0.371,-0.804 -0.743,-1.609 -1.109,-2.418c-0.486,-1.069 -0.973,-2.157 -1.467,-3.257c-2.924,-6.518 -5.947,-13.257 -9.819,-19.768c-0.141,-0.237 -0.063,-0.544 0.174,-0.685c0.238,-0.14 0.544,-0.063 0.686,0.175c3.9,6.559 6.935,13.325 9.871,19.868c0.493,1.1 0.98,2.186 1.465,3.255c0.366,0.806 0.736,1.609 1.106,2.411c0.914,1.976 1.859,4.022 2.695,6.073l0.306,0.738c0.931,2.215 1.893,4.506 0.46,6.983c-0.469,0.812 -1.252,1.98 -2.159,3.331c-1.731,2.581 -5.335,7.953 -4.837,8.876c0.366,0.678 1.71,2.989 3.133,5.435c1.378,2.369 2.811,4.833 3.446,5.969c1.42,2.54 0.759,5.957 0.229,8.703l-0.136,0.705c-0.602,3.203 -3.788,19.602 -7.482,27.937c-0.083,0.188 -0.266,0.298 -0.457,0.298Z" style="fill:#7a90b8;fill-rule:nonzero;"/><path d="M233.981,333.348c-0.129,0 -0.258,-0.049 -0.355,-0.147c-2.351,-2.37 -13.689,-22.001 -14.533,-25.693c-0.462,-2.021 0.698,-7.147 1.82,-12.105c0.869,-3.841 1.768,-7.813 1.512,-8.888c-0.382,-1.607 -3.281,-3.976 -6.085,-6.266c-3.387,-2.766 -6.889,-5.628 -7.567,-8.205c-0.771,-2.929 -0.112,-21.266 0.324,-33.399c0.157,-4.363 0.281,-7.809 0.28,-9.038c-0,-0.276 0.224,-0.5 0.5,-0.5c0.276,-0 0.5,0.223 0.5,0.499c0.001,1.248 -0.123,4.702 -0.281,9.075c-0.407,11.341 -1.089,30.321 -0.356,33.109c0.596,2.262 4.122,5.143 7.233,7.685c3.068,2.506 5.965,4.873 6.425,6.809c0.309,1.3 -0.534,5.026 -1.51,9.339c-1.046,4.623 -2.231,9.862 -1.82,11.662c0.828,3.62 11.959,22.884 14.268,25.21c0.194,0.197 0.193,0.513 -0.003,0.707c-0.098,0.097 -0.225,0.146 -0.352,0.146Z" style="fill:#7a90b8;fill-rule:nonzero;"/><path d="M193.326,324.762l-0.07,-0.005c-0.274,-0.039 -0.464,-0.292 -0.426,-0.565c0.367,-2.601 6.107,-54.401 6.37,-58.368c0.019,-0.277 0.257,-0.493 0.533,-0.466c0.275,0.018 0.483,0.257 0.465,0.532c-0.264,3.974 -6.01,55.838 -6.378,58.442c-0.035,0.249 -0.249,0.43 -0.494,0.43Z" style="fill:#7a90b8;fill-rule:nonzero;"/><path d="M234.498,338.83l-0.188,-0.036c-1.272,-0.515 -6.891,-2.411 -14.005,-4.809c-14.358,-4.843 -34.023,-11.474 -37.762,-13.417c-0.245,-0.127 -0.34,-0.429 -0.213,-0.674c0.127,-0.246 0.427,-0.344 0.674,-0.213c3.671,1.907 24.102,8.797 37.621,13.355c7.13,2.406 12.761,4.304 14.061,4.831c0.256,0.104 0.379,0.395 0.275,0.651c-0.079,0.194 -0.266,0.312 -0.463,0.312Z" style="fill:#7a90b8;fill-rule:nonzero;"/><path d="M227.593,359.456c-12.636,-0 -37.134,-2.278 -55.744,-8.86c-0.261,-0.093 -0.397,-0.378 -0.305,-0.639c0.091,-0.259 0.38,-0.396 0.638,-0.304c23.51,8.316 56.398,9.736 62.517,8.362c0.269,-0.058 0.536,0.11 0.597,0.379c0.061,0.269 -0.109,0.537 -0.378,0.598c-1.325,0.296 -3.886,0.464 -7.325,0.464Z" style="fill:#7a90b8;fill-rule:nonzero;"/><path d="M82.959,235.239c3.923,3.45 8.892,5.662 12.334,9.652c1.355,1.57 2.571,3.241 3.829,4.887c0.916,1.198 3.359,3.185 3.755,4.691c0.175,0.663 0.138,-0.235 -0.038,-0.9l-0.029,-0.083c-0.344,-3.049 -0.59,-6.11 -0.697,-9.177c-0.107,-3.059 0.084,-6.13 -0.108,-9.184c-0.27,-4.309 -1.615,-8.481 -5.138,-11.18c-1.721,-1.32 -3.933,-2.123 -5.516,-3.587c-1.502,-1.39 -0.899,-2.982 -0.016,-4.532c0.826,-1.451 1.828,-2.876 2.15,-4.546c0.366,-1.898 -0.347,-3.856 -1.31,-5.472c-2.048,-3.44 -6.593,-7.275 -10.896,-6.761c-3.588,0.429 -3.995,4.569 -3.944,7.453c0.05,2.804 0.327,5.599 0.354,8.405c0.028,2.882 -0.462,5.71 -0.503,8.579c-0.07,4.881 2.185,8.6 5.773,11.755Z" style="fill:#50a4db;fill-rule:nonzero;"/><path d="M119.409,280.021c1.092,-2.605 2.345,-5.04 3.886,-7.409c2.114,-3.25 4.459,-6.417 5.878,-10.057c1.45,-3.716 1.237,-7.69 1.379,-11.604c0.105,-2.875 0.96,-5.743 0.729,-8.626c-0.11,-1.383 -0.908,-3.62 -2.696,-3.391c-1.392,0.178 -2.219,1.904 -2.754,3.005c-0.934,1.922 -1.581,3.972 -2.275,5.988c-0.27,0.789 -0.529,1.592 -0.871,2.353c-0.199,0.443 -0.832,1.523 -1.429,1.376c-1.017,-0.251 -0.094,-4.402 0.057,-5.137c0.759,-3.692 1.902,-7.123 2.061,-10.922c0.23,-5.508 -0.198,-12.065 -5.585,-15.077c-1.409,-0.787 -3.193,-1.256 -4.531,-0.078c-1.32,1.161 -1.693,3.175 -1.889,4.832c-0.601,5.087 0.596,9.904 2.226,14.69c1.346,3.952 2.95,8.03 3.067,12.256c0.113,4.068 -2.004,7.673 -2.997,11.516c-1.583,6.124 -1.256,9.371 -1.263,11.354c-0.011,2.485 0.08,4.943 0.261,7.42c0.168,2.277 0.365,4.555 0.643,6.821c0.057,0.459 0.109,0.938 0.17,1.417c-0.875,-2.107 -1.181,-4.52 -1.906,-6.637c-1.287,-3.764 -2.783,-7.45 -4.019,-11.232c-1.021,-3.125 -1.985,-6.271 -3.334,-9.275c-1.264,-2.819 -2.791,-5.798 -5.15,-7.866c-1.426,-1.25 -3.155,-1.981 -5.061,-1.966c-1.22,0.009 -2.316,0.431 -3.481,0.739c-1.434,0.379 -2.561,0.248 -3.741,-0.658c-3.86,-2.968 -5.035,-8.289 -7.893,-12.047c-2.132,-2.803 -7.19,-7.581 -10.91,-4.524c-1.973,1.621 -2.517,4.754 -2.413,7.156c0.129,3.013 1.446,5.769 3.015,8.289c1.668,2.679 3.821,5.078 5.354,7.833c0.906,1.627 1.048,3.186 0.904,5.022c-0.136,1.729 -0.287,3.404 0.303,5.072c1.77,5.009 7.297,4.31 11.595,4.441c3.008,0.091 6.235,0.539 9.09,1.501c3.301,1.111 5.448,3.259 6.628,6.523c0.853,2.363 1.31,5.045 2.918,7.052c0.756,0.944 1.757,1.641 2.858,2.128c1.676,0.74 6.787,1.064 6.825,0.597c0.126,-1.563 0.867,-3.212 1.331,-4.695c0.87,-2.781 1.893,-5.494 3.02,-8.18Z" style="fill:#50a4db;fill-rule:nonzero;"/><path d="M143.14,279.077c-0.445,-2.864 -0.36,-6.02 -1.716,-8.65c-0.097,-0.188 -0.353,-0.236 -0.528,-0.139c-0.972,0.539 -1.012,2.109 -1.092,3.071c-0.131,1.596 -0.033,3.196 -0.23,4.788c-0.344,2.796 -0.99,5.678 -1.998,8.313c-1.139,2.982 -3.212,4.672 -6.222,5.603c-1.934,0.597 -3.831,1.118 -5.445,2.401c-1.446,1.15 -2.45,2.735 -3.195,4.404c-2.009,4.507 -2.966,9.545 -3.898,14.36c-0.627,3.242 -1.139,6.499 -1.926,9.709c-0.787,3.207 -1.632,6.398 -2.083,9.675c-0.076,0.165 -0.157,0.329 -0.227,0.496c-0.206,0.49 0.56,0.755 0.824,0.347c3.108,-4.783 6.893,-9.076 12.057,-11.71c2.332,-1.189 5.43,-1.436 7.375,-3.305c1.48,-1.422 1.683,-3.592 1.462,-5.526c-0.291,-2.541 -1.508,-4.632 -2.777,-6.797c-0.696,-1.19 -1.519,-2.464 -1.238,-3.91c0.265,-1.364 1.399,-2.366 2.524,-3.065c2.147,-1.333 4.657,-1.933 6.415,-3.854c1.633,-1.784 2.538,-4.004 2.719,-6.408c0.241,-3.204 -0.311,-6.639 -0.801,-9.803Z" style="fill:#50a4db;fill-rule:nonzero;"/><path d="M100.774,295.59c-2.742,-3.532 -6.052,-6.578 -9.775,-9.051c-1.987,-1.319 -6.674,-3.922 -7.619,-0.03c-0.555,2.281 1.677,4.525 3.147,5.955c2.208,2.149 4.762,4.003 6.625,6.48c-2.307,0.735 -4.717,0.879 -6.722,2.473c-2.372,1.889 -3.437,5.535 -1.084,7.848c1.146,1.127 2.667,1.819 4.095,2.511c1.856,0.898 3.746,1.713 5.648,2.508c4.108,1.715 8.268,3.456 11.771,6.267c3.57,2.864 6.927,7.707 7.21,12.38c0.028,0.446 -0.142,0.04 0.124,-0.164c0.146,0.131 0.636,-0.104 0.633,-0.364c-0.073,-6.935 -1.319,-13.537 -4.153,-19.889c-2.626,-5.889 -5.94,-11.822 -9.9,-16.924Z" style="fill:#50a4db;fill-rule:nonzero;"/><path d="M91.303,231.036c1.513,3.14 3.095,6.207 4.774,9.268c1.616,2.947 3.231,5.872 4.44,9.016c1.489,3.871 3.05,7.684 4.624,11.521c1.636,3.988 3.098,8.052 4.271,12.2c2.29,8.099 3.991,16.435 4.832,24.811c0.428,4.26 0.622,8.545 0.505,12.824c-0.092,3.345 -0.469,6.653 -0.783,9.981c-0.327,3.461 -0.563,6.964 -0.273,10.438c0.242,2.904 0.704,6.356 2.958,8.428c0.44,0.406 1.065,-0.1 0.809,-0.624c-2.678,-5.492 -2.528,-11.48 -2.016,-17.435c0.283,-3.288 0.675,-6.558 0.786,-9.858c0.141,-4.199 -0.024,-8.406 -0.419,-12.588c-0.777,-8.221 -2.416,-16.344 -4.542,-24.316c-1.091,-4.087 -2.44,-8.095 -3.994,-12.031c-1.559,-3.943 -3.358,-7.778 -4.868,-11.741c-2.731,-7.167 -6.892,-13.522 -10.578,-20.201c-0.191,-0.347 -0.694,-0.042 -0.526,0.307Z" style="fill:#3b5e9a;fill-rule:nonzero;"/><path d="M114.367,289.641c0.433,-5.219 0.895,-10.245 2.655,-15.224c0.82,-2.322 1.815,-4.58 2.607,-6.911c0.654,-1.927 1.633,-4.569 1.129,-6.617c-0.056,-0.229 -0.389,-0.217 -0.452,0c-0.337,1.17 -0.3,2.453 -0.542,3.652c-0.237,1.167 -0.552,2.315 -0.915,3.449c-0.772,2.412 -1.781,4.723 -2.655,7.097c-1.688,4.586 -2.555,9.666 -2.186,14.554c0.017,0.231 0.34,0.231 0.359,0Z" style="fill:#3b5e9a;fill-rule:nonzero;"/><path d="M84.123,259.647c2.072,5.005 8.299,5.294 12.835,6.415c3.24,0.8 5.631,2.961 7.348,5.766c1.88,3.069 3.151,6.672 4.196,10.097l0.061,-0.016c-1.269,-5.999 -3.087,-13.222 -9.271,-16.013c-4.956,-2.237 -11.486,-1.113 -14.655,-6.466c-0.156,-0.263 -0.64,-0.086 -0.514,0.217Z" style="fill:#3b5e9a;fill-rule:nonzero;"/><path d="M111.092,288.849c0.247,0.333 0.473,0.681 0.727,1.007c0.126,0.162 0.254,0.314 0.413,0.444c0.163,0.133 0.353,0.298 0.576,0.294c0.093,-0.002 0.158,-0.105 0.108,-0.188c-0.102,-0.167 -0.287,-0.268 -0.431,-0.395c-0.149,-0.131 -0.3,-0.26 -0.444,-0.395c-0.29,-0.274 -0.555,-0.572 -0.838,-0.852l-0.111,0.085Z" style="fill:#3b5e9a;fill-rule:nonzero;"/><path d="M98.137,304.726c3.574,2.933 6.871,6.404 9.49,10.207c1.252,1.818 2.408,3.742 3.456,5.684c1.145,2.122 1.896,4.364 2.793,6.589c0.068,0.169 0.377,0.173 0.353,-0.047c-0.496,-4.707 -3.477,-8.742 -5.865,-12.658c-1.24,-2.034 -2.782,-3.674 -4.44,-5.37c-1.712,-1.752 -3.457,-3.409 -5.465,-4.822c-0.244,-0.172 -0.556,0.225 -0.322,0.417Z" style="fill:#3b5e9a;fill-rule:nonzero;"/><path d="M126.593,299.185c-1.721,0.975 -1.777,3.694 -1.811,5.43c-0.065,3.335 0.761,6.467 -0.703,9.645c-1.322,2.871 -3.434,5.268 -5.094,7.934c-1.555,2.495 -3.088,5.685 -3.054,8.689c0.002,0.173 0.268,0.272 0.349,0.095c0.626,-1.364 0.851,-2.913 1.3,-4.342c0.504,-1.607 1.208,-3.066 2.12,-4.479c1.598,-2.476 3.559,-4.73 4.856,-7.393c1.366,-2.807 1.166,-5.587 1.075,-8.628c-0.057,-1.939 -0.251,-5.055 1.312,-6.497c0.246,-0.226 -0.068,-0.613 -0.35,-0.454Z" style="fill:#3b5e9a;fill-rule:nonzero;"/><path d="M115.085,331.193c-6.933,-0.096 -20.14,-0.172 -20.14,-0.172l3.269,24.262c0.734,5.458 5.394,9.531 10.901,9.531l11.938,-0c5.508,-0 10.167,-4.073 10.902,-9.531l3.268,-24.262c0,-0 -13.206,0.076 -20.138,0.172Z" style="fill:#fff;fill-rule:nonzero;"/><path d="M450.188,286.607l-39.553,78.344l-115.309,0.829l35.586,-80.277l119.276,1.104Z" style="fill:#f2f5f8;fill-rule:nonzero;"/><path d="M218.796,365.291l0.022,-6.27l74.646,-0l34.344,-75.311l119.379,0l3.001,2.897l-116.621,-0l-35.69,78.621c0,-0 -79.081,-0.143 -79.081,0.063Z" style="fill:#cdd6e6;fill-rule:nonzero;"/><path d="M390.31,329.839c-1.303,3.908 -8.373,6.926 -15.792,6.74c-7.419,-0.185 -12.377,-3.503 -11.075,-7.412c1.303,-3.907 8.373,-6.925 15.792,-6.739c7.419,0.186 12.378,3.504 11.075,7.411Z" style="fill:#cdd6e6;fill-rule:nonzero;"/><path d="M297.878,365.728l-0.207,-0.045c-0.251,-0.114 -0.363,-0.41 -0.249,-0.662l35.823,-78.914l116.943,-0c0.277,-0 0.5,0.223 0.5,0.5c-0,0.276 -0.223,0.5 -0.5,0.5l-116.299,-0l-35.556,78.328c-0.083,0.183 -0.266,0.293 -0.455,0.293Z" style="fill:#fff;fill-rule:nonzero;"/><rect x="76.428" y="371.228" width="137.173" height="30.413" style="fill:#516fa4;fill-rule:nonzero;"/><rect x="212.817" y="371.228" width="246.8" height="30.413" style="fill:#7188b4;fill-rule:nonzero;"/><rect x="76.428" y="371.228" width="136.389" height="5.586" style="fill:#3d578e;fill-rule:nonzero;"/><path d="M459.617,376.814l-246.8,0l0,-5.586l246.8,-0l0,5.586Z" style="fill:#546d9d;fill-rule:nonzero;"/><rect x="69.808" y="365.228" width="149.793" height="7.448" style="fill:#667fae;fill-rule:nonzero;"/><rect x="218.818" y="365.228" width="246.799" height="7.448" style="fill:#8da1c3;fill-rule:nonzero;"/><path d="M178.969,205.657l-48.424,0c-2.997,0 -5.426,-2.429 -5.426,-5.426l0,-24.175c0,-2.996 2.429,-5.426 5.426,-5.426l48.424,0c2.996,0 5.426,2.43 5.426,5.426l0,24.175c0,2.997 -2.43,5.426 -5.426,5.426Z" style="fill:#fff;fill-rule:nonzero;"/><path d="M198.195,188.144l-18.187,-7.674l-0,15.348l18.187,-7.674Z" style="fill:#fff;fill-rule:nonzero;"/><path d="M146.619,188.144c0,1.85 -1.5,3.349 -3.35,3.349c-1.85,0 -3.35,-1.499 -3.35,-3.349c0,-1.851 1.5,-3.35 3.35,-3.35c1.85,0 3.35,1.499 3.35,3.35Z" style="fill:#233f87;fill-rule:nonzero;"/><path d="M158.107,188.144c-0,1.85 -1.5,3.349 -3.35,3.349c-1.85,0 -3.35,-1.499 -3.35,-3.349c-0,-1.851 1.5,-3.35 3.35,-3.35c1.85,0 3.35,1.499 3.35,3.35Z" style="fill:#233f87;fill-rule:nonzero;"/><path d="M169.595,188.144c0,1.85 -1.5,3.349 -3.35,3.349c-1.85,0 -3.35,-1.499 -3.35,-3.349c0,-1.851 1.5,-3.35 3.35,-3.35c1.85,0 3.35,1.499 3.35,3.35Z" style="fill:#233f87;fill-rule:nonzero;"/><path d="M425.498,96.262l-111.793,-0c-7.18,-0 -13,5.82 -13,13l-0,53.035c-0,7.179 5.82,13 13,13l10.02,-0c0.282,4.807 -0.407,11.959 -4.422,21.103c12.916,-5.958 20.354,-14.904 24.239,-21.103l81.956,-0c7.179,-0 13,-5.821 13,-13l-0,-53.035c-0,-7.18 -5.821,-13 -13,-13Z" style="fill:#0c7399;fill-rule:nonzero;"/><path d="M377.808,121.538l-55.448,-0c-1.523,-0 -2.759,-1.235 -2.759,-2.758c0,-1.524 1.236,-2.759 2.759,-2.759l55.448,-0c1.524,-0 2.759,1.235 2.759,2.759c-0,1.523 -1.235,2.758 -2.759,2.758Z" style="fill:#fff;fill-rule:nonzero;"/><path d="M417.567,137.607l-96.276,-0c-0.933,-0 -1.69,-0.756 -1.69,-1.689c0,-0.933 0.757,-1.69 1.69,-1.69l96.276,-0c0.933,-0 1.69,0.757 1.69,1.69c-0,0.933 -0.757,1.689 -1.69,1.689Z" style="fill:#bddff6;fill-rule:nonzero;"/><path d="M417.567,146.987l-96.276,-0c-0.933,-0 -1.69,-0.757 -1.69,-1.69c0,-0.933 0.757,-1.69 1.69,-1.69l96.276,-0c0.933,-0 1.69,0.757 1.69,1.69c-0,0.933 -0.757,1.69 -1.69,1.69Z" style="fill:#bddff6;fill-rule:nonzero;"/><path d="M396.565,156.987l-75.274,-0c-0.933,-0 -1.69,-0.757 -1.69,-1.69c0,-0.933 0.757,-1.69 1.69,-1.69l75.274,-0c0.934,-0 1.691,0.757 1.691,1.69c0,0.933 -0.757,1.69 -1.691,1.69Z" style="fill:#bddff6;fill-rule:nonzero;"/><path d="M416.811,121.538l-26.451,-0c-1.523,-0 -2.759,-1.235 -2.759,-2.758c0,-1.524 1.236,-2.759 2.759,-2.759l26.451,-0c1.524,-0 2.758,1.235 2.758,2.759c0,1.523 -1.234,2.758 -2.758,2.758Z" style="fill:#fff;fill-rule:nonzero;"/><path d="M350.144,243.504l-30.034,-0c-1.105,-0 -2,-0.896 -2,-2l-0,-20.518c-0,-1.104 0.895,-2 2,-2l30.034,-0c1.105,-0 2,0.896 2,2l0,20.518c0,1.104 -0.895,2 -2,2Z" style="fill:#fff;fill-rule:nonzero;"/><path d="M335.335,234.909c-0.169,-0 -0.339,-0.058 -0.478,-0.172l-16.346,-13.501c-0.319,-0.264 -0.364,-0.736 -0.1,-1.056c0.265,-0.319 0.738,-0.363 1.055,-0.1l15.856,13.095l15.451,-13.445c0.312,-0.271 0.786,-0.238 1.058,0.074c0.272,0.313 0.239,0.786 -0.074,1.058l-15.93,13.862c-0.141,0.123 -0.317,0.185 -0.492,0.185Z" style="fill:#667fae;fill-rule:nonzero;"/><path d="M318.989,242.944c-0.186,0 -0.372,-0.069 -0.517,-0.207c-0.3,-0.286 -0.312,-0.76 -0.026,-1.06l11.432,-12.018c0.283,-0.301 0.76,-0.313 1.059,-0.027c0.301,0.286 0.313,0.76 0.027,1.061l-11.432,12.018c-0.147,0.155 -0.345,0.233 -0.543,0.233Z" style="fill:#667fae;fill-rule:nonzero;"/><path d="M351.265,242.504c-0.192,-0 -0.384,-0.073 -0.531,-0.22l-11.386,-11.417c-0.292,-0.293 -0.292,-0.769 0.002,-1.061c0.294,-0.293 0.769,-0.292 1.061,0.001l11.386,11.417c0.292,0.294 0.292,0.769 -0.002,1.061c-0.147,0.146 -0.338,0.219 -0.53,0.219Z" style="fill:#667fae;fill-rule:nonzero;"/><path d="M363.739,218.227c0,5.542 -4.492,10.035 -10.034,10.035c-5.542,-0 -10.034,-4.493 -10.034,-10.035c-0,-5.541 4.492,-10.034 10.034,-10.034c5.542,-0 10.034,4.493 10.034,10.034Z" style="fill:#f26354;fill-rule:nonzero;"/><path d="M353.708,214.35c1.212,0 1.735,0.708 1.238,1.704c-0.46,0.924 -1.342,1.44 -2.607,1.98c0.667,0.756 1.154,1.416 0.556,2.616c-0.311,0.624 -1.371,1.98 -3.363,1.98c-1.44,0 -1.844,-0.9 -1.329,-1.932c0.419,-0.84 1.012,-1.284 1.81,-1.728c0.131,-0.072 0.665,-0.372 0.839,-0.48c-0.367,-0.66 -0.896,-1.14 -0.339,-2.256c0.586,-1.176 2.067,-1.884 3.195,-1.884Zm-0.281,0.348c-0.768,-0 -1.542,0.516 -1.883,1.2c-0.449,0.9 0.182,1.56 0.579,1.896c0.917,-0.444 1.595,-0.936 2.025,-1.8c0.377,-0.756 0.131,-1.296 -0.721,-1.296Zm-2.371,4.032c-1.061,0.588 -1.57,1.224 -1.887,1.86c-0.449,0.9 -0.346,1.728 0.674,1.728c0.828,-0 1.595,-0.6 1.978,-1.368c0.497,-0.996 -0.068,-1.356 -0.765,-2.22Z" style="fill:#fff;fill-rule:nonzero;"/><path d="M362.971,214.206l0.067,0.084c-1.121,1.164 -0.977,1.188 -1.325,1.188l-2.364,-0l-1,1.02c1.14,0.216 1.824,0.456 2.101,1.056c0.283,0.66 0.254,1.104 -0.261,2.136c-0.921,1.848 -2.93,2.94 -4.682,2.94c-0.468,0 -1.452,-0.096 -1.141,-0.72c0.126,-0.252 0.348,-0.456 0.708,-0.456c0.768,0 0.709,0.744 1.393,0.744c0.78,-0 2.003,-0.72 2.691,-2.1c0.951,-1.908 -0.742,-2.508 -2.188,-2.568c-0.03,-0.036 0.018,-0.132 0.018,-0.132l2.762,-2.868l2.484,-0c0.312,-0 0.468,-0.12 0.737,-0.324Z" style="fill:#fff;fill-rule:nonzero;"/><path d="M454.488,214.534l-58.621,-0c-2.209,-0 -4,-1.791 -4,-4l0,-9.172c0,-2.209 1.791,-4 4,-4l58.621,-0c2.209,-0 4,1.791 4,4l0,9.172c0,2.209 -1.791,4 -4,4Z" style="fill:#233f87;fill-rule:nonzero;"/><path d="M400.099,210.451c-0.263,-0 -0.474,-0.093 -0.634,-0.281c-0.16,-0.187 -0.23,-0.422 -0.21,-0.703l0.252,-2.224l-0.027,-0.112l-0.141,0.028l-1.83,1.322c-0.225,0.169 -0.46,0.231 -0.704,0.183c-0.243,-0.046 -0.44,-0.192 -0.59,-0.436c-0.169,-0.3 -0.202,-0.563 -0.099,-0.788c0.102,-0.225 0.277,-0.384 0.52,-0.478l2.055,-0.929l0.085,-0.084l-0.085,-0.085l-2.055,-0.929c-0.262,-0.112 -0.431,-0.29 -0.505,-0.534c-0.076,-0.244 -0.047,-0.488 0.084,-0.732c0.15,-0.244 0.347,-0.389 0.59,-0.437c0.244,-0.046 0.479,0.006 0.704,0.156l1.83,1.351l0.141,0.027l0.027,-0.112l-0.252,-2.224c-0.02,-0.281 0.055,-0.516 0.225,-0.703c0.169,-0.188 0.394,-0.281 0.675,-0.281c0.263,0 0.478,0.093 0.647,0.281c0.169,0.187 0.235,0.422 0.197,0.703l-0.253,2.224l0.028,0.112l0.142,-0.027l1.829,-1.323c0.224,-0.17 0.464,-0.23 0.718,-0.184c0.252,0.048 0.444,0.193 0.576,0.437c0.169,0.3 0.202,0.563 0.097,0.788c-0.102,0.225 -0.276,0.385 -0.52,0.478l-2.054,0.929l-0.084,0.085l0.084,0.084l2.054,0.929c0.264,0.112 0.437,0.291 0.52,0.534c0.085,0.245 0.053,0.489 -0.097,0.732c-0.132,0.244 -0.324,0.39 -0.576,0.436c-0.254,0.048 -0.494,-0.005 -0.718,-0.154l-1.829,-1.351l-0.142,-0.028l-0.028,0.112l0.253,2.224c0.038,0.281 -0.033,0.516 -0.21,0.703c-0.18,0.188 -0.409,0.281 -0.69,0.281Z" style="fill:#fff;fill-rule:nonzero;"/><path d="M412.223,210.451c-0.262,-0 -0.473,-0.093 -0.633,-0.281c-0.16,-0.187 -0.23,-0.422 -0.211,-0.703l0.253,-2.224l-0.028,-0.112l-0.14,0.028l-1.83,1.322c-0.225,0.169 -0.46,0.231 -0.704,0.183c-0.243,-0.046 -0.44,-0.192 -0.59,-0.436c-0.169,-0.3 -0.202,-0.563 -0.099,-0.788c0.102,-0.225 0.276,-0.384 0.52,-0.478l2.055,-0.929l0.085,-0.084l-0.085,-0.085l-2.055,-0.929c-0.262,-0.112 -0.431,-0.29 -0.506,-0.534c-0.075,-0.244 -0.046,-0.488 0.085,-0.732c0.15,-0.244 0.347,-0.389 0.59,-0.437c0.244,-0.046 0.479,0.006 0.704,0.156l1.83,1.351l0.14,0.027l0.028,-0.112l-0.253,-2.224c-0.019,-0.281 0.056,-0.516 0.225,-0.703c0.169,-0.188 0.394,-0.281 0.676,-0.281c0.263,0 0.478,0.093 0.647,0.281c0.169,0.187 0.235,0.422 0.197,0.703l-0.253,2.224l0.028,0.112l0.141,-0.027l1.829,-1.323c0.224,-0.17 0.465,-0.23 0.718,-0.184c0.253,0.048 0.445,0.193 0.577,0.437c0.168,0.3 0.201,0.563 0.097,0.788c-0.102,0.225 -0.276,0.385 -0.52,0.478l-2.054,0.929l-0.084,0.085l0.084,0.084l2.054,0.929c0.263,0.112 0.437,0.291 0.52,0.534c0.085,0.245 0.053,0.489 -0.097,0.732c-0.132,0.244 -0.324,0.39 -0.577,0.436c-0.253,0.048 -0.494,-0.005 -0.718,-0.154l-1.829,-1.351l-0.141,-0.028l-0.028,0.112l0.253,2.224c0.038,0.281 -0.033,0.516 -0.211,0.703c-0.179,0.188 -0.408,0.281 -0.69,0.281Z" style="fill:#fff;fill-rule:nonzero;"/><path d="M424.348,210.451c-0.262,-0 -0.474,-0.093 -0.633,-0.281c-0.161,-0.187 -0.231,-0.422 -0.211,-0.703l0.253,-2.224l-0.028,-0.112l-0.14,0.028l-1.831,1.322c-0.225,0.169 -0.46,0.231 -0.703,0.183c-0.244,-0.046 -0.441,-0.192 -0.59,-0.436c-0.17,-0.3 -0.203,-0.563 -0.099,-0.788c0.102,-0.225 0.276,-0.384 0.52,-0.478l2.055,-0.929l0.084,-0.084l-0.084,-0.085l-2.055,-0.929c-0.262,-0.112 -0.432,-0.29 -0.506,-0.534c-0.075,-0.244 -0.046,-0.488 0.085,-0.732c0.149,-0.244 0.346,-0.389 0.59,-0.437c0.243,-0.046 0.478,0.006 0.703,0.156l1.831,1.351l0.14,0.027l0.028,-0.112l-0.253,-2.224c-0.02,-0.281 0.056,-0.516 0.225,-0.703c0.169,-0.188 0.394,-0.281 0.676,-0.281c0.263,0 0.477,0.093 0.646,0.281c0.17,0.187 0.236,0.422 0.197,0.703l-0.252,2.224l0.028,0.112l0.141,-0.027l1.829,-1.323c0.224,-0.17 0.464,-0.23 0.718,-0.184c0.253,0.048 0.445,0.193 0.577,0.437c0.168,0.3 0.201,0.563 0.097,0.788c-0.102,0.225 -0.277,0.385 -0.52,0.478l-2.054,0.929l-0.085,0.085l0.085,0.084l2.054,0.929c0.263,0.112 0.436,0.291 0.52,0.534c0.084,0.245 0.052,0.489 -0.097,0.732c-0.132,0.244 -0.324,0.39 -0.577,0.436c-0.254,0.048 -0.494,-0.005 -0.718,-0.154l-1.829,-1.351l-0.141,-0.028l-0.028,0.112l0.252,2.224c0.039,0.281 -0.033,0.516 -0.21,0.703c-0.179,0.188 -0.409,0.281 -0.69,0.281Z" style="fill:#fff;fill-rule:nonzero;"/><path d="M436.472,210.451c-0.262,-0 -0.473,-0.093 -0.632,-0.281c-0.161,-0.187 -0.231,-0.422 -0.211,-0.703l0.253,-2.224l-0.029,-0.112l-0.14,0.028l-1.83,1.322c-0.225,0.169 -0.46,0.231 -0.704,0.183c-0.243,-0.046 -0.44,-0.192 -0.59,-0.436c-0.169,-0.3 -0.202,-0.563 -0.099,-0.788c0.102,-0.225 0.277,-0.384 0.52,-0.478l2.055,-0.929l0.085,-0.084l-0.085,-0.085l-2.055,-0.929c-0.262,-0.112 -0.431,-0.29 -0.505,-0.534c-0.076,-0.244 -0.047,-0.488 0.084,-0.732c0.15,-0.244 0.347,-0.389 0.59,-0.437c0.244,-0.046 0.479,0.006 0.704,0.156l1.83,1.351l0.14,0.027l0.029,-0.112l-0.253,-2.224c-0.02,-0.281 0.055,-0.516 0.224,-0.703c0.17,-0.188 0.395,-0.281 0.676,-0.281c0.263,0 0.478,0.093 0.647,0.281c0.169,0.187 0.235,0.422 0.197,0.703l-0.253,2.224l0.028,0.112l0.142,-0.027l1.829,-1.323c0.224,-0.17 0.464,-0.23 0.718,-0.184c0.252,0.048 0.444,0.193 0.576,0.437c0.169,0.3 0.202,0.563 0.097,0.788c-0.102,0.225 -0.276,0.385 -0.52,0.478l-2.054,0.929l-0.084,0.085l0.084,0.084l2.054,0.929c0.264,0.112 0.437,0.291 0.52,0.534c0.085,0.245 0.053,0.489 -0.097,0.732c-0.132,0.244 -0.324,0.39 -0.576,0.436c-0.254,0.048 -0.494,-0.005 -0.718,-0.154l-1.829,-1.351l-0.142,-0.028l-0.028,0.112l0.253,2.224c0.038,0.281 -0.033,0.516 -0.21,0.703c-0.18,0.188 -0.409,0.281 -0.691,0.281Z" style="fill:#fff;fill-rule:nonzero;"/><path d="M448.597,210.451c-0.262,-0 -0.473,-0.093 -0.632,-0.281c-0.161,-0.187 -0.231,-0.422 -0.212,-0.703l0.254,-2.224l-0.029,-0.112l-0.14,0.028l-1.83,1.322c-0.225,0.169 -0.46,0.231 -0.704,0.183c-0.243,-0.046 -0.44,-0.192 -0.59,-0.436c-0.169,-0.3 -0.202,-0.563 -0.099,-0.788c0.102,-0.225 0.276,-0.384 0.52,-0.478l2.055,-0.929l0.085,-0.084l-0.085,-0.085l-2.055,-0.929c-0.262,-0.112 -0.431,-0.29 -0.506,-0.534c-0.075,-0.244 -0.046,-0.488 0.085,-0.732c0.15,-0.244 0.347,-0.389 0.59,-0.437c0.244,-0.046 0.479,0.006 0.704,0.156l1.83,1.351l0.14,0.027l0.029,-0.112l-0.254,-2.224c-0.019,-0.281 0.056,-0.516 0.225,-0.703c0.169,-0.188 0.394,-0.281 0.676,-0.281c0.263,0 0.478,0.093 0.647,0.281c0.169,0.187 0.235,0.422 0.197,0.703l-0.253,2.224l0.028,0.112l0.141,-0.027l1.829,-1.323c0.224,-0.17 0.465,-0.23 0.718,-0.184c0.253,0.048 0.445,0.193 0.577,0.437c0.168,0.3 0.201,0.563 0.097,0.788c-0.102,0.225 -0.276,0.385 -0.52,0.478l-2.054,0.929l-0.085,0.085l0.085,0.084l2.054,0.929c0.263,0.112 0.437,0.291 0.52,0.534c0.085,0.245 0.053,0.489 -0.097,0.732c-0.132,0.244 -0.324,0.39 -0.577,0.436c-0.253,0.048 -0.494,-0.005 -0.718,-0.154l-1.829,-1.351l-0.141,-0.028l-0.028,0.112l0.253,2.224c0.038,0.281 -0.033,0.516 -0.211,0.703c-0.179,0.188 -0.408,0.281 -0.69,0.281Z" style="fill:#4ba2da;fill-rule:nonzero;"/></g></svg>