<?xml version="1.0" encoding="UTF-8" standalone="no"?><!DOCTYPE svg PUBLIC "-//W3C//DTD SVG 1.1//EN" "http://www.w3.org/Graphics/SVG/1.1/DTD/svg11.dtd"><svg width="100%" height="100%" viewBox="0 0 410 254" version="1.1" xmlns="http://www.w3.org/2000/svg" xmlns:xlink="http://www.w3.org/1999/xlink" xml:space="preserve" xmlns:serif="http://www.serif.com/" style="fill-rule:evenodd;clip-rule:evenodd;stroke-linejoin:round;stroke-miterlimit:2;"><g id="Group_3839"></g><g id="Group_173"></g><g id="Group_2839"></g><g id="Group_3788"></g><g id="Group_3751"><path id="Path_11680" d="M306.413,27.434c-0.013,0 -0.027,0 -0.04,0c-56.333,0 -102.688,46.356 -102.688,102.689c-0,56.333 46.355,102.688 102.688,102.688c56.33,0 102.684,-46.35 102.688,-102.68c0,-0.014 0,-0.027 0,-0.04c0,-56.312 -46.337,-102.649 -102.648,-102.649c0,0 0,-0.008 0,-0.008Zm-92.295,102.681c-0.003,-12.949 2.73,-25.752 8.019,-37.571l44.051,120.652c-31.792,-15.402 -52.069,-47.755 -52.07,-83.081Zm92.295,92.343c-8.829,-0.006 -17.611,-1.278 -26.079,-3.777l27.715,-80.491l28.381,77.748c0.178,0.447 0.392,0.879 0.641,1.291c-9.85,3.463 -20.217,5.231 -30.658,5.229Zm12.759,-135.616c3.531,-0.196 7.055,-0.49 10.569,-0.882c2.087,-0.011 3.798,-1.731 3.798,-3.817c-0,-2.094 -1.723,-3.818 -3.817,-3.818c-0.117,0 -0.233,0.006 -0.349,0.016l-0.217,0c0,0 -14.956,1.179 -24.579,1.179c-9.062,0 -24.315,-1.179 -24.315,-1.179c-0.182,-0.026 -0.366,-0.039 -0.55,-0.039c-2.094,-0 -3.817,1.723 -3.817,3.817c0,1.999 1.57,3.677 3.565,3.809l0.216,-0c0,-0 4.708,0.585 9.704,0.874l14.371,39.407l-20.209,60.595l-33.634,-100.002c5.566,-0.297 10.578,-0.882 10.578,-0.882c1.898,-0.241 3.336,-1.874 3.336,-3.787c0,-2.094 -1.723,-3.817 -3.817,-3.817c-0.037,-0 -0.075,0 -0.112,0.001c-0.038,0.002 -14.949,1.179 -24.58,1.179c-1.724,0 -3.777,-0.048 -5.934,-0.112c17.046,-25.932 46.072,-41.588 77.105,-41.588c18.014,0 35.64,5.275 50.692,15.172c4.111,2.7 7.997,5.728 11.62,9.054c-0.393,0 -0.802,-0.08 -1.195,-0.08c-8.602,0.226 -15.556,7.364 -15.556,15.969c0,0.146 0.002,0.292 0.006,0.438c0.964,7.916 4.101,15.411 9.062,21.653c4.852,7.596 7.499,16.393 7.643,25.405c-0.955,10.226 -3.319,20.27 -7.025,29.848l-9.214,30.795l-33.345,-99.208Zm68.285,-1.026c23.844,43.636 8.379,99.097 -34.604,124.1l28.197,-81.525c4.467,-10.465 6.846,-21.703 7.001,-33.08c-0.008,-3.176 -0.225,-6.348 -0.65,-9.495l0.056,-0Z" style="fill:#363432;fill-rule:nonzero;"/><path id="Path_28891" d="M217.783,122.111l-0,-94.901l-122.015,15.982l-0,78.919l122.015,0Zm-129.329,-78.245l-88.454,11.724l0,66.521l88.454,0l-0,-78.245Zm-88.454,85.808l0,67.17l88.422,11.748l-0,-78.918l-88.422,-0Zm95.736,79.889l122.015,15.991l-0,-95.88l-121.983,-0l-0.032,79.889Z" style="fill:#0c7399;fill-rule:nonzero;"/><g id="Group_3750"><path id="Path_28892" d="M263.405,120.852c-2.387,-18.738 -10.954,-36.157 -24.339,-49.487c3.445,-5.217 5.29,-11.328 5.309,-17.579c-2.177,-20.073 -19.322,-35.459 -39.512,-35.459c-20.104,-0 -37.202,15.253 -39.487,35.227c0.012,7.37 2.507,14.525 7.081,20.305c-6.567,7.608 -9.927,17.479 -9.367,27.514c-0.025,1.392 0.034,2.785 0.177,4.17c-21.989,0.802 -39.672,27.354 -39.672,60.017c-0,33.161 18.212,60.042 40.674,60.042c5.276,-0.042 10.444,-1.499 14.964,-4.219c5.799,5.454 13.527,8.397 21.484,8.18c5.548,0.048 11.019,-1.315 15.895,-3.961c13.884,-1.056 26.303,-9.147 32.879,-21.42c2.184,0.462 4.409,0.701 6.64,0.714c20.538,-0 37.178,-19.006 37.178,-42.447c0.793,-19.032 -11.611,-36.285 -29.904,-41.597Z" style="fill:#fff;fill-rule:nonzero;"/><path id="Path_28893" d="M251.609,162.553c-0.327,7.25 3.852,13.994 10.489,16.929c8.215,0.487 16.183,-2.997 21.404,-9.359l2.494,0c3.552,-0.447 7.134,0.612 9.872,2.92c3.721,3.247 4.426,10.906 6.239,18.011c0.554,2.211 1.683,4.236 3.272,5.87c4.143,3.649 6.84,8.669 7.594,14.138c-0.16,2.895 -2.213,5.037 -5.958,7.386c-7.499,4.676 -20.779,8.741 -29.271,19.343c-5.829,7.942 -14.602,13.227 -24.347,14.668c-8.002,0.908 -15.693,-3.63 -18.766,-11.075c-2.074,-6.813 -1.848,-14.123 0.642,-20.795c2.495,-7.621 4.348,-15.438 5.541,-23.368c0.095,-7.428 0.836,-14.834 2.214,-22.134c0.665,-4.942 3.443,-9.361 7.61,-12.101l0.554,-0.289l0.417,-0.144Z" style="fill:url(#_Linear1);fill-rule:nonzero;"/><path id="Path_28894" d="M194.069,54.588c5.074,0.208 9.977,1.901 14.098,4.868c3.971,1.994 8.086,3.688 12.31,5.068c2.326,0.764 4.303,2.335 5.574,4.427c0.834,1.69 0.89,3.662 0.152,5.397c-2.493,4.921 -7.011,8.519 -12.366,9.848c-3.168,1.401 -6.192,3.106 -9.03,5.092c-3.51,2.188 -7.609,3.247 -11.74,3.031c-3.316,-0.077 -6.506,-1.296 -9.03,-3.448c-2.223,-2.128 -4.613,-4.074 -7.145,-5.822c-3.617,-1.674 -6.479,-4.642 -8.02,-8.316c-0.879,-2.451 0.04,-5.208 2.214,-6.64l5.613,-4.17c0.723,-0.498 1.419,-1.033 2.085,-1.604c2.694,-2.989 6.032,-5.328 9.76,-6.841c1.779,-0.603 3.647,-0.904 5.525,-0.89Z" style="fill:url(#_Linear2);fill-rule:nonzero;"/><g id="g3998"><path id="path4004" d="M206.716,0c-1.78,0 -3.652,0.067 -5.614,0.2c-49.223,3.609 -36.167,50.964 -36.889,66.826c-0.478,11.729 -4.757,22.991 -12.189,32.078c-13.418,13.896 -24.15,30.155 -31.653,47.956c-3.4,8.379 -4.574,17.497 -3.408,26.464c-0.449,0.361 -0.866,0.753 -1.291,1.13c-3.016,2.944 -5.237,6.488 -7.739,8.886c-2.723,2.067 -5.907,3.443 -9.278,4.01c-4.156,1 -7.765,3.574 -10.065,7.177c-1.73,3.793 -2.037,8.085 -0.866,12.085c0.936,3.344 1.103,6.856 0.489,10.273c-2.763,4.782 -3.209,10.569 -1.211,15.718c2.551,3.55 6.568,5.769 10.931,6.039c10.995,0.649 21.857,2.736 32.31,6.207l0.866,-1.492l-0.866,1.492c9.35,4.913 20.029,6.714 30.474,5.14c6.005,-0.983 11.221,-4.71 14.098,-10.072c6.84,-0 14.322,-2.663 26.311,-3.272c8.14,-0.602 18.301,2.638 30.009,2.013c0.299,1.164 0.752,2.283 1.347,3.328c4.25,8.004 12.986,12.644 21.997,11.684c10.185,-1.148 19.576,-6.079 26.304,-13.809l-1.419,-1.091l1.443,1.067c7.362,-8.02 19.583,-11.508 27.699,-15.959c4.01,-2.221 7.354,-5.02 7.594,-9.062c0.241,-4.042 -2.349,-8.581 -8.364,-14.651c-2.062,-2.909 -3.406,-6.265 -3.921,-9.792c-0.61,-4.249 -2.636,-8.169 -5.75,-11.123c-1.329,-1.046 -2.826,-1.86 -4.427,-2.406c4.428,-12.835 3.706,-26.9 -2.013,-39.215c-6.321,-13.699 -14.932,-26.22 -25.461,-37.025c-9.271,-10.658 -18.349,-20.754 -18.172,-35.711c0.296,-22.775 2.783,-65.093 -41.276,-65.093Zm6.64,35.71c2.444,-0.017 4.834,0.723 6.841,2.117c2.219,1.454 3.995,3.491 5.132,5.887c1.258,2.436 1.926,5.133 1.949,7.875c-0.016,0.074 -0.016,0.15 -0,0.224c0.038,2.777 -0.577,5.525 -1.797,8.02c-0.64,1.386 -1.484,2.67 -2.502,3.809l-1.034,-0.417c-1.948,-0.781 -3.937,-1.453 -5.959,-2.013c0.619,-0.68 1.12,-1.458 1.484,-2.302c0.664,-1.42 1.027,-2.963 1.067,-4.53l-0,-0.169c0.048,-1.461 -0.186,-2.918 -0.69,-4.29c-0.433,-1.291 -1.196,-2.447 -2.213,-3.352c-0.839,-0.8 -1.946,-1.261 -3.104,-1.291l-0.088,-0c-1.104,-0.002 -2.174,0.385 -3.024,1.09c-1.063,0.845 -1.892,1.95 -2.405,3.208c-0.634,1.394 -0.978,2.903 -1.011,4.435l0,0.176c-0.022,0.852 0.045,1.704 0.201,2.542c-2.028,-0.934 -4.149,-1.649 -6.328,-2.133c-0.114,-0.797 -0.181,-1.601 -0.2,-2.406l-0,-0.216c-0.059,-2.776 0.545,-5.525 1.764,-8.02c1.084,-2.432 2.815,-4.521 5.004,-6.038c2.007,-1.458 4.425,-2.242 6.905,-2.238l0.128,0l-0.12,0.032Zm-34.764,2.093c1.669,0.011 3.289,0.575 4.603,1.604c1.678,1.284 2.991,2.985 3.809,4.932c1.035,2.131 1.627,4.45 1.74,6.817c0.089,1.003 0.089,2.012 0,3.015l-0.946,0.257c-1.678,0.469 -3.294,1.139 -4.811,1.996c0.12,-0.891 0.12,-1.795 -0,-2.686l-0,-0.136c-0.12,-1.185 -0.434,-2.342 -0.931,-3.425c-0.417,-0.989 -1.069,-1.862 -1.9,-2.542c-0.583,-0.507 -1.328,-0.792 -2.101,-0.802l-0.225,0c-0.862,0.059 -1.662,0.475 -2.205,1.147c-0.681,0.795 -1.155,1.745 -1.38,2.767c-0.267,1.242 -0.302,2.522 -0.104,3.777l0,0.136c0.108,1.194 0.42,2.36 0.922,3.449c0.424,0.981 1.079,1.845 1.909,2.518l0.377,0.28l-1.861,1.259l-1.531,1.011c-1.346,-1.187 -2.423,-2.647 -3.16,-4.283c-2.031,-4.296 -2.338,-9.213 -0.858,-13.729c0.609,-1.997 1.738,-3.796 3.272,-5.212c1.302,-1.239 3.015,-1.956 4.812,-2.013l0.577,-0l-0.008,-0.137Zm15.493,17.643c5.014,0.176 9.887,1.709 14.098,4.435c3.989,1.821 8.099,3.362 12.302,4.611c2.267,0.647 4.239,2.066 5.574,4.01c0.836,1.517 0.895,3.347 0.16,4.916c-2.655,4.614 -7.162,7.879 -12.374,8.965c-3.145,1.266 -6.168,2.818 -9.03,4.635c-3.575,2.015 -7.65,2.974 -11.748,2.767c-3.268,-0.056 -6.434,-1.158 -9.03,-3.143c-2.238,-1.951 -4.627,-3.721 -7.145,-5.293c-3.525,-1.435 -6.388,-4.14 -8.02,-7.579c-0.857,-2.275 0.09,-4.862 2.214,-6.046l5.613,-3.785c0.714,-0.44 1.405,-0.917 2.069,-1.428c2.764,-2.759 6.094,-4.885 9.76,-6.231c1.794,-0.559 3.662,-0.843 5.541,-0.842l0.016,0.008Zm26.954,14.507c-1.924,0.259 -3.776,0.902 -5.446,1.893c-2.037,1.034 -4.314,2.365 -6.776,3.649c-4.961,2.972 -10.557,4.726 -16.327,5.116c-4.929,-0.108 -9.695,-1.795 -13.593,-4.812c-1.708,-1.227 -3.104,-2.454 -4.227,-3.4c-0.481,-0.432 -0.987,-0.836 -1.515,-1.211c-0.425,-0.396 -0.983,-0.62 -1.564,-0.625l-0,1.956c0.146,0.058 0.286,0.131 0.417,0.217c0.329,0.257 0.802,0.609 1.347,1.091c1.417,1.24 2.898,2.408 4.435,3.496c4.278,3.288 9.498,5.123 14.892,5.237c6.126,-0.367 12.075,-2.199 17.346,-5.341c2.518,-1.331 4.812,-2.639 6.752,-3.625c1.373,-0.795 2.869,-1.354 4.427,-1.652l-0.136,-2.013l-0.032,0.024Zm6.239,6.897c5.043,16.492 11.831,32.399 20.249,47.451c6.062,9.9 10.433,20.741 12.935,32.077c2.004,-0.026 4.004,0.203 5.95,0.682c7.506,-17.691 -6.351,-36.777 -12.694,-42.078c-2.575,-2.261 -2.679,-3.272 -1.42,-3.208c9.181,7.647 15.882,17.855 19.247,29.319c1.614,5.78 1.681,11.885 0.192,17.699c0.802,0.297 1.604,0.618 2.406,0.962c12.029,5.341 16.488,10.073 14.355,16.304l-2.278,-0c1.74,-5.02 -2.213,-8.725 -12.422,-12.96c-10.666,-4.282 -19.158,-3.849 -20.602,4.812c-0.089,0.46 -0.161,0.923 -0.216,1.387c-0.826,0.257 -1.631,0.579 -2.406,0.963c-4.791,2.625 -8.186,7.236 -9.27,12.59c-1.466,6.505 -2.272,13.141 -2.406,19.808c-0.735,4.9 -1.976,9.711 -3.705,14.355c-18.303,13.168 -42.693,14.524 -62.343,3.464c-1.387,-2.013 -2.983,-4.009 -4.643,-6.038c-1.059,-1.259 -2.214,-2.502 -3.208,-3.729c1.825,0.049 3.642,-0.259 5.349,-0.907c1.657,-0.608 2.994,-1.869 3.697,-3.488c1.259,-3.079 -0,-7.41 -4.01,-12.366c-5.908,-6.621 -12.984,-12.098 -20.874,-16.159c-6.113,-3.113 -10.85,-8.397 -13.28,-14.812c-1.76,-5.677 -1.822,-11.747 -0.177,-17.458c3.288,-10.531 8.298,-20.443 14.828,-29.335c1.259,-0.85 0.441,1.564 -4.715,10.321c-4.644,8.019 -13.272,26.464 -1.436,40.899c0.452,-10.558 3.009,-20.919 7.522,-30.474c6.64,-13.633 20.338,-37.122 21.428,-55.887c0.554,0.361 2.494,1.556 3.36,2.013c2.407,1.547 4.706,3.256 6.881,5.116c2.943,2.221 6.5,3.482 10.185,3.609c4.457,0.168 8.876,-0.898 12.766,-3.079c2.753,-1.719 5.639,-3.215 8.629,-4.475c4.696,-1.147 8.924,-3.719 12.102,-7.362l0.024,-0.016Zm24.058,96.04c-0.09,6.549 4.053,12.456 10.241,14.603c7.805,0.519 15.457,-2.415 20.914,-8.019l2.406,0c3.501,-0.434 7.038,0.497 9.872,2.598c2.469,2.544 4.068,5.808 4.563,9.319c0.57,4.122 2.232,8.018 4.812,11.283c5.733,5.79 7.57,9.712 7.418,12.214c-0.153,2.502 -2.214,4.354 -5.823,6.367c-7.329,4.01 -20.337,7.538 -28.637,16.688c-6.062,7.025 -14.534,11.54 -23.745,12.655c-7.501,0.976 -14.855,-2.859 -18.349,-9.567c-2.015,-5.857 -1.783,-12.259 0.65,-17.955c2.436,-6.531 4.244,-13.279 5.397,-20.153c0.106,-6.451 0.842,-12.875 2.197,-19.183c0.79,-4.417 3.532,-8.251 7.458,-10.425l0.53,-0.256l0.096,-0.169Zm-125.103,-0.321c0.623,0.006 1.244,0.051 1.861,0.137c4.898,1.008 9.215,3.886 12.029,8.019c4.122,5.583 7.687,11.556 10.642,17.835c4.11,6.26 8.8,12.119 14.01,17.499c4.776,4.423 7.808,10.419 8.54,16.888c-0.386,7.246 -6.059,13.187 -13.28,13.906c-9.66,1.346 -19.503,-0.359 -28.148,-4.876c-10.818,-3.785 -22.123,-6.005 -33.569,-6.592c-4.427,-0.802 -7.17,-2.013 -8.477,-4.37c-1.307,-2.358 -1.323,-6.336 1.436,-13.184c0.916,-3.952 0.812,-8.073 -0.305,-11.973c-0.962,-3.315 -0.793,-6.857 0.481,-10.064c1.822,-2.896 4.749,-4.925 8.1,-5.614c3.898,-0.842 7.562,-2.534 10.73,-4.956c2.991,-2.855 5.22,-6.416 7.835,-9.006c1.967,-2.237 4.792,-3.54 7.77,-3.584l0.113,-0l0.232,-0.065Z" style="fill-rule:nonzero;"/></g><path id="Path_28895" d="M126.161,164.574c0.624,0.005 1.246,0.059 1.861,0.16c5.034,1.195 9.377,4.379 12.029,8.822c4.179,6.173 7.771,12.724 10.73,19.567c4.073,6.83 8.762,13.272 14.01,19.247c4.852,5.041 7.862,11.576 8.54,18.54c-0.108,7.61 -5.756,14.091 -13.28,15.237c-9.716,1.473 -19.649,-0.415 -28.148,-5.349c-11.371,-6.022 -24.86,-5.429 -33.569,-7.217c-4.427,-0.906 -7.17,-2.213 -8.477,-4.812c-1.44,-4.812 -0.921,-10.003 1.444,-14.435c0.914,-4.349 0.807,-8.851 -0.313,-13.151c-0.963,-3.656 -0.792,-7.519 0.489,-11.075c1.717,-3.093 4.654,-5.328 8.092,-6.159c3.96,-0.952 7.643,-2.817 10.754,-5.445c2.983,-3.144 5.22,-7.081 7.835,-9.888c1.867,-2.407 4.718,-3.856 7.763,-3.946l0.112,0l0.128,-0.096Z" style="fill:url(#_Linear3);fill-rule:nonzero;"/></g></g><g id="Group_2717"></g><g id="Group_3750-2"></g><g id="Group_2340"></g><g id="Group_2590"></g><defs><linearGradient id="_Linear1" x1="0" y1="0" x2="1" y2="0" gradientUnits="userSpaceOnUse" gradientTransform="matrix(-234.161,299.695,-299.695,-234.161,398.7,37.0072)"><stop offset="0" style="stop-color:#ffe500;stop-opacity:1"/><stop offset="0.03" style="stop-color:#fedd00;stop-opacity:1"/><stop offset="0.11" style="stop-color:#fcca00;stop-opacity:1"/><stop offset="0.19" style="stop-color:#fbbf00;stop-opacity:1"/><stop offset="0.28" style="stop-color:#fbbb00;stop-opacity:1"/><stop offset="0.67" style="stop-color:#ef8034;stop-opacity:1"/><stop offset="0.89" style="stop-color:#ea6033;stop-opacity:1"/><stop offset="1" style="stop-color:#e63430;stop-opacity:1"/></linearGradient><linearGradient id="_Linear2" x1="0" y1="0" x2="1" y2="0" gradientUnits="userSpaceOnUse" gradientTransform="matrix(-1699.35,1412.66,-1412.66,-1699.35,15403.7,197.354)"><stop offset="0" style="stop-color:#ffe500;stop-opacity:1"/><stop offset="0.03" style="stop-color:#fedd00;stop-opacity:1"/><stop offset="0.11" style="stop-color:#fcca00;stop-opacity:1"/><stop offset="0.19" style="stop-color:#fbbf00;stop-opacity:1"/><stop offset="0.28" style="stop-color:#fbbb00;stop-opacity:1"/><stop offset="0.67" style="stop-color:#ef8034;stop-opacity:1"/><stop offset="0.89" style="stop-color:#ea6033;stop-opacity:1"/><stop offset="1" style="stop-color:#e63430;stop-opacity:1"/></linearGradient><linearGradient id="_Linear3" x1="0" y1="0" x2="1" y2="0" gradientUnits="userSpaceOnUse" gradientTransform="matrix(-2482.83,3096.28,-3096.28,-2482.83,22748.6,325.125)"><stop offset="0" style="stop-color:#ffe500;stop-opacity:1"/><stop offset="0.03" style="stop-color:#fedd00;stop-opacity:1"/><stop offset="0.11" style="stop-color:#fcca00;stop-opacity:1"/><stop offset="0.19" style="stop-color:#fbbf00;stop-opacity:1"/><stop offset="0.28" style="stop-color:#fbbb00;stop-opacity:1"/><stop offset="0.67" style="stop-color:#ef8034;stop-opacity:1"/><stop offset="0.89" style="stop-color:#ea6033;stop-opacity:1"/><stop offset="1" style="stop-color:#e63430;stop-opacity:1"/></linearGradient></defs></svg>